<svg xmlns="http://www.w3.org/2000/svg" width="20" height="20" viewBox="0 0 20 20" fill="none">
  <path d="M15.8463 8.9711C15.8172 9.00015 15.7828 9.0232 15.7448 9.03893C15.7069 9.05465 15.6662 9.06275 15.6252 9.06275C15.5841 9.06275 15.5434 9.05465 15.5055 9.03893C15.4676 9.0232 15.4331 9.00015 15.4041 8.9711L10.3127 3.87969V16.875C10.3127 16.9579 10.2798 17.0374 10.2211 17.096C10.1625 17.1546 10.0831 17.1875 10.0002 17.1875C9.91729 17.1875 9.83781 17.1546 9.7792 17.096C9.7206 17.0374 9.68767 16.9579 9.68767 16.875V3.87969L4.59627 8.9711C4.56723 9.00013 4.53276 9.02316 4.49483 9.03887C4.45689 9.05459 4.41623 9.06268 4.37517 9.06268C4.33411 9.06268 4.29345 9.05459 4.25552 9.03887C4.21758 9.02316 4.18311 9.00013 4.15408 8.9711C4.12505 8.94206 4.10201 8.90759 4.0863 8.86966C4.07059 8.83172 4.0625 8.79106 4.0625 8.75C4.0625 8.70894 4.07059 8.66828 4.0863 8.63035C4.10201 8.59241 4.12505 8.55794 4.15408 8.52891L9.77908 2.90391C9.8081 2.87485 9.84257 2.8518 9.8805 2.83608C9.91844 2.82035 9.95911 2.81226 10.0002 2.81226C10.0412 2.81226 10.0819 2.82035 10.1198 2.83608C10.1578 2.8518 10.1922 2.87485 10.2213 2.90391L15.8463 8.52891C15.8753 8.55793 15.8984 8.5924 15.9141 8.63033C15.9298 8.66827 15.9379 8.70893 15.9379 8.75C15.9379 8.79107 15.9298 8.83173 15.9141 8.86967C15.8984 8.90761 15.8753 8.94207 15.8463 8.9711Z" fill="#FF4231"/>
</svg>