<svg xmlns="http://www.w3.org/2000/svg" width="24" height="25" viewBox="0 0 24 25" fill="none">
    <path
        d="M19.7653 9.76528L12.2653 17.2653C12.2304 17.3001 12.1891 17.3278 12.1436 17.3467C12.098 17.3655 12.0492 17.3753 12 17.3753C11.9507 17.3753 11.9019 17.3655 11.8564 17.3467C11.8108 17.3278 11.7695 17.3001 11.7347 17.2653L4.23465 9.76528C4.19981 9.73044 4.17217 9.68907 4.15332 9.64355C4.13446 9.59803 4.12476 9.54924 4.12476 9.49996C4.12476 9.45069 4.13446 9.4019 4.15332 9.35638C4.17217 9.31086 4.19981 9.26949 4.23465 9.23465C4.30502 9.16429 4.40045 9.12476 4.49996 9.12476C4.54924 9.12476 4.59803 9.13446 4.64355 9.15332C4.68907 9.17217 4.73044 9.19981 4.76528 9.23465L12 16.4693L19.2347 9.23465C19.2695 9.19981 19.3109 9.17217 19.3564 9.15332C19.4019 9.13446 19.4507 9.12476 19.5 9.12476C19.5492 9.12476 19.598 9.13446 19.6436 9.15332C19.6891 9.17217 19.7304 9.19981 19.7653 9.23465C19.8001 9.26949 19.8278 9.31086 19.8466 9.35638C19.8655 9.4019 19.8752 9.45069 19.8752 9.49996C19.8752 9.54924 19.8655 9.59803 19.8466 9.64355C19.8278 9.68907 19.8001 9.73044 19.7653 9.76528Z"
        fill="white" />
</svg>