<svg width="30" height="24" viewBox="0 0 30 24" fill="none" xmlns="http://www.w3.org/2000/svg">
<path d="M2 9.49972H5.5V18.4997H3C2.86739 18.4997 2.74021 18.5524 2.64645 18.6462C2.55268 18.7399 2.5 18.8671 2.5 18.9997C2.5 19.1323 2.55268 19.2595 2.64645 19.3533C2.74021 19.447 2.86739 19.4997 3 19.4997H27C27.1326 19.4997 27.2598 19.447 27.3536 19.3533C27.4473 19.2595 27.5 19.1323 27.5 18.9997C27.5 18.8671 27.4473 18.7399 27.3536 18.6462C27.2598 18.5524 27.1326 18.4997 27 18.4997H24.5V9.49972H28C28.109 9.49997 28.2152 9.46457 28.3022 9.39892C28.3893 9.33327 28.4525 9.24096 28.4822 9.13605C28.5119 9.03115 28.5065 8.91941 28.4669 8.81785C28.4272 8.71628 28.3555 8.63047 28.2625 8.57347L15.2625 0.573472C15.1836 0.5248 15.0927 0.499023 15 0.499023C14.9073 0.499023 14.8164 0.5248 14.7375 0.573472L1.7375 8.57347C1.64455 8.63047 1.57278 8.71628 1.53311 8.81785C1.49345 8.91941 1.48808 9.03115 1.51781 9.13605C1.54754 9.24096 1.61074 9.33327 1.69779 9.39892C1.78484 9.46457 1.89097 9.49997 2 9.49972ZM6.5 9.49972H11.5V18.4997H6.5V9.49972ZM17.5 9.49972V18.4997H12.5V9.49972H17.5ZM23.5 18.4997H18.5V9.49972H23.5V18.4997ZM15 1.58722L26.2337 8.49972H3.76625L15 1.58722ZM29.5 22.9997C29.5 23.1323 29.4473 23.2595 29.3536 23.3533C29.2598 23.447 29.1326 23.4997 29 23.4997H1C0.867392 23.4997 0.740215 23.447 0.646447 23.3533C0.552678 23.2595 0.5 23.1323 0.5 22.9997C0.5 22.8671 0.552678 22.7399 0.646447 22.6462C0.740215 22.5524 0.867392 22.4997 1 22.4997H29C29.1326 22.4997 29.2598 22.5524 29.3536 22.6462C29.4473 22.7399 29.5 22.8671 29.5 22.9997Z" fill="white"/>
</svg>
