<svg width="40" height="40" viewBox="0 0 40 40" fill="none" xmlns="http://www.w3.org/2000/svg">
<path d="M14.3024 10.6669V14.9113H16.1092C16.882 14.9113 17.5078 15.295 17.5078 15.7688V21.9853C17.5078 22.1321 17.312 22.2522 17.0725 22.2522C16.833 22.2522 16.6371 22.1321 16.6371 21.9853V15.4952C16.6371 15.4652 16.5935 15.4385 16.5446 15.4385H11.2657V24.4579H14.8684C15.1078 24.4579 15.3038 24.578 15.3038 24.7248C15.3038 24.8717 15.1078 24.9918 14.8684 24.9918H14.297V29.0593C14.297 29.2062 14.1011 29.3263 13.8616 29.3263C13.6221 29.3263 13.4262 29.2062 13.4262 29.0593V24.9918H11.799C11.0262 24.9918 10.4004 24.608 10.4004 24.1342V15.7688C10.4004 15.295 11.0262 14.9113 11.799 14.9113H13.4262V10.6669C13.4262 10.52 13.6221 10.3999 13.8616 10.3999C14.1011 10.3999 14.297 10.52 14.297 10.6669H14.3024Z" fill="url(#paint0_linear_1767_14752)"/>
<path d="M25.5514 27.4143H24.0275C23.3418 27.4143 22.7813 27.074 22.7813 26.6502V13.4998C22.7813 13.0794 23.3364 12.7357 24.0275 12.7357H25.5514V10.6669C25.5514 10.52 25.7473 10.3999 25.9868 10.3999C26.2262 10.3999 26.4221 10.52 26.4221 10.6669V12.7357H28.3541C29.0398 12.7357 29.6004 13.076 29.6004 13.4998V24.5113C29.6004 24.6581 29.4044 24.7782 29.165 24.7782C28.9255 24.7782 28.7296 24.6581 28.7296 24.5113V13.2696H23.6521V26.8837H26.7813C27.0208 26.8837 27.2167 27.0039 27.2167 27.1507C27.2167 27.2975 27.0208 27.4176 26.7813 27.4176H26.4221V29.3329C26.4221 29.4798 26.2262 29.5999 25.9868 29.5999C25.7473 29.5999 25.5514 29.4798 25.5514 29.3329V27.4143Z" fill="url(#paint1_linear_1767_14752)"/>
<defs>
<linearGradient id="paint0_linear_1767_14752" x1="20.0004" y1="10.3999" x2="20.0004" y2="29.5999" gradientUnits="userSpaceOnUse">
<stop stop-color="white"/>
<stop offset="1" stop-color="white" stop-opacity="0.16"/>
</linearGradient>
<linearGradient id="paint1_linear_1767_14752" x1="20.0004" y1="10.3999" x2="20.0004" y2="29.5999" gradientUnits="userSpaceOnUse">
<stop stop-color="white"/>
<stop offset="1" stop-color="white" stop-opacity="0.16"/>
</linearGradient>
</defs>
</svg>
