<svg width="18" height="23" viewBox="0 0 18 23" fill="none" xmlns="http://www.w3.org/2000/svg">
<path d="M17.0756 9.344C17.4166 7.0285 15.6635 5.79375 13.249 4.955L14.03 1.83375L12.1243 1.35938L11.3625 4.40363L9.84037 4.03925L10.6117 0.973L8.70463 0.5L7.92088 3.63225L6.7095 3.34487V3.33387L4.07363 2.6725L3.56488 4.71163C3.56488 4.71163 4.977 5.04438 4.955 5.05538C5.72775 5.25338 5.85975 5.76075 5.83775 6.15675L4.955 9.73038L5.15438 9.79637L4.944 9.75237L3.69825 14.7478C3.61025 14.9801 3.36688 15.3321 2.82788 15.1877C2.84988 15.2207 1.44875 14.8578 1.44875 14.8578L0.5 17.0302L2.98188 17.6476L4.33763 18.001L3.54425 21.1663L5.45138 21.6393L6.22412 18.5084L7.75588 18.9044L6.9735 22.0256L8.88063 22.5L9.66438 19.3347C12.9176 19.9521 15.3651 19.7101 16.3922 16.7649C17.2172 14.3944 16.3469 13.0386 14.6378 12.1339C15.8835 11.8589 16.8213 11.0311 17.0633 9.34262L17.0756 9.344ZM12.7183 15.4531C12.1339 17.825 8.14225 16.5339 6.8525 16.2245L7.90025 12.0239C9.19 12.3539 13.337 12.9836 12.7183 15.4421V15.4531ZM13.304 9.311C12.7733 11.4615 9.443 10.3698 8.37463 10.1058L9.322 6.29975C10.4028 6.56513 13.865 7.0725 13.304 9.311Z" fill="#F7931A"/>
</svg>
