<svg width="32" height="32" viewBox="0 0 32 32" fill="none" xmlns="http://www.w3.org/2000/svg">
<path d="M21.3625 6.77991C19.8391 5.17376 18.1247 3.76031 16.2575 2.57116C16.1797 2.52444 16.0907 2.49976 16 2.49976C15.9093 2.49976 15.8203 2.52444 15.7425 2.57116C13.8753 3.76031 12.1609 5.17376 10.6375 6.77991C7.27625 10.3099 5.5 14.1887 5.5 17.9999C5.5 20.7847 6.60625 23.4554 8.57538 25.4245C10.5445 27.3937 13.2152 28.4999 16 28.4999C18.7848 28.4999 21.4555 27.3937 23.4246 25.4245C25.3938 23.4554 26.5 20.7847 26.5 17.9999C26.5 14.1887 24.7237 10.3099 21.3625 6.77991ZM11.5 22.9999C11.5 18.9862 15.0087 16.2812 16 15.5987C16.9913 16.2824 20.5 18.9862 20.5 22.9999C20.5 24.1934 20.0259 25.338 19.182 26.1819C18.3381 27.0258 17.1935 27.4999 16 27.4999C14.8065 27.4999 13.6619 27.0258 12.818 26.1819C11.9741 25.338 11.5 24.1934 11.5 22.9999ZM20.2425 26.4999C21.057 25.5156 21.5018 24.2775 21.5 22.9999C21.5 17.7774 16.4712 14.6999 16.2575 14.5712C16.1797 14.5244 16.0907 14.4998 16 14.4998C15.9093 14.4998 15.8203 14.5244 15.7425 14.5712C15.5288 14.6999 10.5 17.7774 10.5 22.9999C10.4982 24.2775 10.943 25.5156 11.7575 26.4999C10.1786 25.7107 8.85046 24.4976 7.92191 22.9964C6.99336 21.4952 6.50102 19.7651 6.5 17.9999C6.5 10.1899 14.455 4.60366 16 3.59241C17.545 4.60366 25.5 10.1899 25.5 17.9999C25.499 19.7651 25.0066 21.4952 24.0781 22.9964C23.1495 24.4976 21.8214 25.7107 20.2425 26.4999Z" fill="#FF4231"/>
</svg>
