<svg width="28" height="28" viewBox="0 0 28 28" fill="none" xmlns="http://www.w3.org/2000/svg">
<path d="M18.6922 5.93239C17.3592 4.52701 15.8591 3.29024 14.2253 2.24974C14.1573 2.20885 14.0794 2.18726 14 2.18726C13.9206 2.18726 13.8427 2.20885 13.7747 2.24974C12.1409 3.29024 10.6408 4.52701 9.30781 5.93239C6.36672 9.02114 4.8125 12.415 4.8125 15.7499C4.8125 18.1866 5.78047 20.5234 7.50346 22.2464C9.22645 23.9694 11.5633 24.9374 14 24.9374C16.4367 24.9374 18.7736 23.9694 20.4965 22.2464C22.2195 20.5234 23.1875 18.1866 23.1875 15.7499C23.1875 12.415 21.6333 9.02114 18.6922 5.93239ZM10.0625 20.1249C10.0625 16.6129 13.1327 14.246 14 13.6488C14.8673 14.2471 17.9375 16.6129 17.9375 20.1249C17.9375 21.1692 17.5227 22.1707 16.7842 22.9091C16.0458 23.6475 15.0443 24.0624 14 24.0624C12.9557 24.0624 11.9542 23.6475 11.2158 22.9091C10.4773 22.1707 10.0625 21.1692 10.0625 20.1249ZM17.7122 23.1874C18.4249 22.3261 18.8141 21.2428 18.8125 20.1249C18.8125 15.5552 14.4123 12.8624 14.2253 12.7497C14.1573 12.7089 14.0794 12.6873 14 12.6873C13.9206 12.6873 13.8427 12.7089 13.7747 12.7497C13.5877 12.8624 9.1875 15.5552 9.1875 20.1249C9.18588 21.2428 9.5751 22.3261 10.2878 23.1874C8.90624 22.4968 7.74416 21.4354 6.93168 20.1218C6.11919 18.8082 5.68839 17.2944 5.6875 15.7499C5.6875 8.91614 12.6481 4.02817 14 3.14333C15.3519 4.02817 22.3125 8.91614 22.3125 15.7499C22.3116 17.2944 21.8808 18.8082 21.0683 20.1218C20.2558 21.4354 19.0938 22.4968 17.7122 23.1874Z" fill="white"/>
</svg>
