<svg width="24" height="14" viewBox="0 0 24 14" fill="none" xmlns="http://www.w3.org/2000/svg">
<path d="M21.6741 11.48V1.7795C21.6741 1.51722 21.5004 1.28721 21.2459 1.22265C20.0019 0.895802 16.1568 0 11.2011 0C6.24528 0 2.45677 0.895802 1.22489 1.22265C0.970437 1.29125 0.800781 1.51722 0.800781 1.7795V11.2782C0.800781 11.6374 1.11988 11.9077 1.4753 11.8472C3.0828 11.5728 7.29945 10.9191 11.2051 10.9191C15.1108 10.9191 19.3517 11.706 20.9875 12.0449C21.3469 12.1175 21.6781 11.8431 21.6781 11.48H21.6741ZM1.43897 1.81985C2.35985 1.56563 6.03121 0.641586 11.2011 0.641586C16.3709 0.641586 20.0989 1.56563 21.0319 1.81985V11.3912C19.7313 11.1168 15.4177 10.2815 11.2011 10.2815C6.98441 10.2815 2.71527 10.9716 1.43897 11.1975V1.81985Z" fill="white"/>
<path d="M22.5586 3.825V13.3197C21.258 13.0453 16.9444 12.21 12.7278 12.21C8.51112 12.21 4.09657 12.9243 2.90508 13.1381C2.72737 13.1704 2.61427 13.3399 2.64659 13.5134C2.6789 13.6869 2.84446 13.7999 3.01814 13.7676C4.18943 13.5578 8.48285 12.8516 12.7278 12.8516C16.6779 12.8516 21.0036 13.6627 22.5828 13.9895C22.9019 14.0541 23.2008 13.812 23.2008 13.4851V3.82903C23.2008 3.65149 23.0554 3.51026 22.8817 3.51026C22.704 3.51026 22.5626 3.65552 22.5626 3.82903L22.5586 3.825Z" fill="white"/>
<path d="M11.2334 9.18391V8.31231C12.6187 8.08635 13.6809 6.88791 13.6809 5.43929C13.6809 3.99068 12.6187 2.79224 11.2334 2.56627V1.7552C11.2334 1.57766 11.0879 1.4324 10.9102 1.4324C10.7325 1.4324 10.5871 1.57766 10.5871 1.7552V2.53399C9.06042 2.62276 7.84468 3.8898 7.84468 5.43929C7.84468 6.98879 9.06042 8.25582 10.5871 8.3446V9.18391C10.5871 9.36145 10.7325 9.50672 10.9102 9.50672C11.0879 9.50672 11.2334 9.36145 11.2334 9.18391ZM8.4909 5.43929C8.4909 4.18436 9.51275 3.1675 10.7648 3.1675C12.0169 3.1675 13.0388 4.1884 13.0388 5.43929C13.0388 6.69019 12.0169 7.71108 10.7648 7.71108C9.51275 7.71108 8.4909 6.69019 8.4909 5.43929Z" fill="white"/>
</svg>
