<svg width="28" height="20" viewBox="0 0 28 20" fill="none" xmlns="http://www.w3.org/2000/svg">
<path d="M26 0.5H2C1.60218 0.5 1.22064 0.658035 0.93934 0.93934C0.658035 1.22064 0.5 1.60218 0.5 2V18C0.5 18.3978 0.658035 18.7794 0.93934 19.0607C1.22064 19.342 1.60218 19.5 2 19.5H26C26.3978 19.5 26.7794 19.342 27.0607 19.0607C27.342 18.7794 27.5 18.3978 27.5 18V2C27.5 1.60218 27.342 1.22064 27.0607 0.93934C26.7794 0.658035 26.3978 0.5 26 0.5ZM2 1.5H26C26.1326 1.5 26.2598 1.55268 26.3536 1.64645C26.4473 1.74021 26.5 1.86739 26.5 2V5.5H1.5V2C1.5 1.86739 1.55268 1.74021 1.64645 1.64645C1.74021 1.55268 1.86739 1.5 2 1.5ZM26 18.5H2C1.86739 18.5 1.74021 18.4473 1.64645 18.3536C1.55268 18.2598 1.5 18.1326 1.5 18V6.5H26.5V18C26.5 18.1326 26.4473 18.2598 26.3536 18.3536C26.2598 18.4473 26.1326 18.5 26 18.5ZM23.5 15C23.5 15.1326 23.4473 15.2598 23.3536 15.3536C23.2598 15.4473 23.1326 15.5 23 15.5H19C18.8674 15.5 18.7402 15.4473 18.6464 15.3536C18.5527 15.2598 18.5 15.1326 18.5 15C18.5 14.8674 18.5527 14.7402 18.6464 14.6464C18.7402 14.5527 18.8674 14.5 19 14.5H23C23.1326 14.5 23.2598 14.5527 23.3536 14.6464C23.4473 14.7402 23.5 14.8674 23.5 15ZM15.5 15C15.5 15.1326 15.4473 15.2598 15.3536 15.3536C15.2598 15.4473 15.1326 15.5 15 15.5H13C12.8674 15.5 12.7402 15.4473 12.6464 15.3536C12.5527 15.2598 12.5 15.1326 12.5 15C12.5 14.8674 12.5527 14.7402 12.6464 14.6464C12.7402 14.5527 12.8674 14.5 13 14.5H15C15.1326 14.5 15.2598 14.5527 15.3536 14.6464C15.4473 14.7402 15.5 14.8674 15.5 15Z" fill="white"/>
</svg>
