<svg width="28" height="28" viewBox="0 0 28 28" fill="none" xmlns="http://www.w3.org/2000/svg">
<path d="M26.5156 12.5961L18.3668 9.63233L15.4031 1.48358C15.2983 1.19546 15.1073 0.946573 14.8562 0.7707C14.6051 0.594828 14.3059 0.500488 13.9993 0.500488C13.6927 0.500488 13.3936 0.594828 13.1425 0.7707C12.8913 0.946573 12.7004 1.19546 12.5956 1.48358L9.63184 9.63233L1.48309 12.5961C1.19497 12.7009 0.946085 12.8918 0.770212 13.1429C0.594339 13.3941 0.5 13.6932 0.5 13.9998C0.5 14.3064 0.594339 14.6056 0.770212 14.8567C0.946085 15.1078 1.19497 15.2988 1.48309 15.4036L9.63184 18.3673L12.5956 26.5161C12.7004 26.8042 12.8913 27.0531 13.1425 27.229C13.3936 27.4048 13.6927 27.4992 13.9993 27.4992C14.3059 27.4992 14.6051 27.4048 14.8562 27.229C15.1073 27.0531 15.2983 26.8042 15.4031 26.5161L18.3668 18.3673L26.5156 15.4036C26.8037 15.2988 27.0526 15.1078 27.2285 14.8567C27.4043 14.6056 27.4987 14.3064 27.4987 13.9998C27.4987 13.6932 27.4043 13.3941 27.2285 13.1429C27.0526 12.8918 26.8037 12.7009 26.5156 12.5961ZM26.1743 14.4711L17.7993 17.5136C17.7308 17.5385 17.6685 17.5782 17.6169 17.6298C17.5652 17.6815 17.5256 17.7437 17.5006 17.8123L14.4581 26.1873C14.4212 26.2806 14.3572 26.3606 14.2743 26.417C14.1913 26.4734 14.0934 26.5035 13.9931 26.5035C13.8928 26.5035 13.7948 26.4734 13.7119 26.417C13.629 26.3606 13.5649 26.2806 13.5281 26.1873L10.4856 17.8123C10.4606 17.7437 10.4209 17.6815 10.3693 17.6298C10.3177 17.5782 10.2554 17.5385 10.1868 17.5136L1.82434 14.4648C1.73108 14.428 1.65105 14.3639 1.59466 14.281C1.53827 14.1981 1.50812 14.1001 1.50812 13.9998C1.50812 13.8995 1.53827 13.8016 1.59466 13.7187C1.65105 13.6357 1.73108 13.5717 1.82434 13.5348L10.1931 10.4923C10.2617 10.4674 10.324 10.4277 10.3756 10.3761C10.4272 10.3244 10.4669 10.2622 10.4918 10.1936L13.5343 1.82483C13.5712 1.73157 13.6352 1.65154 13.7182 1.59515C13.8011 1.53876 13.8991 1.50861 13.9993 1.50861C14.0996 1.50861 14.1976 1.53876 14.2805 1.59515C14.3634 1.65154 14.4275 1.73157 14.4643 1.82483L17.5068 10.1936C17.5318 10.2622 17.5715 10.3244 17.6231 10.3761C17.6747 10.4277 17.737 10.4674 17.8056 10.4923L26.1806 13.5348C26.2738 13.5717 26.3539 13.6357 26.4103 13.7187C26.4667 13.8016 26.4968 13.8995 26.4968 13.9998C26.4968 14.1001 26.4667 14.1981 26.4103 14.281C26.3539 14.3639 26.2738 14.428 26.1806 14.4648L26.1743 14.4711Z" fill="#947EAE"/>
</svg>
