<svg xmlns="http://www.w3.org/2000/svg" width="24" height="24" viewBox="0 0 24 24" fill="none">
  <path d="M10.5461 16.2397L7.54964 19.2116C6.82728 19.928 5.77244 20.0493 5.19914 19.4807L3.36457 17.6612C2.79127 17.0926 2.91356 16.0464 3.63591 15.3299L8.15354 10.8493C8.27202 10.7318 8.27202 10.5423 8.15354 10.4248C8.03506 10.3073 7.84396 10.3073 7.72548 10.4248L3.20785 14.9054C2.24853 15.8568 2.12624 17.2859 2.9365 18.0895L4.77108 19.9091C5.13035 20.2654 5.61572 20.4398 6.12786 20.4398C6.76614 20.4398 7.45027 20.1668 7.98152 19.6399L10.978 16.668C11.0965 16.5505 11.0965 16.361 10.978 16.2435C10.8595 16.126 10.6684 16.126 10.5499 16.2435L10.5461 16.2397Z" fill="#FF4231"/>
  <path d="M21.0681 6.16377L19.2335 4.34424C18.4233 3.54062 16.9824 3.66191 16.0231 4.61338L12.717 7.89232C12.5985 8.00983 12.5985 8.19936 12.717 8.31687C12.8355 8.43438 13.0266 8.43438 13.1451 8.31687L16.4511 5.03793C17.1735 4.32149 18.2284 4.20019 18.8017 4.7688L20.6362 6.58832C21.2095 7.15692 21.0872 8.20315 20.3648 8.91959L15.1364 14.1053C15.0179 14.2228 15.0179 14.4123 15.1364 14.5298C15.2549 14.6473 15.446 14.6473 15.5644 14.5298L20.7929 9.34415C21.7522 8.39269 21.8746 6.9636 21.0643 6.15997L21.0681 6.16377Z" fill="#FF4231"/>
  <path d="M3.81563 8.22971H6.14704C6.31521 8.22971 6.45277 8.09324 6.45277 7.92645C6.45277 7.75966 6.31521 7.6232 6.14704 7.6232H3.81563C3.64746 7.6232 3.50985 7.75966 3.50985 7.92645C3.50985 8.09324 3.64746 8.22971 3.81563 8.22971Z" fill="#FF4231"/>
  <path d="M5.91767 5.11758C6.03615 5.23509 6.22725 5.23509 6.34573 5.11758C6.46421 5.00007 6.46421 4.81054 6.34573 4.69303L4.14043 2.5058C4.02195 2.38829 3.83085 2.38829 3.71237 2.5058C3.59388 2.62332 3.59388 2.81285 3.71237 2.93036L5.91767 5.11758Z" fill="#FF4231"/>
  <path d="M9.08222 5.11782C9.25038 5.11782 9.388 4.98136 9.388 4.81457V2.70315C9.388 2.53636 9.25038 2.3999 9.08222 2.3999C8.91405 2.3999 8.77648 2.53636 8.77648 2.70315V4.81457C8.77648 4.98136 8.91405 5.11782 9.08222 5.11782Z" fill="#FF4231"/>
  <path d="M20.0208 15.7658H17.6894C17.5212 15.7658 17.3836 15.9022 17.3836 16.069C17.3836 16.2358 17.5212 16.3723 17.6894 16.3723H20.0208C20.1889 16.3723 20.3266 16.2358 20.3266 16.069C20.3266 15.9022 20.1889 15.7658 20.0208 15.7658Z" fill="#FF4231"/>
  <path d="M17.9187 18.882C17.8002 18.7645 17.6091 18.7645 17.4906 18.882C17.3721 18.9995 17.3721 19.1891 17.4906 19.3066L19.6959 21.4938C19.8144 21.6113 20.0055 21.6113 20.124 21.4938C20.2424 21.3763 20.2424 21.1867 20.124 21.0692L17.9187 18.882Z" fill="#FF4231"/>
  <path d="M14.7541 18.882C14.586 18.882 14.4484 19.0184 14.4484 19.1852V21.2967C14.4484 21.4634 14.586 21.5999 14.7541 21.5999C14.9223 21.5999 15.0599 21.4634 15.0599 21.2967V19.1852C15.0599 19.0184 14.9223 18.882 14.7541 18.882Z" fill="#FF4231"/>
</svg>