<svg xmlns="http://www.w3.org/2000/svg" width="28" height="28" viewBox="0 0 28 28" fill="none">
  <path d="M14.0004 6.74891C12.8402 6.74891 11.9004 5.86133 11.9004 4.77436C11.9004 3.68739 12.8443 2.7998 14.0004 2.7998C15.1564 2.7998 16.1004 3.68739 16.1004 4.77436C16.1004 5.86133 15.1564 6.74891 14.0004 6.74891ZM14.0004 3.41761C13.2061 3.41761 12.5616 4.02364 12.5616 4.77045C12.5616 5.51725 13.2061 6.12328 14.0004 6.12328C14.7947 6.12328 15.4392 5.51725 15.4392 4.77045C15.4392 4.02364 14.7947 3.41761 14.0004 3.41761Z" fill="white"/>
  <path d="M14.0004 25.1998C12.8402 25.1998 11.9004 24.3122 11.9004 23.2253C11.9004 22.1383 12.8443 21.2507 14.0004 21.2507C15.1564 21.2507 16.1004 22.1383 16.1004 23.2253C16.1004 24.3122 15.1564 25.1998 14.0004 25.1998ZM14.0004 21.8685C13.2061 21.8685 12.5616 22.4745 12.5616 23.2213C12.5616 23.9681 13.2061 24.5742 14.0004 24.5742C14.7947 24.5742 15.4392 23.9681 15.4392 23.2213C15.4392 22.4745 14.7947 21.8685 14.0004 21.8685Z" fill="white"/>
  <path d="M14.0004 15.9762C12.8402 15.9762 11.9004 15.0887 11.9004 14.0017C11.9004 12.9147 12.8443 12.0272 14.0004 12.0272C15.1564 12.0272 16.1004 12.9147 16.1004 14.0017C16.1004 15.0887 15.1564 15.9762 14.0004 15.9762ZM14.0004 12.6449C13.2061 12.6449 12.5616 13.251 12.5616 13.9978C12.5616 14.7446 13.2061 15.3507 14.0004 15.3507C14.7947 15.3507 15.4392 14.7446 15.4392 13.9978C15.4392 13.251 14.7947 12.6449 14.0004 12.6449Z" fill="white"/>
</svg>