<svg width="16" height="24" viewBox="0 0 16 24" fill="none" xmlns="http://www.w3.org/2000/svg">
<path d="M8 0.570801V9.01747L15.1427 12.2121L8 0.570801Z" fill="#8FFCF3"/>
<path d="M8.00009 0.570801L0.857422 12.2108L8.00009 9.0188V0.570801Z" fill="#CABCF8"/>
<path d="M8 17.6856V23.4283L15.1427 13.543L8 17.6856Z" fill="#CBA7F5"/>
<path d="M8.00009 23.4283V17.6856L0.857422 13.543L8.00009 23.4283Z" fill="#74A0F3"/>
<path d="M8 16.3549L15.1427 12.2122L8 9.01758V16.3549Z" fill="#CBA7F5"/>
<path d="M0.857422 12.2122L8.00009 16.3549V9.01758L0.857422 12.2122Z" fill="#74A0F3"/>
<path fill-rule="evenodd" clip-rule="evenodd" d="M8.00009 16.3548L0.857422 12.2121L8.00009 0.570801L15.1428 12.2108L8.00009 16.3548ZM1.33076 11.8748L7.88542 1.1948V8.96013L1.33076 11.8748ZM1.23342 12.1655L7.88542 9.2108V16.0228L1.23342 12.1655ZM8.11342 9.2108V16.0228L14.7601 12.1655L8.11342 9.2108ZM8.11342 8.96013L14.6681 11.8748L8.11342 1.1948V8.96013Z" fill="#202699"/>
<path fill-rule="evenodd" clip-rule="evenodd" d="M8.00009 17.5948L0.857422 13.5375L8.00009 23.4268L15.1428 13.5361L8.00009 17.5948ZM1.65742 14.2508L7.88542 17.7948V22.8801L1.65742 14.2508ZM8.11342 17.7948V22.8801L14.3428 14.2508L8.11342 17.7948Z" fill="#202699"/>
</svg>
