<svg width="20" height="24" viewBox="0 0 20 24" fill="none" xmlns="http://www.w3.org/2000/svg">
<path d="M19.375 20.3752C19.4188 20.4241 19.4526 20.4812 19.4744 20.5432C19.4962 20.6051 19.5056 20.6708 19.502 20.7364C19.4984 20.802 19.4819 20.8662 19.4534 20.9254C19.425 20.9846 19.3852 21.0376 19.3363 21.0815C18.0011 22.2764 16.3552 23.0694 14.5886 23.3689C12.822 23.6684 11.0067 23.4622 9.35227 22.774C7.69786 22.0859 6.2718 20.9439 5.2387 19.4799C4.20561 18.0159 3.60761 16.2896 3.51375 14.5002H1C0.867392 14.5002 0.740215 14.4475 0.646447 14.3538C0.552679 14.26 0.5 14.1328 0.5 14.0002C0.5 13.8676 0.552679 13.7404 0.646447 13.6467C0.740215 13.5529 0.867392 13.5002 1 13.5002H3.5V10.5002H1C0.867392 10.5002 0.740215 10.4475 0.646447 10.3538C0.552679 10.26 0.5 10.1328 0.5 10.0002C0.5 9.86761 0.552679 9.74043 0.646447 9.64666C0.740215 9.55289 0.867392 9.50021 1 9.50021H3.51375C3.60799 7.71133 4.2061 5.98555 5.23905 4.522C6.27201 3.05845 7.69772 1.91678 9.35167 1.22872C11.0056 0.540667 12.8204 0.334265 14.5866 0.633335C16.3528 0.932404 17.9985 1.72476 19.3337 2.91896C19.383 2.96279 19.4231 3.01589 19.4519 3.07523C19.4806 3.13457 19.4973 3.19898 19.5012 3.2648C19.505 3.33061 19.4958 3.39653 19.4742 3.4588C19.4525 3.52107 19.4188 3.57847 19.375 3.62771C19.3312 3.67696 19.2781 3.71709 19.2187 3.74581C19.1594 3.77454 19.095 3.7913 19.0292 3.79513C18.9634 3.79896 18.8974 3.78979 18.8352 3.76814C18.7729 3.74649 18.7155 3.71279 18.6663 3.66896C17.4752 2.60417 16.0081 1.89661 14.4333 1.62744C12.8585 1.35826 11.2397 1.53837 9.76255 2.1471C8.28541 2.75583 7.00974 3.76854 6.08182 5.0691C5.1539 6.36965 4.6113 7.9054 4.51625 9.50021H13C13.1326 9.50021 13.2598 9.55289 13.3536 9.64666C13.4473 9.74043 13.5 9.86761 13.5 10.0002C13.5 10.1328 13.4473 10.26 13.3536 10.3538C13.2598 10.4475 13.1326 10.5002 13 10.5002H4.5V13.5002H11C11.1326 13.5002 11.2598 13.5529 11.3536 13.6467C11.4473 13.7404 11.5 13.8676 11.5 14.0002C11.5 14.1328 11.4473 14.26 11.3536 14.3538C11.2598 14.4475 11.1326 14.5002 11 14.5002H4.51625C4.61043 16.0955 5.1524 17.6318 6.07998 18.9331C7.00755 20.2344 8.28316 21.2478 9.76046 21.8571C11.2378 22.4664 12.8569 22.6469 14.4321 22.378C16.0073 22.109 17.4748 21.4015 18.6663 20.3365C18.7152 20.2922 18.7725 20.2581 18.8347 20.2361C18.8969 20.2141 18.9628 20.2047 19.0287 20.2083C19.0946 20.2119 19.1591 20.2285 19.2185 20.2571C19.278 20.2858 19.3311 20.3259 19.375 20.3752Z" fill="white"/>
</svg>
