<svg width="26" height="26" viewBox="0 0 26 26" fill="none" xmlns="http://www.w3.org/2000/svg">
<path d="M12.9992 25.8002C5.94149 25.8002 0.199219 20.0579 0.199219 13.0002C0.199219 5.94251 5.94149 0.200195 12.9992 0.200195C20.0569 0.200195 25.7992 5.94251 25.7992 13.0002C25.7992 20.0579 20.0569 25.8002 12.9992 25.8002ZM12.9992 0.895077C6.32606 0.895077 0.894049 6.3227 0.894049 13.0002C0.894049 19.6777 6.32169 25.1053 12.9992 25.1053C19.6767 25.1053 25.1044 19.6777 25.1044 13.0002C25.1044 6.3227 19.6767 0.895077 12.9992 0.895077Z" fill="#947EAE"/>
<path d="M12.9557 25.669C12.7896 25.669 12.641 25.551 12.6148 25.3806C12.5842 25.1927 12.711 25.0135 12.8989 24.9786C17.824 24.1352 21.5429 18.9827 21.5429 12.9957C21.5429 7.00871 18.0381 2.08798 13.2135 1.07412C13.0256 1.03479 12.9076 0.851274 12.9469 0.66336C12.9863 0.475446 13.1698 0.353144 13.3577 0.396845C18.5057 1.48063 22.2378 6.7771 22.2378 13.0001C22.2378 19.2231 18.2741 24.7644 13.0169 25.6646C12.995 25.6646 12.9775 25.669 12.9557 25.669Z" fill="#947EAE"/>
<path d="M13.0038 25.6694C13.0038 25.6694 12.9644 25.6694 12.9426 25.665C7.70722 24.7648 3.76102 19.3196 3.76102 13.0005C3.76102 6.68135 7.48001 1.48102 12.6018 0.397237C12.7897 0.357906 12.9732 0.475839 13.0125 0.663753C13.0519 0.851666 12.9339 1.03518 12.746 1.07452C7.94322 2.08837 4.4559 7.10525 4.4559 12.9961C4.4559 18.887 8.15298 24.1355 13.0606 24.979C13.2485 25.0096 13.3752 25.1931 13.3447 25.381C13.3141 25.5514 13.1698 25.6694 13.0038 25.6694Z" fill="#947EAE"/>
<path d="M12.9992 8.36359C9.58183 8.36359 6.36546 7.03068 3.94879 4.61403L4.43824 4.12452C6.7238 6.41008 9.76537 7.66871 12.9949 7.66871C16.2244 7.66871 19.3403 6.37951 21.6346 4.04152L22.1328 4.52664C19.7074 7.00011 16.4604 8.36359 12.9949 8.36359H12.9992Z" fill="#947EAE"/>
<path d="M4.35966 21.9632L3.86152 21.4782C6.28692 19.0048 9.53387 17.6413 12.9994 17.6413C16.4648 17.6413 19.6332 18.9741 22.0499 21.3907L21.5604 21.8802C19.2748 19.5947 16.2332 18.3361 13.0037 18.3361C9.77423 18.3361 6.65396 19.6253 4.35966 21.9676V21.9632Z" fill="#947EAE"/>
<path d="M25.4497 12.6507H0.548954V13.3456H25.4497V12.6507Z" fill="#947EAE"/>
<path d="M12.9992 25.8002C12.8069 25.8002 12.6497 25.6428 12.6497 25.4506V0.549824C12.6497 0.35754 12.8069 0.200195 12.9992 0.200195C13.1915 0.200195 13.3489 0.35754 13.3489 0.549824V25.4506C13.3489 25.6428 13.1915 25.8002 12.9992 25.8002Z" fill="#947EAE"/>
</svg>
