<svg width="120" height="120" viewBox="0 0 120 120" fill="none" xmlns="http://www.w3.org/2000/svg">
<path d="M114.215 59.2406C114.056 58.8844 110.222 50.3859 101.639 41.8031C93.6889 33.8531 80.0155 24.375 59.9998 24.375C39.9842 24.375 26.3108 33.8531 18.3608 41.8031C9.77796 50.3859 5.94359 58.8844 5.78421 59.2406C5.67984 59.481 5.62598 59.7403 5.62598 60.0023C5.62598 60.2644 5.67984 60.5237 5.78421 60.7641C5.94359 61.125 9.77796 69.6188 18.3608 78.2016C26.3295 86.1703 39.9889 95.625 59.9998 95.625C80.0108 95.625 93.6889 86.1516 101.639 78.2016C110.222 69.6188 114.056 61.125 114.215 60.7641C114.32 60.5237 114.374 60.2644 114.374 60.0023C114.374 59.7403 114.32 59.481 114.215 59.2406ZM98.8873 75.6469C88.0733 86.4281 74.9811 91.875 59.9811 91.875C44.9811 91.875 31.9076 86.4141 21.0748 75.6469C16.4655 71.0501 12.5891 65.773 9.58109 60C12.5949 54.2257 16.4776 48.9486 21.0936 44.3531C31.9264 33.5859 44.9998 28.125 59.9998 28.125C74.9998 28.125 88.0733 33.5859 98.9061 44.3531C103.521 48.949 107.404 54.2261 110.419 60C107.405 65.7743 103.522 71.0514 98.9061 75.6469H98.8873ZM59.9998 39.375C55.9206 39.375 51.933 40.5846 48.5412 42.8509C45.1494 45.1172 42.5059 48.3384 40.9448 52.1072C39.3838 55.8759 38.9753 60.0229 39.7711 64.0237C40.567 68.0246 42.5313 71.6996 45.4158 74.5841C48.3002 77.4685 51.9752 79.4329 55.9761 80.2287C59.977 81.0245 64.124 80.6161 67.8927 79.055C71.6614 77.494 74.8826 74.8504 77.1489 71.4586C79.4152 68.0669 80.6248 64.0792 80.6248 60C80.6186 54.5318 78.4437 49.2894 74.5771 45.4228C70.7105 41.5562 65.468 39.3812 59.9998 39.375ZM59.9998 76.875C56.6623 76.875 53.3997 75.8853 50.6246 74.0311C47.8495 72.1768 45.6866 69.5413 44.4094 66.4578C43.1321 63.3743 42.798 59.9813 43.4491 56.7078C44.1002 53.4344 45.7074 50.4276 48.0674 48.0676C50.4274 45.7076 53.4343 44.1004 56.7077 43.4492C59.9811 42.7981 63.3741 43.1323 66.4576 44.4095C69.5411 45.6868 72.1766 47.8497 74.0309 50.6248C75.8851 53.3998 76.8748 56.6624 76.8748 60C76.8748 64.4755 75.0969 68.7677 71.9323 71.9324C68.7676 75.0971 64.4754 76.875 59.9998 76.875Z" fill="white"/>
</svg>
