<svg width="32" height="32" viewBox="0 0 32 32" fill="none" xmlns="http://www.w3.org/2000/svg">
<path d="M30.4577 15.7975C30.4152 15.7025 29.3927 13.4362 27.1039 11.1475C24.9839 9.0275 21.3377 6.5 16.0002 6.5C10.6627 6.5 7.01643 9.0275 4.89643 11.1475C2.60768 13.4362 1.58518 15.7025 1.54268 15.7975C1.51485 15.8616 1.50049 15.9307 1.50049 16.0006C1.50049 16.0705 1.51485 16.1396 1.54268 16.2038C1.58518 16.3 2.60768 18.565 4.89643 20.8538C7.02143 22.9788 10.6639 25.5 16.0002 25.5C21.3364 25.5 24.9839 22.9738 27.1039 20.8538C29.3927 18.565 30.4152 16.3 30.4577 16.2038C30.4855 16.1396 30.4999 16.0705 30.4999 16.0006C30.4999 15.9307 30.4855 15.8616 30.4577 15.7975ZM26.3702 20.1725C23.4864 23.0475 19.9952 24.5 15.9952 24.5C11.9952 24.5 8.50893 23.0438 5.62018 20.1725C4.39103 18.9467 3.35733 17.5395 2.55518 16C3.35886 14.4602 4.39426 13.0529 5.62518 11.8275C8.51393 8.95625 12.0002 7.5 16.0002 7.5C20.0002 7.5 23.4864 8.95625 26.3752 11.8275C27.606 13.0531 28.6413 14.4603 29.4452 16C28.6415 17.5398 27.6061 18.9471 26.3752 20.1725H26.3702ZM16.0002 10.5C14.9124 10.5 13.849 10.8226 12.9445 11.4269C12.0401 12.0313 11.3351 12.8902 10.9188 13.8952C10.5026 14.9002 10.3936 16.0061 10.6059 17.073C10.8181 18.1399 11.3419 19.1199 12.1111 19.8891C12.8803 20.6583 13.8603 21.1821 14.9272 21.3943C15.9941 21.6065 17.1 21.4976 18.1049 21.0813C19.1099 20.6651 19.9689 19.9601 20.5733 19.0556C21.1776 18.1512 21.5002 17.0878 21.5002 16C21.4985 14.5418 20.9185 13.1438 19.8874 12.1127C18.8564 11.0816 17.4584 10.5017 16.0002 10.5ZM16.0002 20.5C15.1102 20.5 14.2401 20.2361 13.5001 19.7416C12.7601 19.2471 12.1833 18.5443 11.8427 17.7221C11.5021 16.8998 11.413 15.995 11.5867 15.1221C11.7603 14.2492 12.1889 13.4474 12.8182 12.818C13.4475 12.1887 14.2494 11.7601 15.1223 11.5865C15.9952 11.4128 16.9 11.5019 17.7223 11.8425C18.5445 12.1831 19.2473 12.7599 19.7418 13.4999C20.2363 14.24 20.5002 15.11 20.5002 16C20.5002 17.1935 20.0261 18.3381 19.1822 19.182C18.3383 20.0259 17.1937 20.5 16.0002 20.5Z" fill="white"/>
</svg>
