<svg xmlns="http://www.w3.org/2000/svg" width="16" height="16" viewBox="0 0 16 16" fill="none">
  <path d="M10.1769 6.17688L8.35375 8L10.1769 9.82312C10.2238 9.87004 10.2501 9.93366 10.2501 10C10.2501 10.0663 10.2238 10.13 10.1769 10.1769C10.13 10.2238 10.0663 10.2501 10 10.2501C9.93366 10.2501 9.87004 10.2238 9.82313 10.1769L8 8.35375L6.17688 10.1769C6.12997 10.2238 6.06634 10.2501 6 10.2501C5.93366 10.2501 5.87004 10.2238 5.82313 10.1769C5.77622 10.13 5.74986 10.0663 5.74986 10C5.74986 9.93366 5.77622 9.87004 5.82313 9.82312L7.64625 8L5.82313 6.17688C5.77622 6.12996 5.74986 6.06634 5.74986 6C5.74986 5.93366 5.77622 5.87004 5.82313 5.82312C5.87004 5.77621 5.93366 5.74986 6 5.74986C6.06634 5.74986 6.12997 5.77621 6.17688 5.82312L8 7.64625L9.82313 5.82312C9.84636 5.7999 9.87393 5.78147 9.90428 5.7689C9.93463 5.75633 9.96715 5.74986 10 5.74986C10.0329 5.74986 10.0654 5.75633 10.0957 5.7689C10.1261 5.78147 10.1537 5.7999 10.1769 5.82312C10.2001 5.84635 10.2185 5.87393 10.2311 5.90428C10.2437 5.93462 10.2501 5.96715 10.2501 6C10.2501 6.03285 10.2437 6.06538 10.2311 6.09572C10.2185 6.12607 10.2001 6.15365 10.1769 6.17688ZM14.25 8C14.25 9.23613 13.8834 10.4445 13.1967 11.4723C12.5099 12.5001 11.5338 13.3012 10.3918 13.7742C9.24974 14.2473 7.99307 14.3711 6.78069 14.1299C5.56831 13.8888 4.45466 13.2935 3.58059 12.4194C2.70651 11.5453 2.11125 10.4317 1.87009 9.21931C1.62894 8.00693 1.75271 6.75027 2.22576 5.60823C2.6988 4.46619 3.49988 3.49007 4.52769 2.80331C5.5555 2.11656 6.76387 1.75 8 1.75C9.65705 1.75182 11.2457 2.41088 12.4174 3.58259C13.5891 4.7543 14.2482 6.34296 14.25 8ZM13.75 8C13.75 6.86276 13.4128 5.75105 12.781 4.80547C12.1491 3.85989 11.2511 3.1229 10.2004 2.68769C9.14976 2.25249 7.99362 2.13862 6.87823 2.36048C5.76284 2.58235 4.73829 3.12998 3.93414 3.93414C3.12999 4.73829 2.58235 5.76284 2.36049 6.87823C2.13862 7.99362 2.25249 9.14975 2.6877 10.2004C3.1229 11.2511 3.85989 12.1491 4.80547 12.781C5.75106 13.4128 6.86276 13.75 8 13.75C9.52449 13.7483 10.9861 13.142 12.064 12.064C13.142 10.9861 13.7483 9.52449 13.75 8Z" fill="#FF4231"/>
</svg>