<svg xmlns="http://www.w3.org/2000/svg" width="40" height="40" viewBox="0 0 30 30" fill="none">
  <path d="M15.9992 28.7999C8.94152 28.7999 3.19922 23.0576 3.19922 16C3.19922 8.94226 8.94152 3.19995 15.9992 3.19995C23.0569 3.19995 28.7992 8.94226 28.7992 16C28.7992 23.0576 23.0569 28.7999 15.9992 28.7999ZM15.9992 3.89921C9.32609 3.89921 3.89406 9.32683 3.89406 16.0043C3.89406 22.6818 9.32172 28.1094 15.9992 28.1094C22.6767 28.1094 28.1044 22.6818 28.1044 16.0043C28.1044 9.32683 22.6767 3.89921 15.9992 3.89921Z" fill="white"/>
  <path d="M15.9991 23.7655C15.8068 23.7655 15.6495 23.6082 15.6495 23.4159V8.76296C15.6495 8.57067 15.8068 8.41333 15.9991 8.41333C16.1914 8.41333 16.3487 8.57067 16.3487 8.76296V23.4159C16.3487 23.6082 16.1914 23.7655 15.9991 23.7655Z" fill="white"/>
  <path d="M23.3234 16.4367H8.67045C8.47817 16.4367 8.32085 16.2794 8.32085 16.0871C8.32085 15.8948 8.47817 15.7375 8.67045 15.7375H23.3234C23.5157 15.7375 23.6686 15.8948 23.6686 16.0871C23.6686 16.2794 23.5113 16.4367 23.3234 16.4367Z" fill="white"/>
</svg>