<svg width="26" height="24" viewBox="0 0 26 24" fill="none" xmlns="http://www.w3.org/2000/svg">
<path d="M25.4535 12.7485C25.3684 12.7485 25.279 12.7155 25.2152 12.6535L12.995 0.791045L0.774701 12.6535C0.642797 12.7815 0.430051 12.7815 0.298147 12.6535C0.166243 12.5255 0.166243 12.3189 0.298147 12.1908L12.761 0.0929337C12.8886 -0.0309779 13.1141 -0.0309779 13.2375 0.0929337L25.7003 12.1908C25.8322 12.3189 25.8322 12.5255 25.7003 12.6535C25.6322 12.7196 25.5471 12.7485 25.462 12.7485H25.4535Z" fill="white"/>
<path d="M16.0926 24C15.9053 24 15.7522 23.8513 15.7522 23.6695V15.2972H10.225V23.6695C10.225 23.8513 10.0718 24 9.88459 24H3.87232C3.6851 24 3.53193 23.8513 3.53193 23.6695V9.4528C3.53193 9.27106 3.6851 9.12234 3.87232 9.12234C4.05954 9.12234 4.21271 9.27106 4.21271 9.4528V23.3432H9.54845V14.9709C9.54845 14.7892 9.70163 14.6405 9.88885 14.6405H16.0926C16.2798 14.6405 16.433 14.7892 16.433 14.9709V23.3432H21.7687V9.4528C21.7687 9.27106 21.9219 9.12234 22.1091 9.12234C22.2963 9.12234 22.4495 9.27106 22.4495 9.4528V23.6695C22.4495 23.8513 22.2963 24 22.1091 24H16.0926Z" fill="white"/>
</svg>
