<svg width="20" height="20" viewBox="0 0 20 20" fill="none" xmlns="http://www.w3.org/2000/svg">
<path d="M11.125 14.5C11.125 14.5995 11.0855 14.6948 11.0152 14.7652C10.9448 14.8355 10.8495 14.875 10.75 14.875C10.4516 14.875 10.1655 14.7565 9.95451 14.5455C9.74353 14.3345 9.625 14.0484 9.625 13.75V10C9.625 9.90054 9.5855 9.80516 9.51517 9.73483C9.44484 9.66451 9.34946 9.625 9.25 9.625C9.15055 9.625 9.05517 9.58549 8.98484 9.51517C8.91451 9.44484 8.875 9.34946 8.875 9.25C8.875 9.15054 8.91451 9.05516 8.98484 8.98483C9.05517 8.91451 9.15055 8.875 9.25 8.875C9.54837 8.875 9.83452 8.99353 10.0455 9.2045C10.2565 9.41548 10.375 9.70163 10.375 10V13.75C10.375 13.8495 10.4145 13.9448 10.4848 14.0152C10.5552 14.0855 10.6505 14.125 10.75 14.125C10.8495 14.125 10.9448 14.1645 11.0152 14.2348C11.0855 14.3052 11.125 14.4005 11.125 14.5ZM9.625 6.625C9.77334 6.625 9.91835 6.58101 10.0417 6.4986C10.165 6.41619 10.2611 6.29906 10.3179 6.16201C10.3747 6.02497 10.3895 5.87417 10.3606 5.72868C10.3317 5.5832 10.2602 5.44956 10.1553 5.34467C10.0504 5.23978 9.91681 5.16835 9.77132 5.13941C9.62584 5.11047 9.47504 5.12532 9.33799 5.18209C9.20095 5.23886 9.08381 5.33499 9.0014 5.45832C8.91899 5.58166 8.875 5.72666 8.875 5.875C8.875 6.07391 8.95402 6.26468 9.09467 6.40533C9.23533 6.54598 9.42609 6.625 9.625 6.625ZM19.375 10C19.375 11.8542 18.8252 13.6668 17.795 15.2085C16.7649 16.7502 15.3007 17.9518 13.5877 18.6614C11.8746 19.3709 9.9896 19.5566 8.17103 19.1949C6.35246 18.8331 4.682 17.9402 3.37088 16.6291C2.05976 15.318 1.16688 13.6475 0.805142 11.829C0.443406 10.0104 0.629062 8.1254 1.33863 6.41234C2.04821 4.69929 3.24982 3.23511 4.79153 2.20497C6.33324 1.17483 8.1458 0.625 10 0.625C12.4856 0.62773 14.8686 1.61633 16.6261 3.37389C18.3837 5.13145 19.3723 7.51443 19.375 10ZM18.625 10C18.625 8.29414 18.1192 6.62658 17.1714 5.20821C16.2237 3.78983 14.8767 2.68434 13.3006 2.03154C11.7246 1.37873 9.99044 1.20793 8.31735 1.54073C6.64426 1.87352 5.10744 2.69498 3.90121 3.9012C2.69498 5.10743 1.87353 6.64426 1.54073 8.31735C1.20793 9.99043 1.37874 11.7246 2.03154 13.3006C2.68435 14.8767 3.78984 16.2237 5.20821 17.1714C6.62658 18.1192 8.29414 18.625 10 18.625C12.2867 18.6225 14.4791 17.713 16.0961 16.0961C17.713 14.4791 18.6225 12.2867 18.625 10Z" fill="white"/>
</svg>
