<svg width="181" height="180" viewBox="0 0 181 180" fill="none" xmlns="http://www.w3.org/2000/svg">
<path fill-rule="evenodd" clip-rule="evenodd" d="M126.166 0.0214083C129.338 0.0606835 131.883 0.198147 133.116 0.394523C134.193 0.551623 135.955 0.885463 137.032 1.10148C138.109 1.33713 140.008 1.82807 141.241 2.20118C142.474 2.55466 144.374 3.2027 145.45 3.63473C146.527 4.04712 148.074 4.71479 148.876 5.08791C149.679 5.46102 151.187 6.22689 152.205 6.79638C153.223 7.38551 154.946 8.44594 156.022 9.15289C157.099 9.87948 158.685 11.0381 159.547 11.7058C160.408 12.3931 161.857 13.6303 162.757 14.4354C163.658 15.2602 165.205 16.8116 166.164 17.8916C167.143 18.9717 168.729 20.9354 169.708 22.2512C170.686 23.5473 172.135 25.727 172.899 27.0624C173.682 28.3781 174.857 30.6757 175.522 32.1289C176.188 33.5821 177.147 36.0564 177.676 37.6274C178.185 39.1984 178.831 41.496 179.105 42.7332C179.379 43.9704 179.732 45.8752 179.908 46.9553C180.064 48.0353 180.299 50.3329 180.397 52.061C180.534 54.2015 180.534 56.2046 180.397 58.3451C180.299 60.0732 180.064 62.3708 179.908 63.4508C179.732 64.5309 179.379 66.4358 179.105 67.6729C178.831 68.9101 178.185 71.2077 177.656 72.7787C177.147 74.3497 176.227 76.7259 175.62 78.0809C175.013 79.4359 174.034 81.38 173.467 82.4011C172.879 83.4223 171.9 85.0129 171.293 85.9359C170.667 86.8589 169.453 88.5281 168.572 89.6474C167.711 90.7864 165.89 92.8091 164.539 94.1837C163.188 95.5387 161.172 97.3846 160.036 98.3076C158.9 99.2109 157.001 100.586 155.827 101.371C154.652 102.137 152.89 103.217 151.911 103.767C150.932 104.297 149.053 105.22 147.702 105.809C146.351 106.418 144.021 107.302 142.514 107.793C141.006 108.283 138.755 108.912 137.521 109.187C136.288 109.462 134.35 109.815 133.214 109.992C132.078 110.169 129.298 110.365 127.047 110.424C124.463 110.503 121.996 110.444 120.39 110.306C119 110.169 116.69 109.854 115.3 109.599C113.91 109.324 111.6 108.814 107.665 107.734L102.574 112.82C98.8936 116.512 97.249 118.043 96.603 118.318C95.7611 118.711 95.3304 118.731 80.3531 118.731L80.314 126.645C80.2552 134.303 80.2357 134.559 79.8245 135.324C79.6092 135.756 79.1589 136.346 78.8456 136.64C78.5519 136.935 77.9646 137.308 77.573 137.465C76.9465 137.74 75.6935 137.779 62.5371 137.779L62.4392 152.213L61.891 153.155C61.519 153.803 61.0687 154.255 59.3067 155.257H42.3716V165.723C42.3716 172.754 42.2933 176.426 42.1563 176.956C42.0192 177.447 41.5885 178.095 41.0207 178.645C40.4725 179.214 39.8265 179.647 39.337 179.784C38.7888 179.941 33.3461 180 21.4231 180C9.61746 180 4.05728 179.921 3.50909 179.784C3.01964 179.647 2.39314 179.234 1.84496 178.665C1.25761 178.056 0.866051 177.427 0.709426 176.858C0.513645 176.171 0.474489 172.145 0.513645 158.988C0.572379 142.905 0.591957 141.962 0.924785 141.314C1.14014 140.941 17.1942 124.681 71.9737 69.7349L71.3864 66.6911C71.0535 65.0219 70.662 62.7243 70.5249 61.5853C70.3683 60.3874 70.2704 57.5988 70.29 54.9085C70.29 51.6094 70.3879 49.626 70.6424 47.9371C70.8186 46.6411 71.2102 44.5202 71.4843 43.2241C71.7583 41.928 72.3653 39.6304 72.8547 38.1184C73.3442 36.6063 74.2252 34.2694 74.8125 32.9144C75.3999 31.5594 76.3592 29.576 76.9661 28.4959C77.5535 27.4159 78.6303 25.6485 79.3546 24.5684C80.0595 23.4883 81.332 21.721 82.1935 20.6409C83.0353 19.5608 84.9344 17.4792 86.4028 16.026C87.8711 14.5532 89.8094 12.7662 90.7295 12.02C91.6497 11.2934 93.5879 9.89912 95.0367 8.91724C96.4855 7.955 99.0894 6.46254 100.812 5.61812C102.535 4.77371 105.1 3.65436 106.49 3.16342C107.88 2.65285 110.229 1.94589 111.678 1.57278C113.127 1.19966 115.555 0.728362 117.062 0.512348C118.57 0.296335 120.116 0.0803211 120.488 0.0410459C120.86 0.00177072 123.425 -0.0178669 126.166 0.0214083ZM118.335 9.46709C117.199 9.64383 115.085 10.0759 113.636 10.449C112.187 10.8221 109.975 11.529 108.741 12.02C107.508 12.5109 105.472 13.4339 104.238 14.0623C103.005 14.6907 101.067 15.8297 99.9312 16.5955C98.7957 17.3418 97.2686 18.4611 96.5051 19.0699C95.7415 19.659 94.2536 21.014 93.1964 22.0744C92.1196 23.1152 90.5729 24.7844 89.7702 25.7467C88.9675 26.7089 87.6166 28.5745 86.7552 29.8706C85.8937 31.1666 84.6407 33.3661 83.9751 34.78C83.2898 36.1939 82.4088 38.2165 82.0173 39.2966C81.6061 40.3767 80.9992 42.3993 80.6468 43.8133C80.2944 45.2272 79.8441 47.4266 79.6483 48.7226C79.3938 50.4311 79.2959 52.2181 79.2959 55.2031C79.2959 58.188 79.3938 59.975 79.6483 61.6835C79.8441 62.9795 80.2944 65.1986 80.6468 66.5929C80.9992 67.9871 81.6257 70.0294 82.0173 71.1095C82.4088 72.1896 83.2898 74.2319 83.9751 75.6262C84.6603 77.0204 85.9133 79.2395 86.7552 80.5356C87.6166 81.8316 88.9675 83.6972 89.7898 84.6594C90.5925 85.6217 92.2566 87.4087 93.49 88.587C94.7235 89.7849 96.5638 91.3755 97.5819 92.1414C98.5999 92.9269 100.244 94.0266 101.204 94.6157C102.183 95.2245 103.69 96.0689 104.591 96.5206C105.472 96.9526 107.195 97.7185 108.409 98.1898C109.603 98.6611 111.345 99.2698 112.265 99.5644C113.186 99.8393 114.497 100.193 115.202 100.35C115.907 100.507 117.454 100.802 118.628 100.998C120.292 101.273 121.839 101.351 125.383 101.351C128.926 101.351 130.473 101.273 132.137 100.998C133.312 100.802 134.996 100.468 135.857 100.271C136.718 100.075 138.304 99.6233 139.381 99.2698C140.458 98.936 142.259 98.2487 143.395 97.7774C144.53 97.3061 146.194 96.5206 147.114 96.01C148.035 95.519 149.62 94.5764 150.639 93.9088C151.657 93.2215 153.203 92.1217 154.065 91.4344C154.926 90.7471 156.414 89.4118 157.373 88.4888C158.333 87.5658 159.801 85.9752 160.663 84.954C161.524 83.9329 162.934 82.028 163.795 80.7319C164.656 79.4359 166.027 77.0401 166.81 75.4298C167.593 73.8195 168.631 71.2862 169.12 69.8331C169.61 68.3799 170.217 66.0823 170.491 64.7273C170.765 63.3723 171.078 61.4674 171.215 60.5052C171.333 59.543 171.43 57.1472 171.43 55.2031C171.43 53.2589 171.333 50.8631 171.215 49.9009C171.078 48.9387 170.765 47.0338 170.491 45.6788C170.217 44.3238 169.61 42.0262 169.12 40.573C168.631 39.1199 167.593 36.5866 166.81 34.9763C166.007 33.3661 164.754 31.1077 164.01 29.9687C163.266 28.8298 161.935 27.0231 161.074 25.943C160.212 24.863 158.626 23.1349 157.569 22.1137C156.492 21.0729 154.926 19.659 154.065 18.9717C153.203 18.2844 151.578 17.1258 150.443 16.3795C149.307 15.6333 147.154 14.4158 145.646 13.6695C144.139 12.9233 141.593 11.8629 139.968 11.3327C138.363 10.7828 135.935 10.1348 134.584 9.85985C133.234 9.58492 131.276 9.27072 130.238 9.17253C129.181 9.0547 126.851 8.97615 125.05 8.99579C123.229 8.99579 121.448 9.0547 121.076 9.09398C120.704 9.13325 119.47 9.29035 118.335 9.46709ZM9.38252 145.34L9.48041 170.967H33.3657V149.856C34.2467 148.089 34.7362 147.5 35.2256 147.146C35.6563 146.852 36.3611 146.518 36.7919 146.42C37.2226 146.322 41.1578 146.223 45.5433 146.223H53.5311C53.5311 135.58 53.6094 132.281 53.7269 131.888C53.8248 131.515 54.1968 130.847 54.5492 130.435C54.9016 130.022 55.5477 129.492 55.9784 129.256C56.7224 128.864 57.0748 128.844 64.0446 128.805L71.3472 128.746L71.3668 112.938C72.1891 111.465 72.7373 110.836 73.1092 110.561C73.4812 110.306 74.1077 110.012 74.4797 109.894C74.8908 109.776 78.5715 109.697 83.9751 109.697H92.7852L98.737 103.708C95.9373 102.078 94.2927 101.018 93.2747 100.271C92.2566 99.5448 90.5729 98.229 89.5548 97.365C88.5368 96.5206 86.8139 94.8906 85.7371 93.7713C84.6603 92.652 83.2507 91.0613 82.585 90.2562C81.9389 89.451 80.9601 88.1746 80.4119 87.4087C79.8637 86.6625 78.9435 85.2486 78.3562 84.2667C77.7688 83.3045 76.8682 81.7334 76.3592 80.8105L75.4586 79.1217L9.38252 145.34ZM125.97 36.9205C127.615 36.9794 128.926 37.1365 129.984 37.4114C130.845 37.647 132.294 38.1969 133.214 38.6289C134.115 39.061 135.407 39.7875 136.053 40.2588C136.699 40.7301 137.834 41.7513 138.598 42.5564C139.342 43.3419 140.38 44.6577 140.889 45.4824C141.398 46.2876 142.122 47.78 142.474 48.8208C142.846 49.842 143.258 51.3344 143.395 52.1592C143.532 53.0626 143.59 54.5747 143.532 56.0868C143.453 57.9523 143.297 58.9538 142.905 60.3088C142.611 61.2711 142.063 62.685 141.691 63.4508C141.319 64.1971 140.634 65.3557 140.164 66.0037C139.714 66.6518 138.696 67.7711 137.932 68.4977C137.169 69.2243 136.033 70.1473 135.407 70.54C134.8 70.9524 133.664 71.5612 132.92 71.9146C132.157 72.2681 130.747 72.7591 129.788 72.9947C128.359 73.3678 127.497 73.4464 125.285 73.4268C123.347 73.4268 122.133 73.3286 121.173 73.0929C120.41 72.8965 119.137 72.4841 118.335 72.1503C117.512 71.8361 116.161 71.0899 115.3 70.54C114.439 69.9705 113.244 69.0279 112.637 68.4388C112.031 67.8497 111.13 66.7892 110.601 66.1019C110.092 65.395 109.387 64.2364 109.035 63.549C108.683 62.8421 108.174 61.5656 107.9 60.7016C107.625 59.8375 107.293 58.2469 107.175 57.1668C107.019 55.7529 107.019 54.6728 107.175 53.3375C107.273 52.2967 107.508 50.9417 107.684 50.2937C107.86 49.6456 108.33 48.4085 108.722 47.5444C109.113 46.6803 109.74 45.5217 110.112 44.9915C110.464 44.4417 111.13 43.5776 111.561 43.0474C111.991 42.5172 112.931 41.6335 113.636 41.064C114.321 40.4749 115.476 39.6894 116.181 39.277C116.866 38.8646 118.139 38.2754 118.961 37.9809C119.803 37.6667 121.173 37.2936 121.996 37.1365C123.014 36.9401 124.306 36.8615 125.97 36.9205ZM121.369 46.8374C120.723 47.1516 119.744 47.7997 119.216 48.271C118.667 48.7423 117.924 49.626 117.552 50.1955C117.18 50.7846 116.71 51.8058 116.494 52.4538C116.279 53.1804 116.142 54.2212 116.122 55.2031C116.122 56.3224 116.259 57.1275 116.553 58.0505C116.808 58.7378 117.297 59.759 117.649 60.3088C118.002 60.839 118.589 61.5656 118.961 61.8995C119.314 62.253 120.136 62.8421 120.782 63.2348C121.428 63.6276 122.544 64.0596 123.268 64.2364C123.993 64.3935 124.972 64.5309 125.422 64.5309C125.892 64.5309 126.792 64.3934 127.438 64.2167C128.085 64.04 129.083 63.6669 129.651 63.3723C130.238 63.0974 131.119 62.4493 131.628 61.978C132.137 61.4871 132.842 60.6427 133.175 60.1125C133.527 59.5626 133.978 58.5415 134.193 57.8541C134.428 57.0883 134.584 56.0082 134.584 55.2031C134.584 54.3979 134.428 53.2786 134.193 52.552C133.997 51.845 133.469 50.7453 133.057 50.0973C132.627 49.4492 131.804 48.5263 131.217 48.055C130.649 47.6033 129.729 47.0142 129.2 46.7589C128.652 46.5036 127.752 46.209 127.184 46.0912C126.616 45.9734 125.735 45.8752 125.226 45.8948C124.717 45.8948 123.895 45.993 123.425 46.0912C122.935 46.1698 122.015 46.5036 121.369 46.8374Z" fill="url(#paint0_linear_3152_28582)"/>
<defs>
<linearGradient id="paint0_linear_3152_28582" x1="90.5" y1="0" x2="90.5" y2="180" gradientUnits="userSpaceOnUse">
<stop stop-color="#573CFA" stop-opacity="0"/>
<stop offset="0.491527" stop-color="#573CFA"/>
<stop offset="1" stop-color="#573CFA" stop-opacity="0"/>
</linearGradient>
</defs>
</svg>
