<svg width="240" height="240" viewBox="0 0 240 240" fill="none" xmlns="http://www.w3.org/2000/svg">
<path d="M60 220C54.5 220 49.7933 218.043 45.88 214.13C41.9667 210.217 40.0067 205.507 40 200V100C40 94.5 41.96 89.7933 45.88 85.88C49.8 81.9667 54.5067 80.0067 60 80H70V60C70 46.1667 74.8767 34.3767 84.63 24.63C94.3833 14.8833 106.173 10.0067 120 10C133.827 9.99334 145.62 14.87 155.38 24.63C165.14 34.39 170.013 46.18 170 60V80H180C185.5 80 190.21 81.96 194.13 85.88C198.05 89.8 200.007 94.5067 200 100V200C200 205.5 198.043 210.21 194.13 214.13C190.217 218.05 185.507 220.007 180 220H60ZM60 200H180V100H60V200ZM120 170C125.5 170 130.21 168.043 134.13 164.13C138.05 160.217 140.007 155.507 140 150C139.993 144.493 138.037 139.787 134.13 135.88C130.223 131.973 125.513 130.013 120 130C114.487 129.987 109.78 131.947 105.88 135.88C101.98 139.813 100.02 144.52 100 150C99.98 155.48 101.94 160.19 105.88 164.13C109.82 168.07 114.527 170.027 120 170ZM90 80H150V60C150 51.6667 147.083 44.5833 141.25 38.75C135.417 32.9167 128.333 30 120 30C111.667 30 104.583 32.9167 98.75 38.75C92.9167 44.5833 90 51.6667 90 60V80Z" fill="url(#paint0_linear_3152_28723)"/>
<defs>
<linearGradient id="paint0_linear_3152_28723" x1="120" y1="10" x2="120" y2="220" gradientUnits="userSpaceOnUse">
<stop stop-color="#573CFA" stop-opacity="0"/>
<stop offset="0.491527" stop-color="#573CFA"/>
<stop offset="1" stop-color="#573CFA" stop-opacity="0"/>
</linearGradient>
</defs>
</svg>
