<svg width="20" height="20" viewBox="0 0 20 20" fill="none" xmlns="http://www.w3.org/2000/svg">
<path d="M17.0577 9.46169V3.6149C17.0577 3.4232 16.9409 3.26634 16.7982 3.26634H13.5226L12.3453 0.569487C12.3096 0.486708 12.248 0.430072 12.1798 0.408288C12.1117 0.386504 12.0371 0.408286 11.9788 0.460568L8.83928 3.30992C8.80685 3.28814 8.76794 3.2707 8.72902 3.2707H0.659827C0.517124 3.2707 0.400391 3.42754 0.400391 3.61923V19.2514C0.400391 19.4431 0.517124 19.5999 0.659827 19.5999H16.8015C16.9442 19.5999 17.0609 19.4431 17.0609 19.2514V13.1911H19.3442C19.4869 13.1911 19.6004 13.0343 19.6004 12.8426V9.81023C19.6004 9.61853 19.4836 9.46169 19.3442 9.46169H17.0577ZM16.5388 3.96344V6.08519H14.7485L13.8242 3.96344H16.5388ZM12.0404 1.24045L13.1204 3.71946C13.1334 3.7761 13.1528 3.82836 13.1852 3.86757L14.1517 6.08519H6.6955L12.0372 1.24045H12.0404ZM16.5388 18.8985H0.912809V3.95908H8.1128L5.77443 6.08083H3.3939C3.2512 6.08083 3.13442 6.23766 3.13442 6.42936C3.13442 6.62106 3.2512 6.7779 3.3939 6.7779H16.5388V9.46169H10.0945C9.95175 9.46169 9.83498 9.61853 9.83498 9.81023V12.8426C9.83498 13.0343 9.95175 13.1911 10.0945 13.1911H16.5388V18.9072V18.8985ZM19.0815 12.4897H10.3539V10.1501H19.0815V12.4897Z" fill="white"/>
</svg>
