<svg width="28" height="29" viewBox="0 0 28 29" fill="none" xmlns="http://www.w3.org/2000/svg">
<path d="M13.9999 7.24916C12.8397 7.24916 11.8999 6.36158 11.8999 5.2746C11.8999 4.18763 12.8439 3.30005 13.9999 3.30005C15.1559 3.30005 16.0999 4.18763 16.0999 5.2746C16.0999 6.36158 15.1559 7.24916 13.9999 7.24916ZM13.9999 3.91785C13.2056 3.91785 12.5611 4.52389 12.5611 5.27069C12.5611 6.01749 13.2056 6.62352 13.9999 6.62352C14.7942 6.62352 15.4387 6.01749 15.4387 5.27069C15.4387 4.52389 14.7942 3.91785 13.9999 3.91785Z" fill="white"/>
<path d="M13.9999 25.7001C12.8397 25.7001 11.8999 24.8125 11.8999 23.7255C11.8999 22.6385 12.8439 21.751 13.9999 21.751C15.1559 21.751 16.0999 22.6385 16.0999 23.7255C16.0999 24.8125 15.1559 25.7001 13.9999 25.7001ZM13.9999 22.3687C13.2056 22.3687 12.5611 22.9748 12.5611 23.7216C12.5611 24.4684 13.2056 25.0745 13.9999 25.0745C14.7942 25.0745 15.4387 24.4684 15.4387 23.7216C15.4387 22.9748 14.7942 22.3687 13.9999 22.3687Z" fill="white"/>
<path d="M13.9999 16.4765C12.8397 16.4765 11.8999 15.5889 11.8999 14.5019C11.8999 13.415 12.8439 12.5274 13.9999 12.5274C15.1559 12.5274 16.0999 13.415 16.0999 14.5019C16.0999 15.5889 15.1559 16.4765 13.9999 16.4765ZM13.9999 13.1452C13.2056 13.1452 12.5611 13.7512 12.5611 14.498C12.5611 15.2448 13.2056 15.8509 13.9999 15.8509C14.7942 15.8509 15.4387 15.2448 15.4387 14.498C15.4387 13.7512 14.7942 13.1452 13.9999 13.1452Z" fill="white"/>
</svg>
