<svg width="24" height="24" viewBox="0 0 24 24" fill="none" xmlns="http://www.w3.org/2000/svg">
<path d="M22.8567 0.799805L4.67606 0.856582C4.48681 0.856582 4.33626 1.01383 4.33626 1.20599C4.33626 1.39815 4.49109 1.55097 4.68034 1.55097L22.5169 1.49419L22.461 22.501H1.48464V4.67799H19.4933V19.7234C19.4933 19.9155 19.6481 20.0728 19.8374 20.0728C20.0266 20.0728 20.1814 19.9155 20.1814 19.7234V4.66487C20.1814 4.28928 19.8804 3.9836 19.5105 3.9836H1.41583C1.07605 3.9836 0.800781 4.26308 0.800781 4.60809V22.5097C0.800781 22.8897 1.10614 23.1998 1.48033 23.1998H22.4653C22.8395 23.1998 23.1449 22.8941 23.1449 22.5097L23.2008 1.14921C23.2008 0.95705 23.0459 0.799805 22.8567 0.799805Z" fill="white"/>
<path d="M11.0588 7.53434C11.0588 7.25046 10.8309 7.01897 10.5513 7.01897H3.97926C3.70399 7.02771 3.48465 7.25921 3.48465 7.54308L3.53196 13.1725C3.53196 13.4564 3.75991 13.6835 4.03948 13.6835H10.5513C10.8309 13.6835 11.0588 13.452 11.0588 13.1681V7.53434ZM10.375 12.9847H4.22014V7.71336H10.375V12.9847Z" fill="white"/>
<path d="M17.6997 7.06674H12.5255C12.3363 7.06674 12.1814 7.22398 12.1814 7.41615C12.1814 7.60831 12.3363 7.7655 12.5255 7.7655H17.6997C17.889 7.7655 18.0438 7.60831 18.0438 7.41615C18.0438 7.22398 17.889 7.06674 17.6997 7.06674Z" fill="white"/>
<path d="M4.74912 17.1335H17.9147C18.104 17.1335 18.2588 16.9762 18.2588 16.7841C18.2588 16.5919 18.104 16.4347 17.9147 16.4347H4.74912C4.55987 16.4347 4.40504 16.5919 4.40504 16.7841C4.40504 16.9762 4.55987 17.1335 4.74912 17.1335Z" fill="white"/>
<path d="M4.79217 20.2606H18.1298C18.3191 20.2606 18.4739 20.1034 18.4739 19.9112C18.4739 19.719 18.3191 19.5618 18.1298 19.5618H4.79217C4.60292 19.5618 4.44809 19.719 4.44809 19.9112C4.44809 20.1034 4.60292 20.2606 4.79217 20.2606Z" fill="white"/>
<path d="M12.5729 10.2765C12.3836 10.2765 12.2288 10.4338 12.2288 10.626C12.2288 10.8181 12.3836 10.9754 12.5729 10.9754H17.747C17.9363 10.9754 18.0912 10.8181 18.0912 10.626C18.0912 10.4338 17.9363 10.2765 17.747 10.2765H12.5729Z" fill="white"/>
<path d="M12.4438 14.0546H17.618C17.8073 14.0546 17.9621 13.8974 17.9621 13.7053C17.9621 13.5131 17.8073 13.3559 17.618 13.3559H12.4438C12.2546 13.3559 12.0997 13.5131 12.0997 13.7053C12.0997 13.8974 12.2546 14.0546 12.4438 14.0546Z" fill="white"/>
</svg>
