<svg width="12" height="13" viewBox="0 0 12 13" fill="none" xmlns="http://www.w3.org/2000/svg">
<path d="M11.1634 4.18159L8.31858 1.33721C8.23151 1.25005 8.12811 1.1809 8.0143 1.13372C7.90049 1.08654 7.7785 1.06226 7.6553 1.06226C7.53209 1.06226 7.4101 1.08654 7.29629 1.13372C7.18248 1.1809 7.07908 1.25005 6.99201 1.33721L4.55639 3.78127C3.97373 3.62518 2.83701 3.51315 1.66233 4.46096C1.55975 4.54349 1.4757 4.64671 1.41566 4.76388C1.35562 4.88105 1.32093 5.00955 1.31385 5.14102C1.30678 5.27249 1.32747 5.40398 1.37459 5.52692C1.42171 5.64986 1.4942 5.76149 1.58733 5.85456L3.71826 7.98596L1.85264 9.85159C1.74697 9.95726 1.6876 10.1006 1.6876 10.25C1.6876 10.3995 1.74697 10.5428 1.85264 10.6485C1.95831 10.7541 2.10163 10.8135 2.25108 10.8135C2.40052 10.8135 2.54384 10.7541 2.64951 10.6485L4.51514 8.78237L6.64655 10.9133C6.82217 11.0887 7.06019 11.1873 7.30842 11.1875C7.32998 11.1875 7.35201 11.1875 7.37405 11.1852C7.50785 11.1755 7.63801 11.1372 7.75575 11.073C7.8735 11.0087 7.97607 10.9199 8.05655 10.8125C8.27639 10.5205 8.57217 10.0564 8.73342 9.50002C8.89467 8.94362 8.89514 8.42753 8.74092 7.9344L11.1644 5.50299C11.3387 5.32724 11.4365 5.08966 11.4363 4.8421C11.4361 4.59454 11.338 4.3571 11.1634 4.18159ZM7.68248 7.40612C7.59926 7.48965 7.54439 7.59723 7.52564 7.71364C7.50688 7.83006 7.52518 7.94942 7.57795 8.05487C7.73873 8.37643 7.90139 9.03924 7.28358 9.96034L2.53514 5.21237C3.52373 4.52846 4.38811 4.90112 4.45701 4.93112C4.56201 4.98563 4.68186 5.00464 4.79857 4.98528C4.91528 4.96593 5.02257 4.90926 5.10436 4.82377L7.65576 2.26393L10.2339 4.84206L7.68248 7.40612Z" fill="white"/>
</svg>
