<svg width="26" height="26" viewBox="0 0 26 26" fill="none" xmlns="http://www.w3.org/2000/svg">
<path d="M6.34674 25.8002H0.473304C0.275274 25.8002 0.113281 25.6402 0.113281 25.4445V12.6312C0.113281 12.4356 0.275274 12.2756 0.473304 12.2756H6.34674C6.54477 12.2756 6.70682 12.4356 6.70682 12.6312V25.4445C6.70682 25.6402 6.54477 25.8002 6.34674 25.8002ZM0.828878 25.0933H5.98667V12.9869H0.828878V25.0933Z" fill="#947EAE"/>
<path d="M15.9602 25.7999H10.0867C9.88871 25.7999 9.72672 25.6398 9.72672 25.4442V6.6066C9.72672 6.41098 9.88871 6.2509 10.0867 6.2509H15.9602C16.1582 6.2509 16.3203 6.41098 16.3203 6.6066V25.4442C16.3203 25.6398 16.1582 25.7999 15.9602 25.7999ZM10.4468 25.093H15.6046V6.96224H10.4468V25.093Z" fill="#947EAE"/>
<path d="M25.3532 25.8001H19.4798C19.2817 25.8001 19.1197 25.6401 19.1197 25.4445V0.555841C19.1197 0.360218 19.2817 0.200195 19.4798 0.200195H25.3532C25.5512 0.200195 25.7133 0.360218 25.7133 0.555841V25.4445C25.7133 25.6401 25.5512 25.8001 25.3532 25.8001ZM19.8398 25.0932H24.9976V0.911542H19.8398V25.0932Z" fill="#947EAE"/>
</svg>
