<svg width="18" height="23" viewBox="0 0 18 23" fill="none" xmlns="http://www.w3.org/2000/svg">
<path d="M17.5 22C17.5 22.1326 17.4473 22.2597 17.3536 22.3535C17.2598 22.4473 17.1326 22.5 17 22.5H1C0.867392 22.5 0.740215 22.4473 0.646447 22.3535C0.552679 22.2597 0.5 22.1326 0.5 22C0.5 21.8674 0.552679 21.7402 0.646447 21.6464C0.740215 21.5526 0.867392 21.5 1 21.5H1.5C2.56087 21.5 3.57828 21.0785 4.32843 20.3284C5.07857 19.5782 5.5 18.5608 5.5 17.5V12.5H1C0.867392 12.5 0.740215 12.4473 0.646447 12.3535C0.552679 12.2597 0.5 12.1326 0.5 12C0.5 11.8674 0.552679 11.7402 0.646447 11.6464C0.740215 11.5526 0.867392 11.5 1 11.5H5.5V6.49996C5.50093 5.36272 5.82505 4.24917 6.43457 3.28908C7.04409 2.32898 7.91392 1.56188 8.94269 1.07717C9.97145 0.592454 11.1168 0.410097 12.2452 0.551345C13.3736 0.692594 14.4387 1.15163 15.3162 1.87496C15.3683 1.91627 15.4116 1.96755 15.4436 2.02579C15.4756 2.08403 15.4957 2.14807 15.5027 2.21416C15.5097 2.28025 15.5034 2.34707 15.4842 2.41071C15.4651 2.47435 15.4334 2.53353 15.3911 2.5848C15.3488 2.63606 15.2968 2.67838 15.2379 2.70928C15.1791 2.74018 15.1147 2.75904 15.0485 2.76476C14.9822 2.77048 14.9156 2.76294 14.8523 2.74259C14.789 2.72223 14.7305 2.68947 14.68 2.64621C13.9487 2.04352 13.0612 1.66105 12.121 1.54336C11.1807 1.42567 10.2263 1.57762 9.36905 1.98148C8.5118 2.38535 7.78696 3.02451 7.27901 3.8245C6.77105 4.62448 6.50089 5.55234 6.5 6.49996V11.5H11C11.1326 11.5 11.2598 11.5526 11.3536 11.6464C11.4473 11.7402 11.5 11.8674 11.5 12C11.5 12.1326 11.4473 12.2597 11.3536 12.3535C11.2598 12.4473 11.1326 12.5 11 12.5H6.5V17.5C6.5 18.2762 6.31927 19.0418 5.97214 19.736C5.625 20.4303 5.12098 21.0342 4.5 21.5H17C17.1326 21.5 17.2598 21.5526 17.3536 21.6464C17.4473 21.7402 17.5 21.8674 17.5 22Z" fill="white"/>
</svg>
