<svg width="25" height="24" viewBox="0 0 25 24" fill="none" xmlns="http://www.w3.org/2000/svg">
<path d="M10.25 4.125H5.75C5.45163 4.125 5.16548 4.24353 4.9545 4.4545C4.74353 4.66548 4.625 4.95163 4.625 5.25V9.75C4.625 10.0484 4.74353 10.3345 4.9545 10.5455C5.16548 10.7565 5.45163 10.875 5.75 10.875H10.25C10.5484 10.875 10.8345 10.7565 11.0455 10.5455C11.2565 10.3345 11.375 10.0484 11.375 9.75V5.25C11.375 4.95163 11.2565 4.66548 11.0455 4.4545C10.8345 4.24353 10.5484 4.125 10.25 4.125ZM10.625 9.75C10.625 9.84946 10.5855 9.94484 10.5152 10.0152C10.4448 10.0855 10.3495 10.125 10.25 10.125H5.75C5.65054 10.125 5.55516 10.0855 5.48484 10.0152C5.41451 9.94484 5.375 9.84946 5.375 9.75V5.25C5.375 5.15054 5.41451 5.05516 5.48484 4.98484C5.55516 4.91451 5.65054 4.875 5.75 4.875H10.25C10.3495 4.875 10.4448 4.91451 10.5152 4.98484C10.5855 5.05516 10.625 5.15054 10.625 5.25V9.75ZM10.25 13.125H5.75C5.45163 13.125 5.16548 13.2435 4.9545 13.4545C4.74353 13.6655 4.625 13.9516 4.625 14.25V18.75C4.625 19.0484 4.74353 19.3345 4.9545 19.5455C5.16548 19.7565 5.45163 19.875 5.75 19.875H10.25C10.5484 19.875 10.8345 19.7565 11.0455 19.5455C11.2565 19.3345 11.375 19.0484 11.375 18.75V14.25C11.375 13.9516 11.2565 13.6655 11.0455 13.4545C10.8345 13.2435 10.5484 13.125 10.25 13.125ZM10.625 18.75C10.625 18.8495 10.5855 18.9448 10.5152 19.0152C10.4448 19.0855 10.3495 19.125 10.25 19.125H5.75C5.65054 19.125 5.55516 19.0855 5.48484 19.0152C5.41451 18.9448 5.375 18.8495 5.375 18.75V14.25C5.375 14.1505 5.41451 14.0552 5.48484 13.9848C5.55516 13.9145 5.65054 13.875 5.75 13.875H10.25C10.3495 13.875 10.4448 13.9145 10.5152 13.9848C10.5855 14.0552 10.625 14.1505 10.625 14.25V18.75ZM19.25 4.125H14.75C14.4516 4.125 14.1655 4.24353 13.9545 4.4545C13.7435 4.66548 13.625 4.95163 13.625 5.25V9.75C13.625 10.0484 13.7435 10.3345 13.9545 10.5455C14.1655 10.7565 14.4516 10.875 14.75 10.875H19.25C19.5484 10.875 19.8345 10.7565 20.0455 10.5455C20.2565 10.3345 20.375 10.0484 20.375 9.75V5.25C20.375 4.95163 20.2565 4.66548 20.0455 4.4545C19.8345 4.24353 19.5484 4.125 19.25 4.125ZM19.625 9.75C19.625 9.84946 19.5855 9.94484 19.5152 10.0152C19.4448 10.0855 19.3495 10.125 19.25 10.125H14.75C14.6505 10.125 14.5552 10.0855 14.4848 10.0152C14.4145 9.94484 14.375 9.84946 14.375 9.75V5.25C14.375 5.15054 14.4145 5.05516 14.4848 4.98484C14.5552 4.91451 14.6505 4.875 14.75 4.875H19.25C19.3495 4.875 19.4448 4.91451 19.5152 4.98484C19.5855 5.05516 19.625 5.15054 19.625 5.25V9.75ZM13.625 16.5V13.5C13.625 13.4005 13.6645 13.3052 13.7348 13.2348C13.8052 13.1645 13.9005 13.125 14 13.125C14.0995 13.125 14.1948 13.1645 14.2652 13.2348C14.3355 13.3052 14.375 13.4005 14.375 13.5V16.5C14.375 16.5995 14.3355 16.6948 14.2652 16.7652C14.1948 16.8355 14.0995 16.875 14 16.875C13.9005 16.875 13.8052 16.8355 13.7348 16.7652C13.6645 16.6948 13.625 16.5995 13.625 16.5ZM20.375 15C20.375 15.0995 20.3355 15.1948 20.2652 15.2652C20.1948 15.3355 20.0995 15.375 20 15.375H17.375V19.5C17.375 19.5995 17.3355 19.6948 17.2652 19.7652C17.1948 19.8355 17.0995 19.875 17 19.875H14C13.9005 19.875 13.8052 19.8355 13.7348 19.7652C13.6645 19.6948 13.625 19.5995 13.625 19.5C13.625 19.4005 13.6645 19.3052 13.7348 19.2348C13.8052 19.1645 13.9005 19.125 14 19.125H16.625V13.5C16.625 13.4005 16.6645 13.3052 16.7348 13.2348C16.8052 13.1645 16.9005 13.125 17 13.125C17.0995 13.125 17.1948 13.1645 17.2652 13.2348C17.3355 13.3052 17.375 13.4005 17.375 13.5V14.625H20C20.0995 14.625 20.1948 14.6645 20.2652 14.7348C20.3355 14.8052 20.375 14.9005 20.375 15ZM20.375 18V19.5C20.375 19.5995 20.3355 19.6948 20.2652 19.7652C20.1948 19.8355 20.0995 19.875 20 19.875C19.9005 19.875 19.8052 19.8355 19.7348 19.7652C19.6645 19.6948 19.625 19.5995 19.625 19.5V18C19.625 17.9005 19.6645 17.8052 19.7348 17.7348C19.8052 17.6645 19.9005 17.625 20 17.625C20.0995 17.625 20.1948 17.6645 20.2652 17.7348C20.3355 17.8052 20.375 17.9005 20.375 18Z" fill="white"/>
</svg>
