<?xml version="1.0" encoding="UTF-8"?>
<svg version="1.1" xmlns="http://www.w3.org/2000/svg" width="1000" height="1000">
<path d="M0 0 C2.1515577 -0.00600436 4.30311328 -0.01281418 6.45466614 -0.02035522 C12.23665889 -0.03783652 18.01859224 -0.04270319 23.80060887 -0.0439868 C27.43513221 -0.0454201 31.06964101 -0.04971186 34.70416069 -0.05498123 C47.4476401 -0.07342819 60.191078 -0.08165927 72.93457031 -0.08007812 C84.70807691 -0.07888081 96.481399 -0.09991646 108.25485903 -0.13156545 C118.44600292 -0.15795878 128.63708745 -0.16843577 138.82826513 -0.16716731 C144.8777289 -0.16666403 150.92702868 -0.17198609 156.9764576 -0.19352341 C223.22313235 -0.41296856 286.03923647 9.36783437 346.62475586 37.29052734 C347.93766602 37.88534912 347.93766602 37.88534912 349.27709961 38.4921875 C382.7928937 53.70004132 414.3756125 73.71705816 442.09741211 97.97363281 C443.60506448 99.27354919 445.1461184 100.53439646 446.68725586 101.79443359 C454.88432952 108.51898654 462.429071 115.87953026 469.93725586 123.35302734 C470.44922516 123.85982025 470.96119446 124.36661316 471.48867798 124.88876343 C477.54360449 130.89537193 483.20416237 137.0221093 488.52880859 143.70019531 C490.52736008 146.17015818 492.60123352 148.53402283 494.73413086 150.88818359 C498.70904504 155.31622226 502.32421916 159.95577502 505.87475586 164.72802734 C506.51880371 165.59129639 507.16285156 166.45456543 507.82641602 167.34399414 C548.01354342 221.65266582 574.96519552 284.99655562 585.43725586 351.79052734 C585.72947021 353.64665649 585.72947021 353.64665649 586.02758789 355.5402832 C588.76478579 373.90844868 589.92581836 392.10491294 589.9152832 410.66577148 C589.92128756 412.81732918 589.92809738 414.96888476 589.93563843 417.12043762 C589.95311973 422.90243037 589.95798639 428.68436372 589.95927 434.46638036 C589.96070331 438.10090369 589.96499506 441.73541249 589.97026443 445.36993217 C589.9887114 458.11341158 589.99694248 470.85684948 589.99536133 483.6003418 C589.99416401 495.3738484 590.01519966 507.14717049 590.04684865 518.92063051 C590.07324198 529.1117744 590.08371897 539.30285893 590.08245051 549.49403661 C590.08194724 555.54350039 590.0872693 561.59280016 590.10880661 567.64222908 C590.32825176 633.88890384 580.54744884 696.70500796 552.62475586 757.29052734 C552.22820801 758.16580078 551.83166016 759.04107422 551.4230957 759.94287109 C536.21524188 793.45866518 516.19822505 825.04138399 491.94165039 852.76318359 C490.64173401 854.27083596 489.38088674 855.81188988 488.12084961 857.35302734 C481.39629666 865.550101 474.03575294 873.09484248 466.56225586 880.60302734 C466.05546295 881.11499664 465.54867004 881.62696594 465.02651978 882.15444946 C459.01991127 888.20937598 452.8931739 893.86993385 446.21508789 899.19458008 C443.74512502 901.19313156 441.38126037 903.26700501 439.02709961 905.39990234 C434.59906094 909.37481652 429.95950818 912.98999064 425.18725586 916.54052734 C424.32398682 917.1845752 423.46071777 917.82862305 422.57128906 918.4921875 C368.26261738 958.67931491 304.91872759 985.63096701 238.12475586 996.10302734 C236.88733643 996.29783691 235.64991699 996.49264648 234.375 996.69335938 C216.00683452 999.43055728 197.81037026 1000.59158984 179.24951172 1000.58105469 C177.09795402 1000.58705905 174.94639844 1000.59386886 172.79484558 1000.60140991 C167.01285283 1000.61889121 161.23091948 1000.62375788 155.44890285 1000.62504148 C151.81437951 1000.62647479 148.17987071 1000.63076655 144.54535103 1000.63603592 C131.80187162 1000.65448288 119.05843372 1000.66271396 106.31494141 1000.66113281 C94.54143481 1000.6599355 82.76811272 1000.68097114 70.99465269 1000.71262014 C60.8035088 1000.73901346 50.61242427 1000.74949045 40.42124659 1000.74822199 C34.37178281 1000.74771872 28.32248304 1000.75304078 22.27305412 1000.77457809 C-43.97362064 1000.99402325 -106.78972475 991.21322032 -167.37524414 963.29052734 C-168.25051758 962.89397949 -169.12579102 962.49743164 -170.02758789 962.08886719 C-203.54338198 946.88101337 -235.12610078 926.86399653 -262.84790039 902.60742188 C-264.35555276 901.3075055 -265.89660668 900.04665823 -267.43774414 898.78662109 C-275.6348178 892.06206815 -283.17955928 884.70152442 -290.68774414 877.22802734 C-291.19971344 876.72123444 -291.71168274 876.21444153 -292.23916626 875.69229126 C-298.29409277 869.68568276 -303.95465065 863.55894539 -309.27929688 856.88085938 C-311.27784836 854.4108965 -313.3517218 852.04703185 -315.48461914 849.69287109 C-319.45953332 845.26483243 -323.07470744 840.62527966 -326.62524414 835.85302734 C-327.26929199 834.9897583 -327.91333984 834.12648926 -328.5769043 833.23706055 C-368.7640317 778.92838886 -395.7156838 715.58449907 -406.18774414 648.79052734 C-406.38255371 647.55310791 -406.57736328 646.31568848 -406.77807617 645.04077148 C-409.51527407 626.67260601 -410.67630664 608.47614175 -410.66577148 589.9152832 C-410.67177584 587.7637255 -410.67858566 585.61216993 -410.68612671 583.46061707 C-410.70360801 577.67862432 -410.70847467 571.89669096 -410.70975828 566.11467433 C-410.71119159 562.480151 -410.71548335 558.8456422 -410.72075272 555.21112251 C-410.73919968 542.4676431 -410.74743076 529.72420521 -410.74584961 516.98071289 C-410.74465229 505.20720629 -410.76568794 493.4338842 -410.79733694 481.66042417 C-410.82373026 471.46928029 -410.83420725 461.27819575 -410.83293879 451.08701807 C-410.83243552 445.0375543 -410.83775758 438.98825453 -410.85929489 432.93882561 C-411.07874005 366.69215085 -401.29793712 303.87604673 -373.37524414 243.29052734 C-372.97869629 242.41525391 -372.58214844 241.53998047 -372.17358398 240.63818359 C-356.96573017 207.12238951 -336.94871333 175.5396707 -312.69213867 147.81787109 C-311.39222229 146.31021873 -310.13137502 144.7691648 -308.87133789 143.22802734 C-302.14678494 135.03095368 -294.78624122 127.48621221 -287.31274414 119.97802734 C-286.80595123 119.46605804 -286.29915833 118.95408875 -285.77700806 118.42660522 C-279.77039955 112.37167871 -273.64366218 106.71112084 -266.96557617 101.38647461 C-264.4956133 99.38792313 -262.13174865 97.31404968 -259.77758789 95.18115234 C-255.34954922 91.20623816 -250.70999646 87.59106405 -245.93774414 84.04052734 C-245.0744751 83.39647949 -244.21120605 82.75243164 -243.32177734 82.08886719 C-189.01310566 41.90173978 -125.66921587 14.95008768 -58.87524414 4.47802734 C-57.63782471 4.28321777 -56.40040527 4.0884082 -55.12548828 3.88769531 C-36.75732281 1.15049741 -18.56085854 -0.01053515 0 0 Z " fill="#181E39" transform="translate(410.375244140625,-0.29052734375)"/>
<path d="M0 0 C2.65527344 1.25244141 2.65527344 1.25244141 5.359375 2.8515625 C6.37918457 3.44783447 7.39899414 4.04410645 8.44970703 4.65844727 C9.53880371 5.30740967 10.62790039 5.95637207 11.75 6.625 C12.90551279 7.30428217 14.06161137 7.98256873 15.21826172 8.65991211 C17.62074891 10.06781594 20.02066241 11.47996691 22.41894531 12.89501953 C27.96272213 16.16057039 33.54658088 19.35663803 39.125 22.5625 C48.42339504 27.92181754 57.69937565 33.31858482 66.96582031 38.73291016 C78.61659185 45.53587623 90.30903744 52.26642186 102 59 C115.67554314 66.87662589 129.33960958 74.77120092 142.96582031 82.73291016 C153.52620282 88.89919054 164.12126766 95.0049595 174.71777344 101.10888672 C180.14659942 104.23680148 185.57319281 107.36858448 191 110.5 C193.16665583 111.75001879 195.3333225 113.00001878 197.5 114.25 C201.83333333 116.75 206.16666667 119.25 210.5 121.75 C212.11092529 122.6793335 212.11092529 122.6793335 213.75439453 123.62744141 C215.9065213 124.86911527 218.05854073 126.11097522 220.21044922 127.35302734 C225.25030977 130.26166823 230.29117492 133.16851898 235.33599854 136.06854248 C237.11749578 137.09275665 238.89864322 138.11757651 240.6796875 139.14257812 C242.91076625 140.42633375 245.14249573 141.70895939 247.375 142.99023438 C252.98865365 146.22201335 258.53291438 149.52571298 264 153 C259.03985531 156.91284363 253.47848712 159.87556052 248.01000977 163.00732422 C246.06833759 164.12164981 244.13281707 165.24617887 242.19726562 166.37109375 C240.95609476 167.08397024 239.71456983 167.7962307 238.47265625 168.5078125 C237.35125244 169.15379395 236.22984863 169.79977539 235.07446289 170.46533203 C232.19479005 171.90276739 230.20235178 172.84713849 227 173 C224.45825195 171.97460938 224.45825195 171.97460938 221.73828125 170.34375 C220.71541016 169.74111328 219.69253906 169.13847656 218.63867188 168.51757812 C216.9922168 167.51887695 216.9922168 167.51887695 215.3125 166.5 C214.15130392 165.81030896 212.98917697 165.12218302 211.82617188 164.43554688 C209.40991656 163.00734813 206.99781346 161.57248601 204.58837891 160.1328125 C199.09570918 156.85839676 193.54517498 153.68436628 188 150.5 C185.83305924 149.25047521 183.6663934 148.00047353 181.5 146.75 C179.89125 145.821875 179.89125 145.821875 178.25 144.875 C166.33333333 138 154.41666667 131.125 142.5 124.25 C141.42733887 123.63116943 140.35467773 123.01233887 139.24951172 122.37475586 C137.08442929 121.12564482 134.91939018 119.87645871 132.75439453 118.62719727 C127.31384294 115.48797691 121.87252784 112.35009437 116.4296875 109.21484375 C104.9455118 102.59777108 93.47803106 95.95366023 82.03417969 89.26708984 C70.38340815 82.46412377 58.69096256 75.73357814 47 69 C43.71261122 67.10658112 40.42535239 65.21294268 37.13891602 63.31787109 C34.9792822 62.07368681 32.81832993 60.83178802 30.65600586 59.59228516 C25.13117906 56.41829635 19.64688847 53.19280523 14.20703125 49.875 C13.11213379 49.21443604 12.01723633 48.55387207 10.88916016 47.87329102 C8.80018943 46.61025541 6.71991028 45.3326981 4.64990234 44.03881836 C3.71742676 43.47815674 2.78495117 42.91749512 1.82421875 42.33984375 C1.01041748 41.83831787 0.19661621 41.33679199 -0.6418457 40.82006836 C-3.02183115 39.73906655 -3.02183115 39.73906655 -5.57763672 40.7355957 C-6.3770166 41.15284912 -7.17639648 41.57010254 -8 42 C-8.60690674 42.30454102 -9.21381348 42.60908203 -9.83911133 42.92285156 C-10.4142749 43.2422168 -10.98943848 43.56158203 -11.58203125 43.890625 C-12.25347168 44.26268066 -12.92491211 44.63473633 -13.61669922 45.01806641 C-14.70362061 45.62787354 -14.70362061 45.62787354 -15.8125 46.25 C-16.59383301 46.68618652 -17.37516602 47.12237305 -18.18017578 47.57177734 C-25.64234535 51.75915044 -33.02723703 56.07699892 -40.40942383 60.40332031 C-48.24254068 64.98957799 -56.11307749 69.5072661 -64 74 C-73.72143706 79.53951839 -83.40895317 85.13375194 -93.06689453 90.78344727 C-103.59084625 96.93766742 -114.15380137 103.02369996 -124.71777344 109.10888672 C-130.14659942 112.23680148 -135.57319281 115.36858448 -141 118.5 C-143.16665583 119.75001879 -145.3333225 121.00001878 -147.5 122.25 C-148.5725 122.86875 -149.645 123.4875 -150.75 124.125 C-238.5 174.75 -238.5 174.75 -241.75097656 176.62548828 C-243.91447476 177.87371034 -246.07788643 179.12208239 -248.24121094 180.37060547 C-253.70565017 183.52405256 -259.17163645 186.67476096 -264.640625 189.8203125 C-265.74792969 190.45775391 -266.85523438 191.09519531 -267.99609375 191.75195312 C-270.04498654 192.9313578 -272.09439311 194.10987081 -274.14453125 195.28710938 C-276.12203563 196.42595178 -278.08033431 197.59872573 -280.01911736 198.80230618 C-283.04427115 200.58691788 -286.10214632 201.82819744 -289.38726997 203.0630579 C-295.77885022 205.72691067 -301.48508804 208.62591705 -306 214 C-309.90619579 223.57039208 -309.07232093 234.72249331 -308.9052608 244.89367282 C-308.85933896 249.15159417 -308.94062941 253.40745002 -309.00497437 257.66487122 C-309.11023228 265.99173095 -309.09692495 274.31430114 -309.0399463 282.64147275 C-308.99562873 289.412017 -308.99376878 296.18134582 -309.02182388 302.95196724 C-309.02577246 303.91754018 -309.02972103 304.88311313 -309.03378925 305.87794586 C-309.04196827 307.83983603 -309.05023239 309.80172586 -309.05858065 311.76361532 C-309.13157126 330.13872752 -309.06843677 348.5114535 -308.95940436 366.88626123 C-308.86929961 382.63286142 -308.90040087 398.37546625 -309.01904297 414.12182617 C-309.15696796 432.43184436 -309.2160355 450.7394315 -309.15287125 469.04994112 C-309.14636686 471.00469937 -309.13997644 472.959458 -309.13370132 474.914217 C-309.13058869 475.87585078 -309.12747605 476.83748456 -309.12426909 477.82825876 C-309.10789195 484.58569099 -309.14774264 491.34143334 -309.20995712 498.09855461 C-309.28448137 506.3423391 -309.2730729 514.58074181 -309.1533234 522.82407921 C-309.09443047 527.02740533 -309.07302403 531.22157808 -309.15701294 535.42468643 C-310.02322105 552.12377104 -310.02322105 552.12377104 -303.61382151 566.70166898 C-297.86939417 571.28789012 -291.60286149 574.26032404 -284.77639604 576.89397824 C-281.21753613 578.311707 -278.1350964 580.10644863 -274.8828125 582.12109375 C-272.96389348 583.22717308 -271.04463128 584.33265727 -269.125 585.4375 C-266.94009462 586.69659802 -264.75519908 587.95571311 -262.5703125 589.21484375 C-261.48524414 589.83987793 -260.40017578 590.46491211 -259.28222656 591.10888672 C-253.85340058 594.23680148 -248.42680719 597.36858448 -243 600.5 C-240.83334417 601.75001879 -238.6666775 603.00001878 -236.5 604.25 C-180.16666667 636.75 -123.83333333 669.25 -67.5 701.75 C-66.4267749 702.36915283 -65.3535498 702.98830566 -64.24780273 703.6262207 C-62.08840605 704.8720577 -59.92906331 706.11798818 -57.76977539 707.36401367 C-52.24232403 710.55348953 -46.71384879 713.74116885 -41.18359375 716.92578125 C-40.06299561 717.57168213 -38.94239746 718.21758301 -37.7878418 718.88305664 C-35.58094839 720.15399438 -33.37280674 721.42276747 -31.16333008 722.68920898 C-26.32030504 725.47168885 -21.50622512 728.28019408 -16.765625 731.234375 C-15.9826001 731.71672607 -15.1995752 732.19907715 -14.39282227 732.69604492 C-12.97203407 733.57638939 -11.56016624 734.47138111 -10.15991211 735.3840332 C-8.11566234 736.70184098 -8.11566234 736.70184098 -5 738 C-1.38365767 736.88520161 1.82115825 735.08033394 5.11328125 733.234375 C6.10126709 732.68144775 7.08925293 732.12852051 8.10717773 731.55883789 C9.16493408 730.96192139 10.22269043 730.36500488 11.3125 729.75 C12.42117432 729.12665771 13.52984863 728.50331543 14.67211914 727.86108398 C24.13940877 722.52126695 33.53299965 717.05876975 42.91015625 711.5625 C49.21570419 707.8678669 55.54294436 704.21147319 61.875 700.5625 C62.95515381 699.93996338 64.03530762 699.31742676 65.14819336 698.67602539 C67.33796334 697.41423174 69.52782355 696.15259466 71.71777344 694.89111328 C77.14659938 691.76319854 82.57322007 688.63146269 88 685.5 C94.52233275 681.73636081 101.04513762 677.97355378 107.5703125 674.21484375 C118.06232094 668.16944841 128.54481676 662.10889781 139 656 C150.54729516 649.25298806 162.12902027 642.56660682 173.71777344 635.89111328 C179.14659942 632.76319852 184.57319281 629.63141552 190 626.5 C192.16665583 625.24998121 194.3333225 623.99998122 196.5 622.75 C198.10875 621.821875 198.10875 621.821875 199.75 620.875 C235.49999999 600.25 235.49999999 600.25 238.75219727 598.3737793 C240.91159395 597.1279423 243.07093669 595.88201182 245.23022461 594.63598633 C250.75767597 591.44651047 256.28615121 588.25883115 261.81640625 585.07421875 C263.51120117 584.09775391 263.51120117 584.09775391 265.24023438 583.1015625 C267.35445854 581.88349096 269.46900619 580.6659806 271.58398438 579.44921875 C273.54468338 578.31928088 275.49116939 577.16424605 277.42112064 575.9825573 C279.97146759 574.485001 282.50505963 573.39688198 285.27595425 572.36914253 C290.1948549 570.35342376 294.56478575 568.1574871 298 564 C301.22106649 555.8542621 300.20348628 546.39036181 300.02172852 537.80419922 C300.026799 535.11278259 300.03860257 532.42217658 300.05880737 529.73091125 C300.08886163 523.94752091 300.05710368 518.16716519 299.98260689 512.38421249 C299.87499702 504.02377023 299.86177222 495.66524056 299.8711183 487.30420782 C299.88374046 473.73796304 299.82069689 460.17317734 299.7097168 446.60742188 C299.60211337 433.43451219 299.53036525 420.26220644 299.5065918 407.08886719 C299.50511249 406.27604463 299.50363319 405.46322207 299.50210906 404.62576853 C299.49490776 400.54782424 299.48840878 396.4698792 299.48225892 392.3919332 C299.43038096 358.59376207 299.2555587 324.7972422 299 291 C299.82201904 290.53102295 300.64403809 290.0620459 301.4909668 289.57885742 C304.55697308 287.82929662 307.62269632 286.07924185 310.68823242 284.32885742 C312.01201346 283.57312701 313.33590517 282.81759043 314.65991211 282.06225586 C316.56914325 280.97301041 318.4779679 279.88305557 320.38671875 278.79296875 C320.97337814 278.45847214 321.56003754 278.12397552 322.16447449 277.77934265 C324.73268805 276.31184151 327.27743357 274.82716576 329.78833008 273.26293945 C332 272 332 272 334 272 C334 375.29 334 478.58 334 585 C326.41 589.29 318.82 593.58 311 598 C307.05476393 600.28051034 303.11502296 602.56493281 299.1875 604.875 C287.58184858 611.67100718 275.93605309 618.39590883 264.28222656 625.10888672 C258.85340058 628.23680148 253.42680719 631.36858448 248 634.5 C245.83334417 635.75001879 243.6666775 637.00001878 241.5 638.25 C239.89125 639.178125 239.89125 639.178125 238.25 640.125 C46.50000001 750.75 46.50000001 750.75 43.24438477 752.62817383 C41.09635954 753.86746267 38.94840925 755.10688141 36.80053711 756.34643555 C31.71344451 759.28202567 26.62558153 762.21625672 21.5350647 765.14590454 C19.12456252 766.53328095 16.71448624 767.92139624 14.30444336 769.30957031 C12.59856032 770.29173815 10.89206014 771.27283385 9.18554688 772.25390625 C8.15623047 772.846875 7.12691406 773.43984375 6.06640625 774.05078125 C5.15834229 774.57325439 4.25027832 775.09572754 3.31469727 775.6340332 C1.50873799 776.69977966 -0.25521129 777.83680752 -2 779 C-5.883178 778.65848532 -8.75323535 777.23633781 -12.11328125 775.33203125 C-13.10110596 774.77596191 -14.08893066 774.21989258 -15.10668945 773.64697266 C-16.69356567 772.73890869 -16.69356567 772.73890869 -18.3125 771.8125 C-19.42262451 771.1839209 -20.53274902 770.5553418 -21.67651367 769.90771484 C-30.07794011 765.13629942 -38.43033172 760.28095429 -46.76489258 755.39379883 C-54.4783054 750.87305074 -62.23155371 746.42513315 -70 742 C-79.6749961 736.48768825 -89.31282577 730.91575176 -98.921875 725.2890625 C-106.5857377 720.80833854 -114.28678835 716.39493248 -122 712 C-131.67481219 706.48736165 -141.31282137 700.91575433 -150.921875 695.2890625 C-158.58573974 690.80833735 -166.28685835 686.39505776 -174 682 C-183.72124506 676.46014067 -193.40894868 670.86625068 -203.06689453 665.21655273 C-213.59084625 659.06233258 -224.15380137 652.97630004 -234.71777344 646.89111328 C-240.14659942 643.76319852 -245.57319281 640.63141552 -251 637.5 C-253.16665583 636.24998121 -255.3333225 634.99998122 -257.5 633.75 C-285.66666667 617.5 -313.83333333 601.25 -342 585 C-342 455.64 -342 326.28 -342 193 C-332.76 187.72 -323.52 182.44 -314 177 C-306.4038307 172.62315959 -298.80851981 168.24508723 -291.21777344 163.85888672 C-285.81329351 160.73675393 -280.40649893 157.61863474 -275 154.5 C-273.92878906 153.88189453 -272.85757813 153.26378906 -271.75390625 152.62695312 C-266.31353925 149.48777626 -260.87237045 146.35000371 -255.4296875 143.21484375 C-244.93767906 137.16944841 -234.45518324 131.10889781 -224 125 C-212.45270484 118.25298806 -200.87097973 111.56660682 -189.28222656 104.89111328 C-183.85340058 101.76319852 -178.42680719 98.63141552 -173 95.5 C-170.83334417 94.24998121 -168.6666775 92.99998122 -166.5 91.75 C-165.4275 91.13125 -164.355 90.5125 -163.25 89.875 C-101.5 54.25 -101.5 54.25 -98.24951172 52.37475586 C-96.08442929 51.12564482 -93.91939018 49.87645871 -91.75439453 48.62719727 C-86.31384294 45.48797691 -80.87252784 42.35009437 -75.4296875 39.21484375 C-65.92806743 33.74010076 -56.42935804 28.26102775 -46.9609375 22.72900391 C-45.00122395 21.5846527 -43.04030207 20.44236803 -41.078125 19.30224609 C-36.27703225 16.51089459 -31.48936768 13.70085292 -26.73162842 10.83633423 C-24.36131045 9.4124815 -21.98325503 8.00188027 -19.60400391 6.59301758 C-17.91251818 5.58486151 -16.23149855 4.55921092 -14.55078125 3.53320312 C-13.52082031 2.92541016 -12.49085938 2.31761719 -11.4296875 1.69140625 C-10.52460449 1.14685791 -9.61952148 0.60230957 -8.68701172 0.04125977 C-5.27613955 -1.28050743 -3.49844426 -0.98851722 0 0 Z " fill="#616FE9" transform="translate(504,111)"/>
<path d="M0 0 C23.40171365 -0.09054639 46.80328388 -0.16412467 70.20512867 -0.20724869 C81.07277035 -0.22781055 91.94029488 -0.25580822 102.80786133 -0.30175781 C112.28801534 -0.34182188 121.76808443 -0.36747905 131.24832076 -0.37635398 C136.26081121 -0.38153581 141.27305888 -0.39357964 146.28547096 -0.42292023 C151.01903335 -0.45039978 155.75225675 -0.45838047 160.48589134 -0.45243073 C162.20820341 -0.45351661 163.93052876 -0.46127431 165.652771 -0.4768219 C181.16531281 -0.60979933 196.69448226 1.27953203 210.9375 7.8125 C211.72125 8.15869385 212.505 8.5048877 213.3125 8.86157227 C241.28234866 21.46125183 262.49676498 43.79311998 273.90136719 72.24902344 C283.43982854 98.59049574 283.61130188 129.6432797 271.84277344 155.28955078 C270.91976232 157.20661104 269.96967397 159.10614417 269 161 C268.69046387 161.60682617 268.38092773 162.21365234 268.06201172 162.83886719 C254.74815635 188.44402962 233.19745137 208.29792576 205.5 217.3125 C198.10448609 219.39020007 190.57285536 220.75429327 183 222 C181.60125877 222.24697789 181.60125877 222.24697789 180.17426014 222.49894524 C172.55273729 223.77912255 165.22800814 224.27866858 157.50854492 224.22705078 C155.7500547 224.22748886 155.7500547 224.22748886 153.95603943 224.22793579 C150.13077047 224.2265568 146.30570313 224.2110636 142.48046875 224.1953125 C139.80861583 224.19157727 137.13677368 224.18863416 134.46492004 224.18673706 C128.18252643 224.18055815 121.90020368 224.16419674 115.61784106 224.14403808 C107.75240251 224.11935567 99.88695208 224.10851271 92.02148438 224.09765625 C78.01426793 224.07826229 64.00720577 224.03818411 50 224 C50 262.94 50 301.88 50 342 C33.17 342 16.34 342 -1 342 C-1 285.9 -1 229.8 -1 172 C11.57738281 171.95101562 24.15476562 171.90203125 37.11328125 171.8515625 C45.08399123 171.81617475 53.05469395 171.78029402 61.02539062 171.7421875 C73.67519473 171.68180262 86.32498519 171.62342326 98.97485352 171.578125 C108.18835285 171.54512286 117.40179278 171.50524646 126.61522645 171.45720994 C131.49097717 171.43202656 136.36668891 171.4102214 141.24248695 171.39665604 C145.83811467 171.38376134 150.43360811 171.36162808 155.02916145 171.33261681 C156.70964856 171.32359865 158.39015725 171.31786438 160.07066727 171.31578636 C172.05855934 171.2983186 183.32505146 171.05677482 194.125 165.3125 C195.15282593 164.77641113 195.15282593 164.77641113 196.20141602 164.22949219 C210.45772331 156.61396508 220.4610415 144.96263525 225.57421875 129.53125 C227.33159868 123.55112466 227.49728938 117.82567704 227.4375 111.625 C227.42505249 109.96464722 227.42505249 109.96464722 227.41235352 108.27075195 C227.25229919 100.55795592 226.5827485 93.94223968 223 87 C222.51402344 86.00355469 222.02804687 85.00710938 221.52734375 83.98046875 C214.37064905 70.52994325 202.9284979 60.85695066 188.8125 55.125 C178.43577911 52.06301679 168.53936647 51.69447868 157.80029297 51.68115234 C156.07469723 51.67184063 154.34910596 51.66167013 152.6235199 51.65071106 C147.96517913 51.62353713 143.30686839 51.60829924 138.64846945 51.59528303 C133.77042309 51.57959703 128.89243756 51.55282438 124.01443481 51.5272522 C114.78893134 51.48056093 105.5634163 51.44377023 96.33785546 51.41057932 C85.82992604 51.37228956 75.32205785 51.32289744 64.81418014 51.27259517 C43.20949311 51.16941891 21.60478012 51.08157753 0 51 C0 34.17 0 17.34 0 0 Z " fill="#496EF5" transform="translate(365,333)"/>
<path d="M0 0 C0.33 0 0.66 0 1 0 C1.094124 11.76464578 1.16446675 23.52919705 1.20724869 35.29414749 C1.22781767 40.76150381 1.25554641 46.2285963 1.30175781 51.69580078 C1.84230446 117.42734584 -8.31496053 179.9301315 -36 240 C-36.59482178 241.31291016 -36.59482178 241.31291016 -37.20166016 242.65234375 C-52.40951397 276.16813784 -72.42653081 307.75085664 -96.68310547 335.47265625 C-97.98302185 336.98030862 -99.24386912 338.52136254 -100.50390625 340.0625 C-107.2284592 348.25957366 -114.58900292 355.80431514 -122.0625 363.3125 C-122.56929291 363.8244693 -123.07608582 364.3364386 -123.59823608 364.86392212 C-129.60484459 370.91884863 -135.73158196 376.57940651 -142.40966797 381.90405273 C-144.87963084 383.90260422 -147.24349549 385.97647766 -149.59765625 388.109375 C-154.02569492 392.08428918 -158.66524768 395.6994633 -163.4375 399.25 C-164.30076904 399.89404785 -165.16403809 400.5380957 -166.0534668 401.20166016 C-220.36213848 441.38878756 -283.70602827 468.34043966 -350.5 478.8125 C-352.35612915 479.10471436 -352.35612915 479.10471436 -354.24975586 479.40283203 C-372.78532196 482.16497574 -391.10123492 483.29552751 -409.83203125 483.1953125 C-411.93193932 483.19156891 -414.03184918 483.18872833 -416.13175964 483.18673706 C-421.58134025 483.17920634 -427.03080928 483.15965256 -432.48034668 483.1373291 C-438.0721689 483.11663913 -443.66400967 483.10768654 -449.25585938 483.09765625 C-460.17062116 483.07639346 -471.0853012 483.04239017 -482 483 C-482 482.67 -482 482.34 -482 482 C-481.15743652 481.96036133 -480.31487305 481.92072266 -479.44677734 481.87988281 C-386.44661711 477.32733947 -296.51930584 449.40158818 -215 394 C-214.38995117 393.58041016 -213.77990234 393.16082031 -213.15136719 392.72851562 C-193.88347918 379.39663991 -175.814431 364.52534828 -158.67919922 348.56152344 C-156.77187667 346.78786321 -154.85637708 345.02321112 -152.94140625 343.2578125 C-151.523071 341.94310362 -150.10509945 340.62800224 -148.6875 339.3125 C-148.02959473 338.70688232 -147.37168945 338.10126465 -146.69384766 337.47729492 C-142.73458627 333.78568641 -139.09243031 329.9454348 -135.59057617 325.81640625 C-134.01103076 324.01259691 -132.35489827 322.34645523 -130.625 320.6875 C-126.91253764 317.03278706 -123.69083874 313.04550476 -120.4296875 308.98828125 C-118.39788836 306.4893643 -116.32063202 304.04266664 -114.21069336 301.60986328 C-54.7770124 232.75761142 -18.6543839 144.7636729 0 0 Z " fill="#FDFDFD" transform="translate(999,517)"/>
<path d="M0 0 C0.33 0 0.66 0 1 0 C1.03963867 0.84256348 1.07927734 1.68512695 1.12011719 2.55322266 C5.67266053 95.55338289 33.59841182 185.48069416 89 267 C89.41958984 267.61004883 89.83917969 268.22009766 90.27148438 268.84863281 C103.60336009 288.11652082 118.47465172 306.185569 134.43847656 323.32080078 C136.21213679 325.22812333 137.97678888 327.14362292 139.7421875 329.05859375 C141.05689638 330.476929 142.37199776 331.89490055 143.6875 333.3125 C144.59592651 334.29935791 144.59592651 334.29935791 145.52270508 335.30615234 C149.21431359 339.26541373 153.0545652 342.90756969 157.18359375 346.40942383 C158.98740309 347.98896924 160.65354477 349.64510173 162.3125 351.375 C165.96721294 355.08746236 169.95449524 358.30916126 174.01171875 361.5703125 C176.5106357 363.60211164 178.95733336 365.67936798 181.39013672 367.78930664 C253.02993192 429.6292119 348.19202742 469.1774712 442 479 C443.27085449 479.13535156 444.54170898 479.27070312 445.85107422 479.41015625 C454.23123757 480.30157982 462.6142416 481.16268059 471 482 C471 482.33 471 482.66 471 483 C460.79997114 483.09438724 450.60005283 483.16459151 440.39966965 483.20724869 C435.65870046 483.22776406 430.91803844 483.25538288 426.17724609 483.30175781 C362.44592536 483.90811998 301.12866242 472.79037517 243 446 C241.68708984 445.40517822 241.68708984 445.40517822 240.34765625 444.79833984 C206.83186216 429.59048603 175.24914336 409.57346919 147.52734375 385.31689453 C146.01969138 384.01697815 144.47863746 382.75613088 142.9375 381.49609375 C134.74042634 374.7715408 127.19568486 367.41099708 119.6875 359.9375 C119.1755307 359.43070709 118.6635614 358.92391418 118.13607788 358.40176392 C112.08115137 352.39515541 106.42059349 346.26841804 101.09594727 339.59033203 C99.09739578 337.12036916 97.02352234 334.75650451 94.890625 332.40234375 C90.91571082 327.97430508 87.3005367 323.33475232 83.75 318.5625 C83.10595215 317.69923096 82.4619043 316.83596191 81.79833984 315.9465332 C41.61121244 261.63786152 14.65956034 198.29397173 4.1875 131.5 C3.99269043 130.26258057 3.79788086 129.02516113 3.59716797 127.75024414 C0.83502426 109.21467804 -0.29552751 90.89876508 -0.1953125 72.16796875 C-0.19156891 70.06806068 -0.18872833 67.96815082 -0.18673706 65.86824036 C-0.17920634 60.41865975 -0.15965256 54.96919072 -0.1373291 49.51965332 C-0.11663913 43.9278311 -0.10768654 38.33599033 -0.09765625 32.74414062 C-0.07639346 21.82937884 -0.04239017 10.9146988 0 0 Z " fill="#FDFDFD" transform="translate(0,517)"/>
<path d="M0 0 C11.76464578 -0.094124 23.52919705 -0.16446675 35.29414749 -0.20724869 C40.76150381 -0.22781767 46.2285963 -0.25554641 51.69580078 -0.30175781 C117.42734584 -0.84230446 179.9301315 9.31496053 240 37 C240.87527344 37.39654785 241.75054688 37.7930957 242.65234375 38.20166016 C276.16813784 53.40951397 307.75085664 73.42653081 335.47265625 97.68310547 C336.98030862 98.98302185 338.52136254 100.24386912 340.0625 101.50390625 C348.25957366 108.2284592 355.80431514 115.58900292 363.3125 123.0625 C363.8244693 123.56929291 364.3364386 124.07608582 364.86392212 124.59823608 C370.91884863 130.60484459 376.57940651 136.73158196 381.90405273 143.40966797 C383.90260422 145.87963084 385.97647766 148.24349549 388.109375 150.59765625 C392.08428918 155.02569492 395.6994633 159.66524768 399.25 164.4375 C399.89404785 165.30076904 400.5380957 166.16403809 401.20166016 167.0534668 C441.38878756 221.36213848 468.34043966 284.70602827 478.8125 351.5 C479.10471436 353.35612915 479.10471436 353.35612915 479.40283203 355.24975586 C482.03132512 372.88844979 483.3053743 390.38025611 483.1953125 408.20703125 C483.19156651 410.03789615 483.18872708 411.86876309 483.18673706 413.69963074 C483.1792251 418.43901443 483.1596892 423.17826877 483.1373291 427.91760254 C483.11659698 432.78554537 483.10767783 437.6535098 483.09765625 442.52148438 C483.07642692 452.01437869 483.0424485 461.50717845 483 471 C482.67 471 482.34 471 482 471 C481.93006836 470.2786084 481.86013672 469.5572168 481.78808594 468.81396484 C479.11756214 441.52911159 476.08867753 414.54781966 469.67431641 387.84423828 C469.09973718 385.42068722 468.55848329 382.99520991 468.04296875 380.55859375 C450.41262364 298.36741249 405.42019608 220.76535961 348.49658203 159.61425781 C346.86288344 157.85210201 345.2418801 156.07872348 343.62109375 154.3046875 C336.40541251 146.44182865 328.96261875 139.10380102 321 132 C319.98860885 131.06756748 318.97951751 130.13263468 317.97265625 129.1953125 C311.52309666 123.19294727 304.90541875 117.47611761 298 112 C297.38479492 111.50693359 296.76958984 111.01386719 296.13574219 110.50585938 C221.56639212 50.83594887 130.09432743 12.9117886 0 1 C0 0.67 0 0.34 0 0 Z " fill="#FDFDFD" transform="translate(517,0)"/>
<path d="M0 0 C1.8308649 0.00374599 3.66173184 0.00658542 5.49259949 0.00857544 C10.23198318 0.0160874 14.97123752 0.0356233 19.71057129 0.0579834 C24.57851412 0.07871552 29.44647855 0.08763467 34.31445312 0.09765625 C43.80734744 0.11888558 53.3001472 0.152864 62.79296875 0.1953125 C62.79296875 0.5253125 62.79296875 0.8553125 62.79296875 1.1953125 C61.71088135 1.30020996 61.71088135 1.30020996 60.60693359 1.40722656 C33.32208034 4.07775036 6.34078841 7.10663497 -20.36279297 13.52099609 C-22.78634403 14.09557532 -25.21182134 14.63682921 -27.6484375 15.15234375 C-109.84675311 32.7842192 -187.45167398 77.78126444 -248.60595703 134.71191406 C-250.32768137 136.30709507 -252.06174252 137.88816933 -253.796875 139.46875 C-267.27820167 151.810859 -279.50547851 165.16782087 -291.20703125 179.1953125 C-291.72620117 179.81486816 -292.24537109 180.43442383 -292.78027344 181.07275391 C-353.99957773 254.36844983 -394.25533955 347.15379705 -404.20703125 442.1953125 C-404.34238281 443.46616699 -404.47773438 444.73702148 -404.6171875 446.04638672 C-405.50861107 454.42655007 -406.36971184 462.8095541 -407.20703125 471.1953125 C-407.53703125 471.1953125 -407.86703125 471.1953125 -408.20703125 471.1953125 C-408.30141849 460.99528364 -408.37162276 450.79536533 -408.41427994 440.59498215 C-408.43479531 435.85401296 -408.46241413 431.11335094 -408.50878906 426.37255859 C-409.11515123 362.64123786 -397.99740642 301.32397492 -371.20703125 243.1953125 C-370.8104834 242.32003906 -370.41393555 241.44476563 -370.00537109 240.54296875 C-354.79751728 207.02717466 -334.78050044 175.44445586 -310.52392578 147.72265625 C-309.2240094 146.21500388 -307.96316213 144.67394996 -306.703125 143.1328125 C-299.97857205 134.93573884 -292.61802833 127.39099736 -285.14453125 119.8828125 C-284.63773834 119.3708432 -284.13094543 118.8588739 -283.60879517 118.33139038 C-277.60218666 112.27646387 -271.47544929 106.61590599 -264.79736328 101.29125977 C-262.32740041 99.29270828 -259.96353576 97.21883484 -257.609375 95.0859375 C-253.18133633 91.11102332 -248.54178357 87.4958492 -243.76953125 83.9453125 C-242.90626221 83.30126465 -242.04299316 82.6572168 -241.15356445 81.99365234 C-186.84489277 41.80652494 -123.50100298 14.85487284 -56.70703125 4.3828125 C-55.46961182 4.18800293 -54.23219238 3.99319336 -52.95727539 3.79248047 C-35.31858146 1.16398738 -17.82677514 -0.1100618 0 0 Z " fill="#FDFDFE" transform="translate(408.20703125,-0.1953125)"/>
<path d="M0 0 C1.78588867 2.32226562 1.78588867 2.32226562 3.41796875 5.40625 C4.02697021 6.53345459 4.63597168 7.66065918 5.26342773 8.82202148 C5.90481289 10.04799981 6.54616968 11.27399298 7.1875 12.5 C7.86003219 13.75377568 8.53460713 15.00645769 9.21118164 16.25805664 C10.22158892 18.12752203 11.23091967 19.99745283 12.23399353 21.87086487 C14.69300714 26.46235536 17.25842774 30.97180043 19.9375 35.4375 C27.13537409 47.52173576 34.04714743 59.77378146 41 72 C41.79059814 73.38880371 41.79059814 73.38880371 42.59716797 74.80566406 C43.90092413 77.09803151 45.20148699 79.39215959 46.5 81.6875 C46.86746338 82.33404541 47.23492676 82.98059082 47.61352539 83.64672852 C50 87.88294384 50 87.88294384 50 89 C42.48239239 89.39583307 34.96587318 89.69686066 27.44018745 89.88080692 C23.94366109 89.96917187 20.45430696 90.08861439 16.96191406 90.2824707 C-5.43435745 91.49262259 -5.43435745 91.49262259 -11.1585083 87.49105835 C-14.65080918 83.59478928 -16.47556656 79.11133973 -18.17962646 74.21731567 C-19.39130184 70.94238459 -21.09850319 68.18295487 -22.9140625 65.19921875 C-24.15213565 63.02926964 -25.38909864 60.85868679 -26.625 58.6875 C-27.29894647 57.50570625 -27.97302212 56.32398616 -28.6472168 55.14233398 C-30.0474001 52.68796172 -31.44703879 50.23328028 -32.84619141 47.77832031 C-36.1462374 41.98849486 -39.45014209 36.20087371 -42.75531006 30.41397095 C-43.79066904 28.60073286 -44.82529941 26.78708051 -45.85986328 24.97338867 C-46.49005371 23.86970947 -47.12024414 22.76603027 -47.76953125 21.62890625 C-48.32229736 20.66025635 -48.87506348 19.69160645 -49.44458008 18.69360352 C-50.49868995 16.86814532 -51.5858024 15.06142204 -52.7019043 13.27319336 C-54 11 -54 11 -54 9 C-53.00226562 8.92523437 -52.00453125 8.85046875 -50.9765625 8.7734375 C-41.19166859 7.91904411 -31.75605569 6.22253825 -22.1875 4 C-20.49778076 3.60820557 -20.49778076 3.60820557 -18.77392578 3.20849609 C-12.99980332 1.89339408 -12.99980332 1.89339408 -7.46606445 -0.15234375 C-4.41504836 -1.20106446 -2.99689457 -1.201805 0 0 Z " fill="#3A6FFC" transform="translate(594,582)"/>
<path d="M0 0 C2.02427188 1.01032099 4.01052996 2.09850812 5.96484375 3.23828125 C7.09470703 3.89376953 8.22457031 4.54925781 9.38867188 5.22460938 C9.97189209 5.5677417 10.5551123 5.91087402 11.15600586 6.2644043 C12.92486157 7.30506451 14.69906155 8.33604188 16.47460938 9.36523438 C19.66292012 11.22371978 22.84579036 13.08418032 26 15 C27.1036792 15.54197021 28.2073584 16.08394043 29.34448242 16.64233398 C32.26162152 19.23227719 32.41116306 19.56325737 32.68115234 23.21777344 C32.68020562 24.93193421 32.64648503 26.64628363 32.5859375 28.359375 C32.57744781 29.26375305 32.56895813 30.1681311 32.56021118 31.09991455 C32.52666085 33.98449557 32.45138076 36.86626621 32.375 39.75 C32.34490241 41.70699084 32.31752624 43.66402555 32.29296875 45.62109375 C32.22686431 50.41514302 32.12333286 55.20709531 32 60 C30.95739014 60.58442871 29.91478027 61.16885742 28.84057617 61.77099609 C19.72559037 66.87919759 19.72559037 66.87919759 10.67578125 72.1015625 C9.93779297 72.52824219 9.19980469 72.95492187 8.43945312 73.39453125 C6.9723201 74.24328589 5.51171508 75.10339099 4.05664062 75.97265625 C3.33283203 76.38644531 2.60902344 76.80023438 1.86328125 77.2265625 C1.23719971 77.59346191 0.61111816 77.96036133 -0.03393555 78.33837891 C-3.79263131 79.60325728 -6.5361784 78.22437469 -9.98266602 76.55712891 C-11.06217529 75.95304199 -12.14168457 75.34895508 -13.25390625 74.7265625 C-13.83663803 74.40215179 -14.41936981 74.07774109 -15.01976013 73.74349976 C-16.24600597 73.05909255 -17.47043231 72.37141623 -18.69311523 71.68066406 C-20.55626416 70.62852145 -22.4249877 69.58690147 -24.29492188 68.546875 C-30.83979855 64.88470985 -30.83979855 64.88470985 -34 63 C-34.77819092 62.6275415 -35.55638184 62.25508301 -36.3581543 61.87133789 C-39.20582236 58.62563147 -38.48548676 54.66968678 -38.390625 50.51953125 C-38.38496521 49.59154221 -38.37930542 48.66355316 -38.37347412 47.70744324 C-38.35107376 44.74193854 -38.30087073 41.7776398 -38.25 38.8125 C-38.22993973 36.80275182 -38.21168813 34.79298471 -38.1953125 32.78320312 C-38.15119696 27.85500371 -38.08214424 22.92770635 -38 18 C-37.28457031 17.60208252 -36.56914063 17.20416504 -35.83203125 16.79418945 C-33.13986267 15.29551702 -30.44874861 13.79497195 -27.75830078 12.29321289 C-26.03627108 11.33273062 -24.31306956 10.37435026 -22.58984375 9.41601562 C-21.48769531 8.80048828 -20.38554688 8.18496094 -19.25 7.55078125 C-18.17234375 6.94959473 -17.0946875 6.3484082 -15.984375 5.72900391 C-12.80035368 3.88433448 -9.7635246 1.893114 -6.78125 -0.26098633 C-4.15820683 -1.34924725 -2.69153278 -0.83783892 0 0 Z " fill="#B20CF9" transform="translate(806,286)"/>
</svg>
