<svg width="18" height="22" viewBox="0 0 18 22" fill="none" xmlns="http://www.w3.org/2000/svg">
<path d="M17.1848 13.0595L9.30978 20.9345C9.26914 20.9752 9.22089 21.0075 9.16778 21.0295C9.11467 21.0515 9.05774 21.0628 9.00024 21.0628C8.94275 21.0628 8.88582 21.0515 8.83271 21.0295C8.7796 21.0075 8.73135 20.9752 8.69071 20.9345L0.815712 13.0595C0.733619 12.9774 0.6875 12.8661 0.6875 12.75C0.6875 12.6339 0.733619 12.5226 0.815712 12.4405C0.897805 12.3584 1.00915 12.3123 1.12524 12.3123C1.24134 12.3123 1.35268 12.3584 1.43477 12.4405L8.56274 19.5684V1.375C8.56274 1.25897 8.60884 1.14769 8.69088 1.06564C8.77293 0.983594 8.88421 0.9375 9.00024 0.9375C9.11628 0.9375 9.22756 0.983594 9.3096 1.06564C9.39165 1.14769 9.43774 1.25897 9.43774 1.375V19.5684L16.5657 12.4405C16.6478 12.3584 16.7591 12.3123 16.8752 12.3123C16.9913 12.3123 17.1027 12.3584 17.1848 12.4405C17.2669 12.5226 17.313 12.6339 17.313 12.75C17.313 12.8661 17.2669 12.9774 17.1848 13.0595Z" fill="white"/>
</svg>
