<svg xmlns="http://www.w3.org/2000/svg" width="20" height="20" viewBox="0 0 20 20" fill="none">
  <path d="M17.8047 11.2688C17.6094 11.1184 17.3819 11.0152 17.1402 10.9674C16.8984 10.9196 16.6488 10.9283 16.4109 10.993L12.5586 11.875C12.7249 11.5906 12.8126 11.267 12.8125 10.9375C12.8125 10.4402 12.615 9.96331 12.2633 9.61167C11.9117 9.26004 11.4348 9.0625 10.9375 9.0625H7.02656C6.73916 9.06162 6.45444 9.11779 6.18891 9.22776C5.92338 9.33773 5.68231 9.49931 5.47969 9.70312L3.62031 11.5625H1.25C1.00136 11.5625 0.762903 11.6613 0.587087 11.8371C0.411272 12.0129 0.3125 12.2514 0.3125 12.5V15.625C0.3125 15.8736 0.411272 16.1121 0.587087 16.2879C0.762903 16.4637 1.00136 16.5625 1.25 16.5625H9.375C9.40133 16.5627 9.42758 16.5595 9.45312 16.5531L14.4531 15.3031C14.4691 15.2989 14.4847 15.2937 14.5 15.2875L17.5328 13.9953L17.55 13.9875C17.7944 13.8654 18.0036 13.683 18.158 13.4577C18.3124 13.2323 18.407 12.9714 18.4327 12.6994C18.4584 12.4275 18.4144 12.1534 18.305 11.9031C18.1955 11.6528 18.0242 11.4345 17.807 11.2688H17.8047ZM0.9375 15.625V12.5C0.9375 12.4171 0.970424 12.3376 1.02903 12.279C1.08763 12.2204 1.16712 12.1875 1.25 12.1875H3.4375V15.9375H1.25C1.16712 15.9375 1.08763 15.9046 1.02903 15.846C0.970424 15.7874 0.9375 15.7079 0.9375 15.625ZM17.2758 13.4242L14.275 14.7031L9.33672 15.9375H4.0625V12.0047L5.92188 10.1453C6.06657 9.99972 6.23872 9.88429 6.42834 9.80571C6.61797 9.72712 6.8213 9.68694 7.02656 9.6875H10.9375C11.269 9.6875 11.587 9.8192 11.8214 10.0536C12.0558 10.288 12.1875 10.606 12.1875 10.9375C12.1875 11.269 12.0558 11.587 11.8214 11.8214C11.587 12.0558 11.269 12.1875 10.9375 12.1875H8.75C8.66712 12.1875 8.58763 12.2204 8.52903 12.279C8.47042 12.3376 8.4375 12.4171 8.4375 12.5C8.4375 12.5829 8.47042 12.6624 8.52903 12.721C8.58763 12.7796 8.66712 12.8125 8.75 12.8125H11.25C11.2737 12.8126 11.2972 12.8099 11.3203 12.8047L16.5547 11.6008H16.5672C16.8017 11.5386 17.051 11.5652 17.2671 11.6756C17.4832 11.7859 17.651 11.9722 17.7381 12.1986C17.8253 12.4251 17.8258 12.6758 17.7394 12.9025C17.6531 13.1293 17.486 13.3162 17.2703 13.4273L17.2758 13.4242ZM12.8125 7.1875C13.0431 7.18785 13.2726 7.1563 13.4945 7.09375C13.6009 7.58341 13.8519 8.02981 14.2151 8.37506C14.5782 8.7203 15.0367 8.94846 15.5311 9.02992C16.0255 9.11138 16.533 9.0424 16.9877 8.83191C17.4425 8.62143 17.8234 8.27916 18.0813 7.8495C18.3391 7.41985 18.4618 6.92263 18.4336 6.42235C18.4054 5.92207 18.2275 5.44182 17.923 5.04389C17.6185 4.64596 17.2014 4.34872 16.7259 4.19072C16.2504 4.03272 15.7384 4.02125 15.2563 4.15781C15.1563 3.6968 14.928 3.27347 14.5976 2.93673C14.2673 2.59999 13.8484 2.36359 13.3894 2.25484C12.9303 2.14609 12.4499 2.16943 12.0036 2.32216C11.5573 2.47489 11.1633 2.75077 10.8671 3.11794C10.571 3.48511 10.3847 3.92858 10.3299 4.39712C10.2751 4.86565 10.354 5.34012 10.5575 5.76572C10.7609 6.19132 11.0806 6.55067 11.4797 6.80226C11.8787 7.05385 12.3408 7.1874 12.8125 7.1875ZM17.8125 6.5625C17.8125 6.93334 17.7025 7.29585 17.4965 7.60419C17.2905 7.91254 16.9976 8.15286 16.655 8.29477C16.3124 8.43669 15.9354 8.47382 15.5717 8.40147C15.208 8.32913 14.8739 8.15055 14.6117 7.88833C14.3495 7.6261 14.1709 7.29201 14.0985 6.92829C14.0262 6.56458 14.0633 6.18758 14.2052 5.84497C14.3471 5.50236 14.5875 5.20952 14.8958 5.00349C15.2041 4.79747 15.5667 4.6875 15.9375 4.6875C16.4348 4.6875 16.9117 4.88504 17.2633 5.23667C17.615 5.58831 17.8125 6.06522 17.8125 6.5625ZM12.8125 2.8125C13.2619 2.81245 13.6964 2.97381 14.0368 3.26719C14.3772 3.56057 14.6009 3.96646 14.6672 4.41094C14.3082 4.62218 14.0076 4.91979 13.7929 5.27671C13.5781 5.63363 13.456 6.03855 13.4375 6.45469C13.18 6.546 12.9057 6.57993 12.6337 6.55411C12.3617 6.52829 12.0986 6.44335 11.8629 6.30522C11.6272 6.16709 11.4245 5.97912 11.269 5.75447C11.1136 5.52981 11.0091 5.27389 10.9629 5.00461C10.9167 4.73534 10.9299 4.45923 11.0015 4.19559C11.0732 3.93195 11.2016 3.68716 11.3778 3.47836C11.554 3.26955 11.7737 3.10176 12.0215 2.98675C12.2693 2.87173 12.5393 2.81226 12.8125 2.8125Z" fill="#E8C617"/>
</svg>