<svg width="18" height="25" viewBox="0 0 18 25" fill="none" xmlns="http://www.w3.org/2000/svg">
<path d="M17.5 6C17.5 6.13261 17.4473 6.25979 17.3536 6.35355C17.2598 6.44732 17.1326 6.5 17 6.5H12.4275C12.4751 6.83122 12.4993 7.16538 12.5 7.5C12.498 9.35591 11.7599 11.1352 10.4476 12.4476C9.13523 13.7599 7.35591 14.498 5.5 14.5H2.29375L12.3363 23.625C12.3857 23.6689 12.426 23.7222 12.4548 23.7818C12.4835 23.8414 12.5002 23.9061 12.5037 23.9722C12.5073 24.0382 12.4977 24.1044 12.4755 24.1667C12.4533 24.229 12.419 24.2863 12.3745 24.3353C12.33 24.3843 12.2762 24.4239 12.2163 24.4519C12.1563 24.48 12.0914 24.4958 12.0253 24.4986C11.9592 24.5014 11.8932 24.491 11.8311 24.468C11.7691 24.4451 11.7122 24.4101 11.6637 24.365L0.66375 14.365C0.590866 14.2968 0.540074 14.2083 0.517915 14.111C0.495755 14.0136 0.503243 13.9119 0.539414 13.8188C0.575586 13.7258 0.638783 13.6457 0.72087 13.5889C0.802957 13.532 0.900173 13.5011 1 13.5H5.5C6.37247 13.4998 7.2344 13.3094 8.02573 12.942C8.81705 12.5746 9.51873 12.039 10.0818 11.3726C10.645 10.7062 11.056 9.92496 11.2862 9.08343C11.5165 8.24189 11.5604 7.36026 11.415 6.5H1C0.867392 6.5 0.740214 6.44732 0.646446 6.35355C0.552678 6.25979 0.5 6.13261 0.5 6C0.5 5.86739 0.552678 5.74021 0.646446 5.64645C0.740214 5.55268 0.867392 5.5 1 5.5H11.1562C10.7413 4.3312 9.97493 3.31938 8.96229 2.60325C7.94964 1.88713 6.74028 1.50177 5.5 1.5H1C0.867392 1.5 0.740214 1.44732 0.646446 1.35355C0.552678 1.25979 0.5 1.13261 0.5 1C0.5 0.867392 0.552678 0.740215 0.646446 0.646447C0.740214 0.552679 0.867392 0.5 1 0.5H17C17.1326 0.5 17.2598 0.552679 17.3536 0.646447C17.4473 0.740215 17.5 0.867392 17.5 1C17.5 1.13261 17.4473 1.25979 17.3536 1.35355C17.2598 1.44732 17.1326 1.5 17 1.5H9.10125C10.5977 2.40111 11.705 3.82706 12.2075 5.5H17C17.1326 5.5 17.2598 5.55268 17.3536 5.64645C17.4473 5.74021 17.5 5.86739 17.5 6Z" fill="white"/>
</svg>
