<svg xmlns="http://www.w3.org/2000/svg" width="24" height="24" viewBox="0 0 24 24" fill="none">
  <path d="M13.6563 14.3127L23.2926 23.8799C23.4539 24.04 23.7178 24.04 23.879 23.8799C24.0403 23.7198 24.0403 23.4578 23.8791 23.2977L14.2538 13.7414C17.274 10.5389 17.2154 5.49513 14.0668 2.36913C10.9183 -0.756866 5.62544 -0.822381 2.4109 2.36912C-0.803641 5.56062 -0.803629 10.75 2.41091 13.9415C5.62545 17.133 10.4271 17.1184 13.66 14.309L13.6563 14.3127ZM2.99001 2.95137C5.882 0.08011 10.5884 0.0801323 13.4804 2.95139C16.3723 5.82265 16.3723 10.4952 13.4803 13.3665C10.5883 16.2378 5.88202 16.2378 2.99004 13.3665C0.0980501 10.4953 0.0980273 5.82263 2.99001 2.95137Z" fill="white"/>
  <path d="M13.5758 11.729C13.737 11.5689 13.7371 11.3069 13.5758 11.1468C13.4145 10.9867 13.1506 10.9867 12.9893 11.1468C11.2519 12.8717 9.19195 13.4612 6.87543 12.9008C5.10505 12.475 3.83685 11.5071 3.82219 11.4998C3.63892 11.3615 3.38602 11.3943 3.24307 11.5726C3.10379 11.7545 3.13678 12.0056 3.31638 12.1476C3.37136 12.1876 8.9024 16.3689 13.5758 11.729Z" fill="white"/>
</svg>