<svg width="140" height="140" viewBox="0 0 140 140" fill="none" xmlns="http://www.w3.org/2000/svg">
<path fill-rule="evenodd" clip-rule="evenodd" d="M97.7401 0.0166509C100.207 0.0471983 102.187 0.154114 103.146 0.306851C103.983 0.42904 105.354 0.688693 106.191 0.856704C107.029 1.03999 108.506 1.42183 109.465 1.71203C110.425 1.98696 111.902 2.49099 112.739 2.82701C113.577 3.14776 114.78 3.66706 115.404 3.95726C116.028 4.24746 117.201 4.84314 117.993 5.28607C118.784 5.74428 120.124 6.56906 120.962 7.11892C121.799 7.68404 123.033 8.58519 123.703 9.10449C124.373 9.63907 125.5 10.6013 126.2 11.2275C126.901 11.869 128.104 13.0757 128.85 13.9157C129.611 14.7558 130.845 16.2831 131.606 17.3065C132.367 18.3145 133.494 20.0099 134.088 21.0485C134.697 22.0719 135.611 23.8589 136.128 24.9891C136.646 26.1194 137.392 28.0439 137.803 29.2658C138.199 30.4877 138.702 32.2747 138.915 33.2369C139.128 34.1992 139.402 35.6807 139.539 36.5208C139.661 37.3608 139.844 39.1478 139.92 40.4919C140.027 42.1568 140.027 43.7147 139.92 45.3795C139.844 46.7236 139.661 48.5106 139.539 49.3507C139.402 50.1907 139.128 51.6723 138.915 52.6345C138.702 53.5967 138.199 55.3838 137.788 56.6057C137.392 57.8276 136.677 59.6757 136.205 60.7296C135.733 61.7834 134.971 63.2955 134.53 64.0898C134.073 64.884 133.311 66.1212 132.839 66.839C132.352 67.5569 131.408 68.8552 130.723 69.7258C130.053 70.6116 128.637 72.1848 127.586 73.254C126.535 74.3079 124.967 75.7436 124.084 76.4615C123.2 77.164 121.723 78.2332 120.81 78.8442C119.896 79.4398 118.526 80.2799 117.764 80.7075C117.003 81.1199 115.541 81.8378 114.49 82.296C113.44 82.7695 111.628 83.4568 110.455 83.8386C109.283 84.2205 107.531 84.7093 106.572 84.9231C105.613 85.1369 104.105 85.4118 103.222 85.5493C102.339 85.6868 100.177 85.8395 98.4254 85.8853C96.4153 85.9464 94.4967 85.9006 93.248 85.7937C92.1669 85.6868 90.3701 85.4424 89.2889 85.2438C88.2078 85.03 86.4109 84.6329 83.3502 83.7928L79.3911 87.7487C76.5283 90.6202 75.2492 91.8115 74.7467 92.0254C74.092 92.3308 73.757 92.3461 62.108 92.3461L62.0775 98.5014C62.0319 104.458 62.0166 104.657 61.6969 105.252C61.5293 105.588 61.1791 106.047 60.9355 106.276C60.7071 106.505 60.2502 106.795 59.9457 106.917C59.4584 107.131 58.4839 107.162 48.251 107.162L48.1749 118.388L47.7485 119.121C47.4592 119.625 47.109 119.976 45.7385 120.755H32.5668V128.896C32.5668 134.364 32.5059 137.22 32.3993 137.633C32.2927 138.014 31.9577 138.518 31.5161 138.946C31.0898 139.389 30.5872 139.725 30.2066 139.832C29.7802 139.954 25.547 140 16.2735 140C7.09136 140 2.76677 139.939 2.34041 139.832C1.95972 139.725 1.47244 139.404 1.04608 138.961C0.589254 138.488 0.284706 137.999 0.162887 137.556C0.0106126 137.022 -0.0198423 133.891 0.0106126 123.657C0.0562948 111.148 0.0715222 110.415 0.330388 109.911C0.49789 109.621 12.9844 96.974 55.5907 54.2382L55.1338 51.8708C54.875 50.5726 54.5704 48.7855 54.4638 47.8997C54.342 46.968 54.2659 44.7991 54.2811 42.7066C54.2811 40.1406 54.3572 38.598 54.5552 37.2845C54.6922 36.2764 54.9968 34.6268 55.21 33.6188C55.4232 32.6107 55.8952 30.8237 56.2759 29.6476C56.6566 28.4715 57.3418 26.654 57.7986 25.6001C58.2555 24.5462 59.0016 23.0036 59.4736 22.1635C59.9305 21.3234 60.768 19.9488 61.3314 19.1088C61.8796 18.2687 62.8694 16.8941 63.5394 16.054C64.1941 15.214 65.6712 13.595 66.8133 12.4647C67.9553 11.3192 69.4628 9.92927 70.1785 9.34887C70.8942 8.78375 72.4017 7.69932 73.5285 6.93563C74.6554 6.18722 76.6806 5.02642 78.0206 4.36965C79.3606 3.71288 81.3554 2.84228 82.4366 2.46044C83.5177 2.06332 85.345 1.51347 86.4718 1.22327C87.5987 0.933072 89.4869 0.566504 90.6594 0.398493C91.8319 0.230483 93.0349 0.062472 93.3242 0.0319246C93.6135 0.00137723 95.6083 -0.0138965 97.7401 0.0166509ZM91.6492 7.36329C90.766 7.50076 89.1214 7.83678 87.9946 8.12698C86.8678 8.41718 85.1471 8.96703 84.1877 9.34887C83.2284 9.73072 81.6448 10.4486 80.6854 10.9373C79.7261 11.4261 78.2186 12.312 77.3354 12.9076C76.4522 13.488 75.2645 14.3586 74.6706 14.8321C74.0767 15.2903 72.9195 16.3442 72.0972 17.169C71.2597 17.9785 70.0567 19.2768 69.4324 20.0252C68.808 20.7736 67.7574 22.2246 67.0874 23.2327C66.4173 24.2407 65.4428 25.9514 64.9251 27.0511C64.3921 28.1508 63.7069 29.724 63.4023 30.564C63.0825 31.4041 62.6105 32.9773 62.3364 34.077C62.0623 35.1767 61.7121 36.8873 61.5598 37.8954C61.3618 39.2242 61.2857 40.6141 61.2857 42.9357C61.2857 45.2573 61.3618 46.6472 61.5598 47.976C61.7121 48.9841 62.0623 50.71 62.3364 51.7945C62.6105 52.8789 63.0978 54.4673 63.4023 55.3074C63.7069 56.1475 64.3921 57.7359 64.9251 58.8203C65.458 59.9048 66.4326 61.6307 67.0874 62.6388C67.7574 63.6468 68.808 65.0978 69.4476 65.8462C70.0719 66.5947 71.3663 67.9846 72.3256 68.901C73.2849 69.8327 74.7163 71.0698 75.5081 71.6655C76.2999 72.2765 77.579 73.1318 78.3252 73.59C79.0866 74.0635 80.2591 74.7203 80.9595 75.0716C81.6448 75.4076 82.9848 76.0032 83.9289 76.3698C84.8577 76.7364 86.213 77.2099 86.9287 77.439C87.6444 77.6528 88.6646 77.9277 89.2128 78.0499C89.761 78.1721 90.9639 78.4012 91.8776 78.554C93.1719 78.7678 94.3749 78.8289 97.131 78.8289C99.8872 78.8289 101.09 78.7678 102.384 78.554C103.298 78.4012 104.608 78.1416 105.278 77.9888C105.948 77.8361 107.181 77.4848 108.019 77.2099C108.856 76.9502 110.257 76.4156 111.14 76.0491C112.023 75.6825 113.318 75.0716 114.033 74.6744C114.749 74.2926 115.983 73.5595 116.774 73.0402C117.566 72.5056 118.769 71.6502 119.439 71.1157C120.109 70.5811 121.266 69.5425 122.013 68.8246C122.759 68.1067 123.901 66.8696 124.571 66.0753C125.241 65.2811 126.337 63.7996 127.007 62.7915C127.677 61.7834 128.743 59.9201 129.352 58.6676C129.961 57.4152 130.768 55.4449 131.149 54.3146C131.53 53.1844 132.002 51.3973 132.215 50.3435C132.428 49.2896 132.672 47.808 132.778 47.0596C132.87 46.3112 132.946 44.4478 132.946 42.9357C132.946 41.4236 132.87 39.5602 132.778 38.8118C132.672 38.0634 132.428 36.5819 132.215 35.528C132.002 34.4741 131.53 32.6871 131.149 31.5568C130.768 30.4266 129.961 28.4563 129.352 27.2038C128.728 25.9514 127.753 24.1949 127.175 23.309C126.596 22.4232 125.561 21.018 124.891 20.1779C124.221 19.3379 122.987 17.9938 122.165 17.1995C121.327 16.39 120.109 15.2903 119.439 14.7558C118.769 14.2212 117.505 13.32 116.622 12.7396C115.739 12.1592 114.064 11.2123 112.891 10.6319C111.719 10.0515 109.739 9.22668 108.475 8.8143C107.227 8.38663 105.339 7.8826 104.288 7.66877C103.237 7.45494 101.714 7.21056 100.907 7.13419C100.085 7.04255 98.2731 6.98145 96.8722 6.99673C95.456 6.99673 94.0703 7.04255 93.781 7.07309C93.4917 7.10364 92.5323 7.22583 91.6492 7.36329ZM6.90863 113.042L6.98477 132.974H25.5622V116.555C26.2474 115.18 26.6281 114.722 27.0088 114.447C27.3438 114.218 27.892 113.958 28.227 113.882C28.562 113.806 31.6227 113.729 35.0337 113.729H41.2464C41.2464 105.451 41.3073 102.885 41.3987 102.579C41.4748 102.289 41.7642 101.77 42.0383 101.449C42.3124 101.128 42.8149 100.716 43.1499 100.533C43.7285 100.227 44.0026 100.212 49.4236 100.181L55.1034 100.136L55.1186 87.8404C55.7582 86.6948 56.1845 86.2061 56.4738 85.9922C56.7632 85.7937 57.2504 85.5646 57.5398 85.4729C57.8595 85.3813 60.7223 85.3202 64.9251 85.3202H71.7774L76.4065 80.6617C74.229 79.394 72.9499 78.5692 72.1581 77.9888C71.3663 77.4237 70.0567 76.4004 69.2649 75.7283C68.473 75.0716 67.133 73.8038 66.2955 72.9332C65.458 72.0626 64.3616 70.8255 63.8439 70.1992C63.3414 69.573 62.58 68.5802 62.1537 67.9846C61.7273 67.4042 61.0116 66.3045 60.5548 65.5408C60.098 64.7924 59.3975 63.5705 59.0016 62.8526L58.3011 61.5391L6.90863 113.042ZM97.5879 28.7159C98.867 28.7617 99.8872 28.8839 100.709 29.0978C101.379 29.281 102.506 29.7087 103.222 30.0447C103.922 30.3807 104.927 30.9459 105.43 31.3124C105.932 31.679 106.816 32.4732 107.41 33.0995C107.988 33.7104 108.795 34.7337 109.191 35.3752C109.587 36.0015 110.15 37.1623 110.425 37.9718C110.714 38.766 111.034 39.9268 111.14 40.5683C111.247 41.2709 111.293 42.447 111.247 43.623C111.186 45.074 111.064 45.853 110.76 46.9069C110.531 47.6553 110.105 48.755 109.815 49.3507C109.526 49.9311 108.993 50.8322 108.628 51.3362C108.277 51.8403 107.486 52.7109 106.892 53.276C106.298 53.8411 105.415 54.559 104.927 54.8645C104.455 55.1852 103.572 55.6587 102.994 55.9336C102.4 56.2085 101.303 56.5904 100.557 56.7737C99.4456 57.0639 98.7756 57.125 97.0549 57.1097C95.5474 57.1097 94.6033 57.0333 93.8571 56.85C93.2633 56.6973 92.2735 56.3766 91.6492 56.1169C91.0096 55.8725 89.9589 55.2921 89.2889 54.8645C88.6189 54.4215 87.69 53.6884 87.218 53.2302C86.7459 52.772 86.0455 51.9472 85.6343 51.4126C85.2384 50.8628 84.6902 49.9616 84.4161 49.427C84.1421 48.8772 83.7461 47.8844 83.533 47.2123C83.3198 46.5403 83.0609 45.3031 82.9695 44.4631C82.8477 43.3634 82.8477 42.5233 82.9695 41.4847C83.0457 40.6752 83.2284 39.6213 83.3655 39.1173C83.5025 38.6133 83.868 37.651 84.1725 36.979C84.4771 36.3069 84.9643 35.4058 85.2536 34.9934C85.5277 34.5657 86.0455 33.8937 86.3805 33.4813C86.7155 33.0689 87.4464 32.3816 87.9946 31.9387C88.5275 31.4804 89.426 30.8695 89.9742 30.5488C90.5071 30.228 91.4969 29.7698 92.1364 29.5407C92.7912 29.2963 93.8571 29.0061 94.4967 28.8839C95.2885 28.7312 96.2935 28.6701 97.5879 28.7159ZM94.0094 36.4291C93.5069 36.6735 92.7455 37.1775 92.3344 37.5441C91.908 37.9107 91.3294 38.598 91.0401 39.0409C90.7507 39.4991 90.3853 40.2934 90.2178 40.7974C90.0503 41.3625 89.9437 42.172 89.9285 42.9357C89.9285 43.8063 90.0351 44.4325 90.2635 45.1504C90.4614 45.685 90.8421 46.4792 91.1162 46.9069C91.3903 47.3193 91.8471 47.8844 92.1364 48.144C92.4105 48.419 93.0501 48.8772 93.5526 49.1827C94.0551 49.4881 94.9231 49.8241 95.4865 49.9616C96.0499 50.0838 96.8113 50.1907 97.1615 50.1907C97.5269 50.1907 98.2274 50.0838 98.7299 49.9463C99.2324 49.8089 100.009 49.5187 100.451 49.2896C100.907 49.0757 101.593 48.5717 101.989 48.2051C102.384 47.8233 102.933 47.1665 103.192 46.7541C103.466 46.3265 103.816 45.5322 103.983 44.9977C104.166 44.402 104.288 43.5619 104.288 42.9357C104.288 42.3095 104.166 41.4389 103.983 40.8738C103.831 40.3239 103.42 39.4686 103.1 38.9646C102.765 38.4605 102.126 37.7427 101.669 37.3761C101.227 37.0248 100.512 36.5666 100.1 36.368C99.674 36.1695 98.9735 35.9404 98.532 35.8487C98.0904 35.7571 97.4051 35.6807 97.0092 35.696C96.6133 35.696 95.9737 35.7724 95.6083 35.8487C95.2276 35.9098 94.5119 36.1695 94.0094 36.4291Z" fill="url(#paint0_linear_3452_4713)"/>
<defs>
<linearGradient id="paint0_linear_3452_4713" x1="70" y1="0" x2="70" y2="140" gradientUnits="userSpaceOnUse">
<stop stop-color="#573CFA" stop-opacity="0"/>
<stop offset="0.491527" stop-color="#573CFA"/>
<stop offset="1" stop-color="#573CFA" stop-opacity="0"/>
</linearGradient>
</defs>
</svg>
