<svg width="17" height="20" viewBox="0 0 17 20" fill="none" xmlns="http://www.w3.org/2000/svg">
<path d="M16.6258 19.5999H0.893416C0.731832 19.5999 0.599609 19.4789 0.599609 19.331V7.75931C0.599609 7.61138 0.731832 7.49042 0.893416 7.49042H16.6258C16.7874 7.49042 16.9196 7.61138 16.9196 7.75931V19.331C16.9196 19.4789 16.7874 19.5999 16.6258 19.5999ZM1.18718 19.0654H16.3357V8.02828H1.18718V19.0654Z" fill="white"/>
<path d="M13.9706 8.02803C13.809 8.02803 13.6768 7.90698 13.6768 7.75906V5.34524C13.6768 2.91123 11.4403 0.934474 8.69705 0.934474C5.9538 0.934474 3.71731 2.91459 3.71731 5.34524V7.75906C3.71731 7.90698 3.58513 8.02803 3.42354 8.02803C3.26196 8.02803 3.12974 7.90698 3.12974 7.75906V5.34524C3.12974 2.61874 5.62695 0.399902 8.69337 0.399902C11.7598 0.399902 14.257 2.61874 14.257 5.34524V7.75906C14.257 7.90698 14.1248 8.02803 13.9632 8.02803H13.9706Z" fill="white"/>
<path d="M8.75954 15.5753C8.59796 15.5753 8.46578 15.4543 8.46578 15.3064V11.7831C8.46578 11.6352 8.59796 11.5142 8.75954 11.5142C8.92113 11.5142 9.05335 11.6352 9.05335 11.7831V15.3064C9.05335 15.4543 8.92113 15.5753 8.75954 15.5753Z" fill="white"/>
</svg>
