<svg width="18" height="22" viewBox="0 0 18 22" fill="none" xmlns="http://www.w3.org/2000/svg">
<path d="M17.1848 9.55939C17.1441 9.60006 17.0959 9.63233 17.0428 9.65435C16.9897 9.67637 16.9327 9.6877 16.8752 9.6877C16.8177 9.6877 16.7608 9.67637 16.7077 9.65435C16.6546 9.63233 16.6063 9.60006 16.5657 9.55939L9.43774 2.43142V20.6249C9.43774 20.7409 9.39165 20.8522 9.3096 20.9342C9.22756 21.0163 9.11628 21.0624 9.00024 21.0624C8.88421 21.0624 8.77293 21.0163 8.69088 20.9342C8.60884 20.8522 8.56274 20.7409 8.56274 20.6249V2.43142L1.43477 9.55939C1.39413 9.60004 1.34587 9.63228 1.29276 9.65428C1.23965 9.67628 1.18273 9.6876 1.12524 9.6876C1.06776 9.6876 1.01084 9.67628 0.957726 9.65428C0.904617 9.63228 0.85636 9.60004 0.815712 9.55939C0.775064 9.51874 0.74282 9.47048 0.720821 9.41737C0.698822 9.36426 0.6875 9.30734 0.6875 9.24986C0.6875 9.19237 0.698822 9.13545 0.720821 9.08234C0.74282 9.02923 0.775064 8.98097 0.815712 8.94032L8.69071 1.06532C8.73134 1.02465 8.77959 0.992378 8.83271 0.970361C8.88582 0.948344 8.94275 0.937012 9.00024 0.937012C9.05774 0.937012 9.11467 0.948344 9.16778 0.970361C9.22089 0.992378 9.26914 1.02465 9.30978 1.06532L17.1848 8.94032C17.2255 8.98096 17.2577 9.02921 17.2797 9.08232C17.3018 9.13543 17.3131 9.19236 17.3131 9.24986C17.3131 9.30735 17.3018 9.36428 17.2797 9.41739C17.2577 9.4705 17.2255 9.51875 17.1848 9.55939Z" fill="white"/>
</svg>
