<svg width="24" height="21" viewBox="0 0 24 21" fill="none" xmlns="http://www.w3.org/2000/svg">
<path d="M23.0972 0.073006C22.9962 -0.0108017 22.8369 -0.0236971 22.7165 0.0407703L0.941183 8.32854C0.847943 8.38012 0.789627 8.46715 0.801282 8.56063C0.809052 8.65411 0.878966 8.73792 0.979975 8.7766L7.28996 13.4592L10.5695 20.8485C10.6162 20.9355 10.7171 20.9936 10.8337 21C10.8415 21 10.8454 21 10.8531 21C10.9619 21 11.0629 20.9517 11.1173 20.8743L23.1555 0.385674C23.2293 0.282526 23.2099 0.153587 23.105 0.0697795L23.0972 0.073006ZM10.8842 20.1942L7.88437 13.3205L11.9862 9.78826C12.1027 9.68511 12.0988 9.52393 11.9745 9.42723C11.8502 9.33053 11.656 9.33375 11.5394 9.4369L7.44921 12.9595L1.74919 8.50905L21.9434 1.05936L10.8881 20.1942H10.8842Z" fill="white"/>
</svg>
