<svg width="20" height="20" viewBox="0 0 20 20" fill="none" xmlns="http://www.w3.org/2000/svg">
<path d="M11.0184 19.5999H8.97231C8.57455 19.5999 8.25433 19.276 8.25433 18.8813V18.0075C8.25433 17.5925 7.98804 17.218 7.58692 17.0831C7.27681 16.9751 6.97004 16.8469 6.67341 16.7018C6.30937 16.5196 5.87117 16.5905 5.58803 16.8739L4.95095 17.5116C4.67791 17.7848 4.206 17.7815 3.93296 17.5116L2.48693 16.0642C2.20715 15.7842 2.20715 15.3287 2.48693 15.0453L3.13072 14.401C3.41386 14.1176 3.48465 13.6823 3.306 13.3179C3.16106 13.021 3.03297 12.714 2.92848 12.4037C2.79365 12.0089 2.42961 11.7424 2.01501 11.7424H1.11837C0.720617 11.7424 0.400391 11.4186 0.400391 11.0238V8.97596C0.400391 8.57785 0.723987 8.2573 1.11837 8.2573H2.03188C2.44311 8.2573 2.80715 7.99417 2.94535 7.59944C3.04984 7.29243 3.17793 6.99219 3.32287 6.70205C3.5049 6.33769 3.43411 5.8991 3.15096 5.61233L2.4903 4.95109C2.35547 4.81614 2.28131 4.63396 2.28131 4.44165C2.28131 4.24935 2.35547 4.06716 2.4903 3.93221L3.93634 2.48486C4.206 2.21496 4.68129 2.21158 4.95432 2.48486L5.6251 3.15623C5.90825 3.43963 6.34311 3.51048 6.71053 3.33167C7.00041 3.1866 7.30376 3.06174 7.6105 2.95715C7.99814 2.82558 8.26108 2.46124 8.26108 2.05639V1.11847C8.26108 0.720369 8.58467 0.399902 8.97906 0.399902H11.0251C11.4229 0.399902 11.7431 0.723743 11.7431 1.11847V2.05639C11.7431 2.46461 12.006 2.82558 12.3937 2.95715C12.7004 3.06174 13.0004 3.1866 13.2936 3.3283C13.6577 3.50711 14.0925 3.43962 14.3791 3.15286L15.0498 2.48148C15.3296 2.20146 15.7846 2.20146 16.0678 2.48148L17.5139 3.92884C17.6487 4.06379 17.7228 4.24597 17.7228 4.43828C17.7228 4.63058 17.6487 4.81277 17.5139 4.94772L16.8532 5.60896C16.5667 5.89573 16.4993 6.33093 16.6813 6.69867C16.8262 6.98882 16.9509 7.29242 17.0588 7.59606C17.1936 7.98742 17.561 8.25393 17.9689 8.25393H18.8824C19.2802 8.25393 19.6004 8.57785 19.6004 8.97258V11.0205C19.6004 11.4186 19.2768 11.739 18.8824 11.739H17.9858C17.5745 11.739 17.2071 12.0056 17.0723 12.4003C16.9678 12.7107 16.8397 13.021 16.6948 13.3146C16.5161 13.6789 16.5835 14.1142 16.87 14.3976L17.5139 15.042C17.7936 15.322 17.7936 15.7774 17.5139 16.0608L16.0678 17.5082C15.788 17.7882 15.333 17.7882 15.0498 17.5082L14.4128 16.8705C14.1262 16.5837 13.6914 16.5163 13.3273 16.6984C13.0341 16.8469 12.724 16.9751 12.4139 17.0797C12.0161 17.2147 11.7465 17.5858 11.7465 18.0041V18.8779C11.7465 19.276 11.4229 19.5965 11.0285 19.5965L11.0184 19.5999ZM6.24869 16.0642C6.47453 16.0642 6.70041 16.1148 6.91276 16.2228C7.1858 16.3611 7.47232 16.4792 7.75883 16.577C8.37569 16.7862 8.7869 17.3631 8.7869 18.0075V18.8813C8.7869 18.9825 8.86781 19.0634 8.96893 19.0634H11.015C11.1161 19.0634 11.197 18.9825 11.197 18.8813V18.0075C11.197 17.3597 11.6116 16.7862 12.2251 16.577C12.515 16.4792 12.7982 16.3577 13.0712 16.2228C13.6409 15.936 14.3285 16.0474 14.7768 16.4961L15.4139 17.1337C15.4847 17.2045 15.6026 17.2045 15.6734 17.1337L17.1195 15.6863C17.1532 15.6526 17.1734 15.6054 17.1734 15.5582C17.1734 15.5109 17.1532 15.4636 17.1195 15.4299L16.4757 14.7856C16.0307 14.3402 15.9195 13.6553 16.1992 13.0852C16.3341 12.8119 16.4521 12.5251 16.5498 12.2384C16.7554 11.6243 17.3285 11.2127 17.9689 11.2127H18.8655C18.9667 11.2127 19.0476 11.1317 19.0476 11.0305V8.98271C19.0476 8.8815 18.9667 8.80052 18.8655 8.80052H17.9521C17.3116 8.80052 16.7419 8.39228 16.5329 7.78164C16.4352 7.49824 16.3172 7.21823 16.1824 6.94833C15.8959 6.37479 16.0071 5.6899 16.4554 5.24119L17.1161 4.57995C17.1498 4.54621 17.17 4.49893 17.17 4.4517C17.17 4.40447 17.1498 4.35728 17.1161 4.32354L15.67 2.87618C15.5993 2.80534 15.4813 2.80534 15.4105 2.87618L14.7397 3.54756C14.2948 3.99289 13.6105 4.10425 13.0408 3.82423C12.7712 3.69265 12.4914 3.57456 12.2082 3.47672C11.6015 3.27092 11.1936 2.70416 11.1936 2.06652V1.1286C11.1936 1.02739 11.1127 0.946408 11.0116 0.946408H8.96556C8.86444 0.946408 8.78352 1.02739 8.78352 1.1286V2.06652C8.78352 2.70416 8.37566 3.27092 7.76891 3.47672C7.48577 3.57456 7.206 3.68928 6.93634 3.82423C6.36668 4.10762 5.6824 3.99627 5.23745 3.54756L4.56667 2.87618C4.49589 2.80534 4.37794 2.80534 4.30716 2.87618L2.86108 4.32354C2.82737 4.35728 2.80713 4.40447 2.80713 4.4517C2.80713 4.49893 2.82737 4.54621 2.86108 4.57995L3.52174 5.24119C3.97005 5.6899 4.07794 6.37479 3.79479 6.94833C3.65996 7.21823 3.54197 7.49824 3.44422 7.78164C3.23523 8.39228 2.66558 8.80052 2.02513 8.80052H1.11162C1.0105 8.80052 0.929626 8.8815 0.929626 8.98271V11.0305C0.929626 11.1317 1.0105 11.2127 1.11162 11.2127H2.00826C2.65208 11.2127 3.22173 11.6243 3.42735 12.2384C3.5251 12.5285 3.64309 12.8119 3.77792 13.0852C4.06107 13.6553 3.94985 14.3402 3.50153 14.7856L2.8577 15.4299C2.824 15.4636 2.80376 15.5109 2.80376 15.5582C2.80376 15.6054 2.824 15.6526 2.8577 15.6863L4.30378 17.1337C4.3712 17.2011 4.49251 17.2045 4.5633 17.1337L5.20038 16.4961C5.48353 16.2127 5.85771 16.0642 6.24198 16.0642H6.24869Z" fill="white"/>
<path d="M9.99375 15.3554C7.04094 15.3554 4.63757 12.9499 4.63757 9.99451C4.63757 7.0391 7.04094 4.63357 9.99375 4.63357C12.9466 4.63357 15.3499 7.0391 15.3499 9.99451C15.3499 12.9499 12.9466 15.3554 9.99375 15.3554ZM9.99375 5.1734C7.33757 5.1734 5.17351 7.33599 5.17351 9.99788C5.17351 12.6598 7.3342 14.8224 9.99375 14.8224C12.6533 14.8224 14.8139 12.6598 14.8139 9.99788C14.8139 7.33599 12.6533 5.1734 9.99375 5.1734Z" fill="white"/>
</svg>
