<svg xmlns="http://www.w3.org/2000/svg" width="24" height="24" viewBox="0 0 24 24" fill="none">
  <path d="M4.95183 14.6622C3.54452 14.6622 2.40002 13.5081 2.40002 12.089C2.40002 10.6699 3.54452 9.51584 4.95183 9.51584C6.35914 9.51584 7.50359 10.6699 7.50359 12.089C7.50359 13.5081 6.35914 14.6622 4.95183 14.6622ZM4.95183 10.0493C3.83729 10.0493 2.929 10.9651 2.929 12.089C2.929 13.2128 3.83729 14.1287 4.95183 14.1287C6.06637 14.1287 6.97462 13.2128 6.97462 12.089C6.97462 10.9651 6.06637 10.0493 4.95183 10.0493Z" fill="white"/>
  <path d="M19.0483 7.54626C17.641 7.54626 16.4965 6.39214 16.4965 4.97304C16.4965 3.55394 17.641 2.3999 19.0483 2.3999C20.4556 2.3999 21.6 3.55394 21.6 4.97304C21.6 6.39214 20.4556 7.54626 19.0483 7.54626ZM19.0483 2.93335C17.9337 2.93335 17.0254 3.84917 17.0254 4.97304C17.0254 6.09691 17.9337 7.01281 19.0483 7.01281C20.1628 7.01281 21.071 6.09691 21.071 4.97304C21.071 3.84917 20.1628 2.93335 19.0483 2.93335Z" fill="white"/>
  <path d="M19.0483 21.5999C17.641 21.5999 16.4965 20.4459 16.4965 19.0268C16.4965 17.6077 17.641 16.4535 19.0483 16.4535C20.4556 16.4535 21.6 17.6077 21.6 19.0268C21.6 20.4459 20.4556 21.5999 19.0483 21.5999ZM19.0483 16.987C17.9337 16.987 17.0254 17.9029 17.0254 19.0268C17.0254 20.1506 17.9337 21.0665 19.0483 21.0665C20.1628 21.0665 21.071 20.1506 21.071 19.0268C21.071 17.9029 20.1628 16.987 19.0483 16.987Z" fill="white"/>
  <path d="M6.9979 11.3237C6.90142 11.3237 6.80828 11.27 6.7617 11.176C6.69516 11.0452 6.74839 10.8842 6.88147 10.8171L16.889 5.76472C17.0188 5.69763 17.1785 5.75125 17.245 5.88209C17.3115 6.01293 17.2583 6.17399 17.1252 6.24108L7.11771 11.2935C7.08111 11.3136 7.03783 11.3204 7.00123 11.3204L6.9979 11.3237Z" fill="white"/>
  <path d="M16.9955 18.282C16.9555 18.282 16.9156 18.2719 16.879 18.2551L6.97128 13.3805C6.84153 13.3168 6.78498 13.1557 6.84819 13.0249C6.9114 12.894 7.07112 12.837 7.20087 12.9008L17.1086 17.7754C17.2383 17.8391 17.2949 18.0001 17.2317 18.1309C17.1851 18.2249 17.0919 18.282 16.9921 18.282H16.9955Z" fill="white"/>
</svg>