<svg width="28" height="29" viewBox="0 0 28 29" fill="none" xmlns="http://www.w3.org/2000/svg">
<path d="M5.77691 17.6061C4.13505 17.6061 2.7998 16.2596 2.7998 14.604C2.7998 12.9484 4.13505 11.602 5.77691 11.602C7.41877 11.602 8.75397 12.9484 8.75397 14.604C8.75397 16.2596 7.41877 17.6061 5.77691 17.6061ZM5.77691 12.2243C4.47662 12.2243 3.41695 13.2928 3.41695 14.604C3.41695 15.9152 4.47662 16.9837 5.77691 16.9837C7.0772 16.9837 8.13683 15.9152 8.13683 14.604C8.13683 13.2928 7.0772 12.2243 5.77691 12.2243Z" fill="white"/>
<path d="M22.2227 9.30413C20.5809 9.30413 19.2456 7.95766 19.2456 6.30204C19.2456 4.64643 20.5809 3.30005 22.2227 3.30005C23.8646 3.30005 25.1998 4.64643 25.1998 6.30204C25.1998 7.95766 23.8646 9.30413 22.2227 9.30413ZM22.2227 3.92241C20.9225 3.92241 19.8628 4.99086 19.8628 6.30204C19.8628 7.61323 20.9225 8.68177 22.2227 8.68177C23.523 8.68177 24.5827 7.61323 24.5827 6.30204C24.5827 4.99086 23.523 3.92241 22.2227 3.92241Z" fill="white"/>
<path d="M22.2227 25.7001C20.5809 25.7001 19.2456 24.3537 19.2456 22.6981C19.2456 21.0424 20.5809 19.696 22.2227 19.696C23.8646 19.696 25.1998 21.0424 25.1998 22.6981C25.1998 24.3537 23.8646 25.7001 22.2227 25.7001ZM22.2227 20.3183C20.9225 20.3183 19.8628 21.3869 19.8628 22.6981C19.8628 24.0092 20.9225 25.0777 22.2227 25.0777C23.523 25.0777 24.5827 24.0092 24.5827 22.6981C24.5827 21.3869 23.523 20.3183 22.2227 20.3183Z" fill="white"/>
<path d="M8.16399 13.7112C8.05143 13.7112 7.94277 13.6485 7.88843 13.5389C7.8108 13.3862 7.87289 13.1984 8.02815 13.1202L19.7036 7.22567C19.855 7.14739 20.0413 7.20996 20.1189 7.3626C20.1966 7.51525 20.1345 7.70315 19.9792 7.78143L8.30377 13.6759C8.26107 13.6994 8.21058 13.7073 8.16788 13.7073L8.16399 13.7112Z" fill="white"/>
<path d="M19.8278 21.8291C19.7812 21.8291 19.7347 21.8174 19.692 21.7978L8.13294 16.1108C7.98156 16.0364 7.91558 15.8485 7.98933 15.6958C8.06308 15.5432 8.24941 15.4767 8.40079 15.5511L19.9598 21.2381C20.1112 21.3125 20.1771 21.5003 20.1034 21.6529C20.049 21.7625 19.9404 21.8291 19.8239 21.8291H19.8278Z" fill="white"/>
</svg>
