<svg width="24" height="24" viewBox="0 0 24 24" fill="none" xmlns="http://www.w3.org/2000/svg">
<path d="M23.7635 5.79828C23.7004 5.60304 23.5805 5.43104 23.4192 5.30422C23.2579 5.1774 23.0625 5.10151 22.8579 5.08625L18.5518 4.74609L16.8948 0.818435C16.8147 0.631075 16.6814 0.471355 16.5113 0.359104C16.3413 0.246852 16.142 0.187012 15.9383 0.187012C15.7345 0.187012 15.5353 0.246852 15.3652 0.359104C15.1952 0.471355 15.0619 0.631075 14.9818 0.818435L13.3237 4.74609L9.01868 5.08625C8.81511 5.10082 8.6205 5.17571 8.45968 5.30136C8.29886 5.42702 8.17912 5.59774 8.11575 5.79174C8.05237 5.98573 8.04823 6.19422 8.10386 6.39058C8.15948 6.58694 8.27235 6.76228 8.42806 6.89422L11.7093 9.65922L10.7096 13.7925C10.6605 13.989 10.6716 14.1958 10.7414 14.3859C10.8112 14.5761 10.9366 14.7409 11.1012 14.8589C11.267 14.9808 11.4652 15.0508 11.6707 15.0602C11.8763 15.0695 12.08 15.0178 12.2562 14.9114L15.9377 12.6911L19.6259 14.9114C19.802 15.0178 20.0058 15.0695 20.2113 15.0602C20.4169 15.0508 20.6151 14.9808 20.7809 14.8589C20.9455 14.7409 21.0708 14.5761 21.1407 14.3859C21.2105 14.1958 21.2216 13.989 21.1724 13.7925L20.1716 9.65922L23.4474 6.89422C23.6031 6.76368 23.7164 6.58969 23.7727 6.39447C23.829 6.19925 23.8258 5.99168 23.7635 5.79828ZM22.8831 6.22593L19.4006 9.16484C19.3384 9.21725 19.292 9.28594 19.2667 9.36322C19.2414 9.4405 19.2381 9.52331 19.2573 9.60234L20.3215 13.9981C20.3296 14.0268 20.3284 14.0573 20.318 14.0853C20.3075 14.1132 20.2885 14.1371 20.2635 14.1534C20.2369 14.1736 20.2046 14.1852 20.1712 14.1866C20.1378 14.1879 20.1047 14.179 20.0765 14.1611L16.1642 11.8062C16.096 11.7652 16.0179 11.7434 15.9383 11.7434C15.8587 11.7434 15.7806 11.7652 15.7124 11.8062L11.799 14.1611C11.771 14.1791 11.7381 14.188 11.7048 14.1867C11.6715 14.1853 11.6395 14.1737 11.6131 14.1534C11.5882 14.137 11.5691 14.1132 11.5585 14.0853C11.5479 14.0574 11.5463 14.0269 11.554 13.9981L12.6182 9.60234C12.6373 9.52331 12.6341 9.4405 12.6088 9.36322C12.5835 9.28594 12.5371 9.21725 12.4749 9.16484L8.99352 6.22593C8.96957 6.20789 8.95199 6.18268 8.94334 6.15396C8.93469 6.12525 8.93541 6.09452 8.9454 6.06625C8.95459 6.03538 8.97327 6.00819 8.9988 5.98856C9.02433 5.96892 9.0554 5.95783 9.08759 5.95687L13.6584 5.59593C13.7385 5.58944 13.8153 5.561 13.8803 5.51373C13.9453 5.46646 13.9961 5.40219 14.027 5.32797L15.7879 1.15531C15.801 1.12642 15.8222 1.10192 15.8488 1.08473C15.8755 1.06755 15.9066 1.05841 15.9383 1.05841C15.97 1.05841 16.0011 1.06755 16.0277 1.08473C16.0544 1.10192 16.0756 1.12642 16.0887 1.15531L17.8496 5.32797C17.8808 5.40178 17.9317 5.4656 17.9967 5.51247C18.0617 5.55934 18.1383 5.58745 18.2182 5.59375L22.789 5.95469C22.821 5.95571 22.8519 5.96684 22.8773 5.98648C22.9026 6.00613 22.9211 6.03328 22.9301 6.06406C22.9411 6.09247 22.9424 6.1237 22.9339 6.15295C22.9254 6.1822 22.9076 6.20784 22.8831 6.22593ZM7.32774 11.1664L0.934775 17.5594C0.852682 17.6415 0.74134 17.6876 0.625243 17.6876C0.509147 17.6876 0.397805 17.6415 0.315712 17.5594C0.233619 17.4773 0.1875 17.3659 0.1875 17.2498C0.1875 17.1337 0.233619 17.0224 0.315712 16.9403L6.70868 10.5473C6.79077 10.4652 6.90211 10.4191 7.01821 10.4191C7.13431 10.4191 7.24565 10.4652 7.32774 10.5473C7.40984 10.6294 7.45596 10.7408 7.45596 10.8569C7.45596 10.973 7.40984 11.0843 7.32774 11.1664ZM8.51009 17.24C8.5919 17.322 8.63785 17.4331 8.63785 17.549C8.63785 17.6648 8.5919 17.7759 8.51009 17.858L2.68477 23.6844C2.60268 23.7665 2.49134 23.8126 2.37524 23.8126C2.25915 23.8126 2.1478 23.7665 2.06571 23.6844C1.98362 23.6023 1.9375 23.4909 1.9375 23.3748C1.9375 23.2587 1.98362 23.1474 2.06571 23.0653L7.89212 17.24C7.97414 17.1582 8.08525 17.1122 8.2011 17.1122C8.31695 17.1122 8.42807 17.1582 8.51009 17.24ZM16.4945 17.1306C16.5351 17.1713 16.5674 17.2195 16.5894 17.2726C16.6114 17.3257 16.6228 17.3827 16.6228 17.4402C16.6228 17.4976 16.6114 17.5546 16.5894 17.6077C16.5674 17.6608 16.5351 17.7091 16.4945 17.7497L10.5576 23.6866C10.4755 23.7687 10.3642 23.8148 10.2481 23.8148C10.132 23.8148 10.0206 23.7687 9.93852 23.6866C9.85643 23.6045 9.81031 23.4931 9.81031 23.377C9.81031 23.2609 9.85643 23.1496 9.93852 23.0675L15.8765 17.1306C15.917 17.0896 15.9652 17.0571 16.0183 17.0348C16.0715 17.0125 16.1285 17.0009 16.1861 17.0007C16.2437 17.0005 16.3008 17.0116 16.3541 17.0336C16.4074 17.0555 16.4559 17.0877 16.4967 17.1284L16.4945 17.1306Z" fill="white"/>
</svg>
