<svg xmlns="http://www.w3.org/2000/svg" width="20" height="20" viewBox="0 0 20 20" fill="none">
  <path d="M5.1913 18C5.14744 18 5.10084 17.9856 5.06246 17.9568C4.9857 17.8992 4.95279 17.7955 4.98294 17.7005L6.77045 11.9219L2.09058 8.35163C2.01382 8.29404 1.98094 8.19042 2.0111 8.0954C2.04126 8.00039 2.12347 7.93703 2.21943 7.93703H8.00415L9.79166 2.15837C9.82181 2.06336 9.90403 2 9.99998 2C10.0959 2 10.1782 2.06336 10.2083 2.15837L11.9958 7.93703H17.7805C17.8738 7.93703 17.9587 8.00039 17.9889 8.0954C18.0191 8.19042 17.9862 8.29404 17.9094 8.35163L13.2296 11.9219L15.0171 17.7005C15.0472 17.7955 15.0143 17.8992 14.9375 17.9568C14.8608 18.0144 14.7566 18.0144 14.6826 17.9568L10.0027 14.3865L5.32289 17.9568C5.28451 17.9856 5.24066 18 5.19405 18H5.1913ZM2.89113 8.39486L7.15698 11.6483C7.23375 11.7059 7.26666 11.8096 7.2365 11.9046L5.60803 17.1708L9.87388 13.9172C9.95065 13.8596 10.0548 13.8596 10.1289 13.9172L14.3947 17.1708L12.7662 11.9046C12.7361 11.8096 12.769 11.7059 12.8457 11.6483L17.1116 8.39486H11.8396C11.7464 8.39486 11.6614 8.3315 11.6312 8.23648L10.0027 2.97034L8.37426 8.23648C8.3441 8.3315 8.26185 8.39486 8.16589 8.39486H2.89387H2.89113Z" fill="#54D6FF"/>
</svg>