<svg width="180" height="180" viewBox="0 0 180 180" fill="none" xmlns="http://www.w3.org/2000/svg">
<path d="M131.761 24.7691L140.636 33.84L163.179 10.8" stroke="#61B01A" stroke-width="5" stroke-linecap="round" stroke-linejoin="round"/>
<path d="M64.734 80.4702C66.2147 80.4702 67.4163 81.6718 67.4163 83.1524C67.4163 93.3308 75.6956 101.61 85.874 101.61C96.0523 101.61 104.332 93.3308 104.332 83.1524C104.332 81.6718 105.533 80.4702 107.014 80.4702C108.495 80.4702 109.696 81.6718 109.696 83.1524C109.696 96.2884 99.01 106.975 85.874 106.975C72.738 106.975 62.0518 96.2884 62.0518 83.1524C62.0518 81.6718 63.2534 80.4702 64.734 80.4702Z" fill="#61B01A"/>
<path d="M120.984 67.6166C119.503 67.6166 118.302 66.4149 118.302 64.9343C118.302 59.9954 114.282 55.9755 109.343 55.9755C104.404 55.9755 100.384 59.9954 100.384 64.9343C100.384 66.4149 99.1824 67.6166 97.7018 67.6166C96.2212 67.6166 95.0195 66.4149 95.0195 64.9343C95.0195 57.0341 101.446 50.611 109.343 50.611C117.24 50.611 123.666 57.0377 123.666 64.9343C123.666 66.4149 122.465 67.6166 120.984 67.6166Z" fill="#61B01A"/>
<path d="M77.4273 67.6166C75.9467 67.6166 74.7451 66.4149 74.7451 64.9343C74.7451 59.9954 70.7252 55.9755 65.7863 55.9755C60.8473 55.9755 56.8274 59.9954 56.8274 64.9343C56.8274 66.4149 55.6258 67.6166 54.1452 67.6166C52.6646 67.6166 51.4629 66.4149 51.4629 64.9343C51.4629 57.0341 57.8896 50.611 65.7863 50.611C73.6829 50.611 80.1096 57.0377 80.1096 64.9343C80.1096 66.4149 78.908 67.6166 77.4273 67.6166Z" fill="#61B01A"/>
</svg>
