<svg xmlns="http://www.w3.org/2000/svg" width="16" height="16" viewBox="0 0 16 16" fill="none">
  <path d="M10.6769 6.32312C10.7001 6.34634 10.7186 6.37392 10.7311 6.40426C10.7437 6.43461 10.7502 6.46715 10.7502 6.5C10.7502 6.53285 10.7437 6.56539 10.7311 6.59574C10.7186 6.62608 10.7001 6.65366 10.6769 6.67688L7.17688 10.1769C7.15366 10.2001 7.12609 10.2186 7.09574 10.2311C7.06539 10.2437 7.03286 10.2502 7 10.2502C6.96715 10.2502 6.93462 10.2437 6.90427 10.2311C6.87392 10.2186 6.84635 10.2001 6.82313 10.1769L5.32313 8.67688C5.27622 8.62996 5.24986 8.56634 5.24986 8.5C5.24986 8.43366 5.27622 8.37004 5.32313 8.32312C5.37004 8.27621 5.43366 8.24986 5.5 8.24986C5.56634 8.24986 5.62997 8.27621 5.67688 8.32312L7 9.64625L10.3231 6.32312C10.3463 6.29988 10.3739 6.28144 10.4043 6.26886C10.4346 6.25628 10.4671 6.2498 10.5 6.2498C10.5329 6.2498 10.5654 6.25628 10.5957 6.26886C10.6261 6.28144 10.6537 6.29988 10.6769 6.32312ZM14.25 8C14.25 9.23613 13.8834 10.4445 13.1967 11.4723C12.5099 12.5001 11.5338 13.3012 10.3918 13.7742C9.24974 14.2473 7.99307 14.3711 6.78069 14.1299C5.56831 13.8888 4.45466 13.2935 3.58059 12.4194C2.70651 11.5453 2.11125 10.4317 1.87009 9.21931C1.62894 8.00693 1.75271 6.75027 2.22576 5.60823C2.6988 4.46619 3.49988 3.49007 4.52769 2.80331C5.5555 2.11656 6.76387 1.75 8 1.75C9.65705 1.75182 11.2457 2.41088 12.4174 3.58259C13.5891 4.7543 14.2482 6.34296 14.25 8ZM13.75 8C13.75 6.86276 13.4128 5.75105 12.781 4.80547C12.1491 3.85989 11.2511 3.1229 10.2004 2.68769C9.14976 2.25249 7.99362 2.13862 6.87823 2.36048C5.76284 2.58235 4.73829 3.12998 3.93414 3.93414C3.12999 4.73829 2.58235 5.76284 2.36049 6.87823C2.13862 7.99362 2.25249 9.14975 2.6877 10.2004C3.1229 11.2511 3.85989 12.1491 4.80547 12.781C5.75106 13.4128 6.86276 13.75 8 13.75C9.52449 13.7483 10.9861 13.142 12.064 12.064C13.142 10.9861 13.7483 9.52449 13.75 8Z" fill="#93FF50"/>
</svg>