<svg width="20" height="20" viewBox="0 0 20 20" fill="none" xmlns="http://www.w3.org/2000/svg">
<path d="M10.0085 0.399902C5.80799 0.399902 2.3852 3.4001 2.3852 7.08386V9.56219C1.21457 10.0302 0.400391 11.0236 0.400391 12.1718C0.400391 13.7005 1.83027 14.9531 3.63685 15.0575C3.82318 15.539 4.36191 15.8892 5.00191 15.8892C5.79583 15.8892 6.43989 15.3538 6.43989 14.6939V9.57563C6.43989 8.91565 5.79583 8.38028 5.00191 8.38028C4.3295 8.38028 3.76647 8.7675 3.60849 9.28942C3.41001 9.30289 3.21558 9.32982 3.0252 9.37023V7.08723C3.0252 3.69642 6.15634 0.938652 10.0004 0.938652C13.8444 0.938652 16.9756 3.69642 16.9756 7.08723V9.37023C16.7852 9.32982 16.5948 9.30289 16.3963 9.28942C16.2384 8.7675 15.6794 8.38028 15.0029 8.38028C14.209 8.38028 13.5649 8.91565 13.5649 9.57563V14.6939C13.5649 15.3538 14.209 15.8892 15.0029 15.8892C15.6429 15.8892 16.1817 15.539 16.368 15.0575C16.9715 15.0238 17.5305 14.8588 18.0085 14.6029V17.0206C18.0085 17.5425 17.7574 18.051 17.3199 18.4113C16.8176 18.8221 15.8009 19.179 14.9017 19.0309C14.1887 18.913 13.6419 18.5022 13.2733 17.8153C13.5082 17.6436 13.6622 17.3944 13.6622 17.1149C13.6622 16.5997 13.1558 16.1788 12.5361 16.1788C11.9163 16.1788 11.41 16.5997 11.41 17.1149C11.41 17.6301 11.9163 18.051 12.5361 18.051C12.5887 18.051 12.6374 18.0442 12.69 18.0375C13.2611 19.0982 14.1401 19.4517 14.7801 19.5561C14.9624 19.5864 15.1487 19.5999 15.3351 19.5999C16.2951 19.5999 17.2429 19.2261 17.7736 18.7918C18.3325 18.3304 18.6525 17.6873 18.6525 17.0206V14.2325C18.6525 14.209 18.6444 14.1888 18.6363 14.1685C19.2318 13.65 19.6004 12.9463 19.6004 12.1718C19.6004 11.0236 18.7862 10.0302 17.6156 9.56219V7.08386C17.6156 3.39674 14.1968 0.399902 9.99229 0.399902H10.0085ZM4.20799 9.57563C4.20799 9.21197 4.56444 8.91566 5.00191 8.91566C5.43938 8.91566 5.79584 9.21197 5.79584 9.57563V14.6939C5.79584 15.0575 5.43938 15.3538 5.00191 15.3538C4.56444 15.3538 4.20799 15.0575 4.20799 14.6939V9.57563ZM3.56393 9.82817V14.5154C2.15026 14.3807 1.04444 13.3806 1.04444 12.1718C1.04444 10.963 2.14621 9.95949 3.56393 9.82817ZM15.8049 14.6939C15.8049 15.0575 15.4485 15.3538 15.011 15.3538C14.5736 15.3538 14.2171 15.0575 14.2171 14.6939V9.57563C14.2171 9.21197 14.5736 8.91566 15.011 8.91566C15.4485 8.91566 15.8049 9.21197 15.8049 9.57563V14.6939ZM12.5442 17.5089C12.2768 17.5089 12.0622 17.3304 12.0622 17.1081C12.0622 16.8859 12.2768 16.7075 12.5442 16.7075C12.8115 16.7075 13.0262 16.8859 13.0262 17.1081C13.0262 17.3304 12.8115 17.5089 12.5442 17.5089ZM18.9685 12.1718C18.9685 13.384 17.8667 14.3841 16.449 14.5154V9.82817C17.8627 9.96286 18.9685 10.963 18.9685 12.1718Z" fill="white"/>
</svg>
