<svg width="24" height="14" viewBox="0 0 24 14" fill="none" xmlns="http://www.w3.org/2000/svg">
<path d="M20.5563 10.6172C20.4408 10.4993 20.2544 10.4993 20.1389 10.6172C20.0234 10.7352 20.0234 10.9254 20.1389 11.0434L22.1886 13.1362H15.0035C14.8954 13.1362 14.7985 13.0753 14.7463 12.9802L9.18604 2.80169C9.13386 2.70657 9.03324 2.64569 8.92889 2.64569H1.12512C0.961143 2.64569 0.826985 2.78266 0.826985 2.95008C0.826985 3.11751 0.961143 3.25448 1.12512 3.25448H8.75372L14.396 13.589C14.4482 13.6841 14.5488 13.745 14.6531 13.745H22.9004C23.165 13.745 23.2954 13.4177 23.1091 13.2275L20.5526 10.6172H20.5563Z" fill="white"/>
<path d="M23.1203 3.00349L20.5526 0.10025C20.4445 -0.0253162 20.2544 -0.0329254 20.1352 0.0774206C20.0122 0.187766 20.0048 0.381821 20.1128 0.503582L22.2333 2.90075H14.7463C14.6383 2.90075 14.5414 2.96163 14.4892 3.05676L12.9799 6.28343C12.9016 6.42802 12.95 6.61446 13.0954 6.69437C13.237 6.77427 13.4196 6.72481 13.4979 6.57641L14.8395 3.66176C14.8917 3.56663 14.9923 3.50575 15.0966 3.50575H22.9041C23.1613 3.50575 23.2954 3.19374 23.124 2.99968L23.1203 3.00349Z" fill="white"/>
<path d="M10.7698 10.9522C10.6282 10.8723 10.4456 10.9217 10.3673 11.0701L9.18219 13.239C9.13002 13.3341 9.0294 13.395 8.92505 13.395H1.09892C0.934939 13.395 0.800781 13.532 0.800781 13.6956C0.800781 13.863 0.934939 14 1.09892 14H9.27163C9.37971 14 9.4766 13.9391 9.52878 13.844L10.8816 11.3669C10.9598 11.2223 10.9114 11.0359 10.7661 10.956L10.7698 10.9522Z" fill="white"/>
</svg>
