<svg width="20" height="12" viewBox="0 0 20 12" fill="none" xmlns="http://www.w3.org/2000/svg">
<path d="M17.3332 9.10048C17.2342 8.99937 17.0745 8.99937 16.9754 9.10048C16.8764 9.20158 16.8764 9.36465 16.9754 9.46576L18.7323 11.2596H12.5736C12.481 11.2596 12.3979 11.2074 12.3532 11.1258L7.58727 2.40145C7.54254 2.31992 7.4563 2.26773 7.36686 2.26773H0.677906C0.537355 2.26773 0.422363 2.38514 0.422363 2.52864C0.422363 2.67215 0.537355 2.78956 0.677906 2.78956H7.21671L12.0529 11.6477C12.0977 11.7292 12.1839 11.7814 12.2734 11.7814H19.3424C19.5692 11.7814 19.681 11.5009 19.5213 11.3378L17.33 9.10048H17.3332Z" fill="white"/>
<path d="M19.5309 2.57442L17.33 0.0859284C17.2374 -0.0216996 17.0745 -0.0282218 16.9723 0.0663605C16.8668 0.160943 16.8605 0.327275 16.9531 0.431642L18.7707 2.48636H12.3532C12.2606 2.48636 12.1775 2.53854 12.1328 2.62008L10.8391 5.3858C10.772 5.50973 10.8136 5.66954 10.9381 5.73803C11.0595 5.80652 11.2161 5.76412 11.2831 5.63692L12.4331 3.13865C12.4778 3.05711 12.5641 3.00493 12.6535 3.00493H19.3456C19.5661 3.00493 19.681 2.73749 19.5341 2.57116L19.5309 2.57442Z" fill="white"/>
<path d="M8.94476 9.38757C8.82338 9.31908 8.66685 9.36148 8.59977 9.48868L7.58397 11.3477C7.53925 11.4292 7.453 11.4814 7.36356 11.4814H0.655446C0.514895 11.4814 0.399902 11.5988 0.399902 11.7391C0.399902 11.8826 0.514895 12 0.655446 12H7.66063C7.75327 12 7.83632 11.9478 7.88104 11.8663L9.04059 9.74307C9.10767 9.61913 9.06614 9.45933 8.94156 9.39083L8.94476 9.38757Z" fill="white"/>
</svg>
