<svg width="41" height="40" viewBox="0 0 41 40" fill="none" xmlns="http://www.w3.org/2000/svg">
<g filter="url(#filter0_ii_5174_908)">
<rect x="0.5" width="40" height="40" rx="20" fill="#573CFA"/>
<path d="M19.2075 25.2925C19.3005 25.3854 19.3742 25.4957 19.4246 25.6171C19.4749 25.7385 19.5008 25.8686 19.5008 26C19.5008 26.1314 19.4749 26.2615 19.4246 26.3829C19.3742 26.5043 19.3005 26.6146 19.2075 26.7075L15.2075 30.7075C15.1146 30.8005 15.0043 30.8742 14.8829 30.9246C14.7615 30.9749 14.6314 31.0008 14.5 31.0008C14.3686 31.0008 14.2385 30.9749 14.1171 30.9246C13.9957 30.8742 13.8854 30.8005 13.7925 30.7075L9.79251 26.7075C9.6996 26.6146 9.6259 26.5043 9.57561 26.3829C9.52533 26.2615 9.49945 26.1314 9.49945 26C9.49945 25.8686 9.52533 25.7385 9.57561 25.6171C9.6259 25.4957 9.6996 25.3854 9.79251 25.2925C9.98015 25.1049 10.2346 24.9994 10.5 24.9994C10.6314 24.9994 10.7615 25.0253 10.8829 25.0756C11.0043 25.1259 11.1146 25.1996 11.2075 25.2925L13.5 27.5862V9.99999C13.5 9.73478 13.6054 9.48042 13.7929 9.29289C13.9804 9.10535 14.2348 8.99999 14.5 8.99999C14.7652 8.99999 15.0196 9.10535 15.2071 9.29289C15.3946 9.48042 15.5 9.73478 15.5 9.99999V27.5862L17.7925 25.2925C17.8854 25.1995 17.9957 25.1258 18.1171 25.0754C18.2385 25.0251 18.3686 24.9992 18.5 24.9992C18.6314 24.9992 18.7615 25.0251 18.8829 25.0754C19.0043 25.1258 19.1146 25.1995 19.2075 25.2925ZM31.2075 13.2925L27.2075 9.29249C27.1146 9.19952 27.0043 9.12576 26.8829 9.07543C26.7615 9.02511 26.6314 8.99921 26.5 8.99921C26.3686 8.99921 26.2385 9.02511 26.1171 9.07543C25.9957 9.12576 25.8854 9.19952 25.7925 9.29249L21.7925 13.2925C21.6049 13.4801 21.4994 13.7346 21.4994 14C21.4994 14.2654 21.6049 14.5199 21.7925 14.7075C21.9801 14.8951 22.2346 15.0005 22.5 15.0005C22.7654 15.0005 23.0199 14.8951 23.2075 14.7075L25.5 12.4137V30C25.5 30.2652 25.6054 30.5196 25.7929 30.7071C25.9804 30.8946 26.2348 31 26.5 31C26.7652 31 27.0196 30.8946 27.2071 30.7071C27.3947 30.5196 27.5 30.2652 27.5 30V12.4137L29.7925 14.7075C29.9801 14.8951 30.2346 15.0005 30.5 15.0005C30.7654 15.0005 31.0199 14.8951 31.2075 14.7075C31.3951 14.5199 31.5006 14.2654 31.5006 14C31.5006 13.7346 31.3951 13.4801 31.2075 13.2925Z" fill="white"/>
</g>
<defs>
<filter id="filter0_ii_5174_908" x="-3.5" y="-4" width="48" height="48" filterUnits="userSpaceOnUse" color-interpolation-filters="sRGB">
<feFlood flood-opacity="0" result="BackgroundImageFix"/>
<feBlend mode="normal" in="SourceGraphic" in2="BackgroundImageFix" result="shape"/>
<feColorMatrix in="SourceAlpha" type="matrix" values="0 0 0 0 0 0 0 0 0 0 0 0 0 0 0 0 0 0 127 0" result="hardAlpha"/>
<feOffset dx="-4" dy="-4"/>
<feGaussianBlur stdDeviation="6"/>
<feComposite in2="hardAlpha" operator="arithmetic" k2="-1" k3="1"/>
<feColorMatrix type="matrix" values="0 0 0 0 0.423529 0 0 0 0 0.368627 0 0 0 0 0.980392 0 0 0 1 0"/>
<feBlend mode="normal" in2="shape" result="effect1_innerShadow_5174_908"/>
<feColorMatrix in="SourceAlpha" type="matrix" values="0 0 0 0 0 0 0 0 0 0 0 0 0 0 0 0 0 0 127 0" result="hardAlpha"/>
<feOffset dx="4" dy="4"/>
<feGaussianBlur stdDeviation="4"/>
<feComposite in2="hardAlpha" operator="arithmetic" k2="-1" k3="1"/>
<feColorMatrix type="matrix" values="0 0 0 0 0.669444 0 0 0 0 0.658333 0 0 0 0 1 0 0 0 1 0"/>
<feBlend mode="normal" in2="effect1_innerShadow_5174_908" result="effect2_innerShadow_5174_908"/>
</filter>
</defs>
</svg>