<svg width="127" height="161" viewBox="0 0 127 161" fill="none" xmlns="http://www.w3.org/2000/svg">
<path fill-rule="evenodd" clip-rule="evenodd" d="M83.9994 -6.3335C130.024 -6.3335 167.333 30.9748 167.333 76.9998C167.333 123.025 130.024 160.333 83.9994 160.333C37.9744 160.333 0.666016 123.025 0.666016 76.9998C0.666016 30.9748 37.9744 -6.3335 83.9994 -6.3335ZM17.9244 85.9248C19.8828 100.393 26.534 113.818 36.8575 124.142C47.181 134.465 60.6066 141.116 75.0744 143.075C73.1172 128.604 66.4655 115.176 56.1402 104.851C45.8149 94.5253 32.3865 87.8736 17.916 85.9165M150.066 85.9165C135.598 87.8749 122.173 94.5261 111.849 104.85C101.526 115.173 94.8744 128.599 92.916 143.067C107.384 141.108 120.809 134.457 131.133 124.133C141.456 113.81 148.108 100.384 150.066 85.9165ZM83.9994 38.3665C75.8076 55.2046 62.2041 68.8081 45.366 76.9998C62.2041 85.1916 75.8076 98.7951 83.9994 115.633C92.1911 98.7951 105.795 85.1916 122.633 76.9998C105.795 68.8081 92.1911 55.2046 83.9994 38.3665ZM75.0744 10.9248C60.6044 12.8833 47.1768 19.5354 36.8517 29.8605C26.5266 40.1856 19.8745 53.6132 17.916 68.0832C32.3892 66.1273 45.8204 59.4752 56.1475 49.148C66.4747 38.8209 73.1268 25.3897 75.0827 10.9165M92.9327 10.9165C94.8911 25.3842 101.542 38.8098 111.866 49.1333C122.189 59.4569 135.615 66.1081 150.083 68.0665C148.123 53.5963 141.47 40.1689 131.143 29.8451C120.816 19.5213 107.387 12.8715 92.916 10.9165" fill="url(#paint0_linear_3734_4373)"/>
<defs>
<linearGradient id="paint0_linear_3734_4373" x1="83.9994" y1="-6.3335" x2="83.9994" y2="160.333" gradientUnits="userSpaceOnUse">
<stop stop-color="#298D82" stop-opacity="0"/>
<stop offset="0.495" stop-color="#298D82"/>
<stop offset="1" stop-color="#298D82" stop-opacity="0"/>
</linearGradient>
</defs>
</svg>
