<svg xmlns="http://www.w3.org/2000/svg" width="32" height="18" viewBox="0 0 32 18" fill="none">
  <path fill-rule="evenodd" clip-rule="evenodd" d="M0 0V18H32V0H0Z" fill="#2E42A5"/>
  <mask id="mask0_4595_2762" style="mask-type:luminance" maskUnits="userSpaceOnUse" x="0" y="0" width="32" height="18">
    <path fill-rule="evenodd" clip-rule="evenodd" d="M0 0V18H32V0H0Z" fill="white"/>
  </mask>
  <g mask="url(#mask0_4595_2762)">
    <path d="M-3.5625 16.7138L3.4795 18.948L32.1595 2.42854L35.8745 -0.890957L28.3445 -1.63721L16.6465 5.48104L7.2305 10.278L-3.5625 16.7138Z" fill="white"/>
    <path d="M-2.59961 18.279L0.989391 19.575L34.5404 -1.19922H29.5034L-2.59961 18.279Z" fill="#F50100"/>
    <path d="M35.562 16.7138L28.52 18.948L-0.16 2.42854L-3.875 -0.890957L3.655 -1.63721L15.353 5.48104L24.769 10.278L35.562 16.7138Z" fill="white"/>
    <path d="M35.3226 17.8371L31.7346 19.1331L17.4486 10.2381L13.2126 9.24512L-4.23242 -0.879883H0.805578L18.2396 9.00512L22.8706 10.1961L35.3226 17.8371Z" fill="#F50100"/>
    <path fill-rule="evenodd" clip-rule="evenodd" d="M19.7773 -1.5H12.2213V6H-1.97266V12H12.2213V19.5H19.7773V12H34.0273V6H19.7773V-1.5Z" fill="#F50100"/>
    <mask id="mask1_4595_2762" style="mask-type:luminance" maskUnits="userSpaceOnUse" x="-2" y="-2" width="37" height="22">
      <path fill-rule="evenodd" clip-rule="evenodd" d="M19.7773 -1.5H12.2213V6H-1.97266V12H12.2213V19.5H19.7773V12H34.0273V6H19.7773V-1.5Z" fill="white"/>
    </mask>
    <g mask="url(#mask1_4595_2762)">
      <path d="M12.2213 -1.5V-3H10.2213V-1.5H12.2213ZM19.7773 -1.5H21.7773V-3H19.7773V-1.5ZM12.2213 6V7.5H14.2213V6H12.2213ZM-1.97266 6V4.5H-3.97266V6H-1.97266ZM-1.97266 12H-3.97266V13.5H-1.97266V12ZM12.2213 12H14.2213V10.5H12.2213V12ZM12.2213 19.5H10.2213V21H12.2213V19.5ZM19.7773 19.5V21H21.7773V19.5H19.7773ZM19.7773 12V10.5H17.7773V12H19.7773ZM34.0273 12V13.5H36.0273V12H34.0273ZM34.0273 6H36.0273V4.5H34.0273V6ZM19.7773 6H17.7773V7.5H19.7773V6ZM12.2213 0H19.7773V-3H12.2213V0ZM14.2213 6V-1.5H10.2213V6H14.2213ZM-1.97266 7.5H12.2213V4.5H-1.97266V7.5ZM0.0273438 12V6H-3.97266V12H0.0273438ZM12.2213 10.5H-1.97266V13.5H12.2213V10.5ZM14.2213 19.5V12H10.2213V19.5H14.2213ZM19.7773 18H12.2213V21H19.7773V18ZM17.7773 12V19.5H21.7773V12H17.7773ZM34.0273 10.5H19.7773V13.5H34.0273V10.5ZM32.0273 6V12H36.0273V6H32.0273ZM19.7773 7.5H34.0273V4.5H19.7773V7.5ZM17.7773 -1.5V6H21.7773V-1.5H17.7773Z" fill="white"/>
    </g>
  </g>
</svg>