<svg width="18" height="28" viewBox="0 0 18 28" fill="none" xmlns="http://www.w3.org/2000/svg">
<path d="M12 13.5H9.5V4.5H11C12.1935 4.5 13.3381 4.97411 14.182 5.81802C15.0259 6.66193 15.5 7.80653 15.5 9C15.5 9.13261 15.5527 9.25979 15.6464 9.35355C15.7402 9.44732 15.8674 9.5 16 9.5C16.1326 9.5 16.2598 9.44732 16.3536 9.35355C16.4473 9.25979 16.5 9.13261 16.5 9C16.4983 7.54182 15.9184 6.14383 14.8873 5.11274C13.8562 4.08165 12.4582 3.50165 11 3.5H9.5V1C9.5 0.867392 9.44732 0.740215 9.35355 0.646447C9.25979 0.552679 9.13261 0.5 9 0.5C8.86739 0.5 8.74021 0.552679 8.64645 0.646447C8.55268 0.740215 8.5 0.867392 8.5 1V3.5H7C5.54131 3.5 4.14236 4.07946 3.11091 5.11091C2.07946 6.14236 1.5 7.54131 1.5 9C1.5 10.4587 2.07946 11.8576 3.11091 12.8891C4.14236 13.9205 5.54131 14.5 7 14.5H8.5V23.5H6C4.80653 23.5 3.66193 23.0259 2.81802 22.182C1.97411 21.3381 1.5 20.1935 1.5 19C1.5 18.8674 1.44732 18.7402 1.35355 18.6464C1.25979 18.5527 1.13261 18.5 1 18.5C0.867392 18.5 0.740215 18.5527 0.646447 18.6464C0.552679 18.7402 0.5 18.8674 0.5 19C0.501654 20.4582 1.08165 21.8562 2.11274 22.8873C3.14383 23.9184 4.54182 24.4983 6 24.5H8.5V27C8.5 27.1326 8.55268 27.2598 8.64645 27.3536C8.74021 27.4473 8.86739 27.5 9 27.5C9.13261 27.5 9.25979 27.4473 9.35355 27.3536C9.44732 27.2598 9.5 27.1326 9.5 27V24.5H12C13.4587 24.5 14.8576 23.9205 15.8891 22.8891C16.9205 21.8576 17.5 20.4587 17.5 19C17.5 17.5413 16.9205 16.1424 15.8891 15.1109C14.8576 14.0795 13.4587 13.5 12 13.5ZM7 13.5C5.80653 13.5 4.66193 13.0259 3.81802 12.182C2.97411 11.3381 2.5 10.1935 2.5 9C2.5 7.80653 2.97411 6.66193 3.81802 5.81802C4.66193 4.97411 5.80653 4.5 7 4.5H8.5V13.5H7ZM12 23.5H9.5V14.5H12C13.1935 14.5 14.3381 14.9741 15.182 15.818C16.0259 16.6619 16.5 17.8065 16.5 19C16.5 20.1935 16.0259 21.3381 15.182 22.182C14.3381 23.0259 13.1935 23.5 12 23.5Z" fill="white"/>
</svg>
