<svg width="24" height="24" viewBox="0 0 24 24" fill="none" xmlns="http://www.w3.org/2000/svg">
<path fill-rule="evenodd" clip-rule="evenodd" d="M12 24C13.577 24.0039 15.1392 23.6962 16.5968 23.0945C18.0545 22.4928 19.3789 21.6091 20.494 20.494C21.6091 19.3789 22.4928 18.0545 23.0945 16.5968C23.6962 15.1392 24.0039 13.577 24 12C24.0039 10.423 23.6962 8.86085 23.0945 7.40317C22.4928 5.9455 21.6091 4.62108 20.494 3.50599C19.3789 2.39091 18.0545 1.50715 16.5968 0.905487C15.1392 0.303822 13.577 -0.00388717 12 3.70663e-05C10.423 -0.00388717 8.86085 0.303822 7.40317 0.905487C5.9455 1.50715 4.62108 2.39091 3.50599 3.50599C2.39091 4.62108 1.50715 5.9455 0.905487 7.40317C0.303822 8.86085 -0.00388717 10.423 3.70663e-05 12C-0.00388717 13.577 0.303822 15.1392 0.905487 16.5968C1.50715 18.0545 2.39091 19.3789 3.50599 20.494C4.62108 21.6091 5.9455 22.4928 7.40317 23.0945C8.86085 23.6962 10.423 24.0039 12 24ZM15.3006 13.897C15.3006 12.1505 14.2505 11.5502 12.1505 11.3017C10.6507 11.1005 10.3497 10.7015 10.3497 9.99796C10.3497 9.2997 10.852 8.84994 11.8495 8.84994C12.7508 8.84994 13.253 9.1492 13.4998 9.89996C13.5523 10.0505 13.7028 10.1467 13.8533 10.1467H14.6478C14.6938 10.1481 14.7396 10.1402 14.7824 10.1235C14.8253 10.1068 14.8643 10.0815 14.8972 10.0493C14.93 10.0171 14.956 9.97862 14.9736 9.93611C14.9912 9.8936 15 9.84797 14.9996 9.80196V9.74946C14.7983 8.64694 13.897 7.59692 12.7508 7.49892V6.3964C12.7508 6.19515 12.6003 6.04464 12.3518 5.99914H11.692C11.4907 5.99914 11.3017 6.14965 11.251 6.3964V7.49892C9.74946 7.70192 8.75194 8.84994 8.75194 10.103C8.75194 11.7515 9.74946 12.3973 11.8495 12.6528C13.253 12.8995 13.7028 13.2005 13.7028 14.002C13.7028 14.7965 12.9975 15.3531 12.0525 15.3531C10.747 15.3531 10.2972 14.7965 10.1485 14.0475C10.103 13.8515 9.95246 13.7465 9.80196 13.7465H8.94794C8.90179 13.746 8.85601 13.7549 8.81337 13.7726C8.77074 13.7903 8.73214 13.8165 8.69991 13.8495C8.66769 13.8826 8.6425 13.9218 8.62587 13.9649C8.60925 14.0079 8.60153 14.0539 8.60319 14.1V14.1525C8.79744 15.3968 9.60071 16.2526 11.251 16.4993V17.6106C11.251 17.8119 11.3997 17.9466 11.6482 17.9991H12.3675C12.5618 17.9991 12.6983 17.8644 12.7508 17.6106V16.4993C14.2505 16.2526 15.3006 15.2481 15.3006 13.897ZM6.94941 17.6351C7.67567 18.3001 8.52444 18.8146 9.4502 19.1489C9.60071 19.2539 9.74946 19.4499 9.74946 19.5986V20.3039C9.74946 20.4019 9.74946 20.4544 9.69696 20.4982C9.65321 20.7012 9.4502 20.7992 9.2472 20.7012C7.42755 20.1217 5.83938 18.9784 4.71237 17.4367C3.58536 15.895 2.97793 14.0348 2.97793 12.1251C2.97793 10.2154 3.58536 8.35523 4.71237 6.81354C5.83938 5.27185 7.42755 4.12859 9.2472 3.5491C9.2997 3.5036 9.3977 3.5036 9.4502 3.5036C9.65321 3.5491 9.74946 3.69785 9.74946 3.90086V4.59912C9.74946 4.85287 9.65321 5.00338 9.4502 5.10138C8.42752 5.47007 7.4986 6.05948 6.72944 6.82773C5.96028 7.59598 5.36978 8.52421 4.99988 9.54645C4.48424 10.9354 4.39414 12.4464 4.74106 13.8868C5.08798 15.3272 5.85619 16.6315 6.94766 17.6333M14.3013 3.7486C14.345 3.54735 14.548 3.44935 14.751 3.54735C16.1256 3.99473 17.3734 4.76371 18.391 5.79038C19.4085 6.81705 20.1663 8.07175 20.6014 9.4502C20.9606 10.5762 21.0941 11.7619 20.9945 12.9395C20.8948 14.1172 20.5639 15.2636 20.0207 16.3132C19.4774 17.3628 18.7325 18.2949 17.8286 19.0563C16.9247 19.8176 15.8795 20.3932 14.7528 20.7502C14.7003 20.7957 14.6023 20.7957 14.5498 20.7957C14.3468 20.7502 14.2505 20.6014 14.2505 20.3984V19.7001C14.2505 19.4464 14.3468 19.2959 14.5498 19.1979C15.5725 18.8292 16.5014 18.2398 17.2706 17.4715C18.0397 16.7033 18.6302 15.775 19.0001 14.7528C19.3431 13.8307 19.4999 12.8498 19.4616 11.8667C19.4233 10.8836 19.1907 9.91783 18.7771 9.02518C18.3634 8.13252 17.7771 7.33066 17.0518 6.66589C16.3265 6.00113 15.4768 5.48663 14.5515 5.15213C14.401 5.04713 14.2523 4.85112 14.2523 4.64987V3.94986C14.2523 3.84486 14.2523 3.79935 14.3048 3.74685" fill="#2775CA"/>
</svg>
