<svg xmlns="http://www.w3.org/2000/svg" width="18" height="18" viewBox="0 0 24 24" fill="none">
  <path d="M19.0577 11.4617V5.6149C19.0577 5.4232 18.9409 5.26634 18.7982 5.26634H15.5226L14.3453 2.56949C14.3096 2.48671 14.248 2.43007 14.1798 2.40829C14.1117 2.3865 14.0371 2.40829 13.9788 2.46057L10.8393 5.30992C10.8069 5.28814 10.7679 5.2707 10.729 5.2707H2.65983C2.51712 5.2707 2.40039 5.42754 2.40039 5.61923V21.2514C2.40039 21.4431 2.51712 21.5999 2.65983 21.5999H18.8015C18.9442 21.5999 19.0609 21.4431 19.0609 21.2514V15.1911H21.3442C21.4869 15.1911 21.6004 15.0343 21.6004 14.8426V11.8102C21.6004 11.6185 21.4836 11.4617 21.3442 11.4617H19.0577ZM18.5388 5.96344V8.08519H16.7485L15.8242 5.96344H18.5388ZM14.0404 3.24045L15.1204 5.71946C15.1334 5.7761 15.1528 5.82836 15.1852 5.86757L16.1517 8.08519H8.6955L14.0372 3.24045H14.0404ZM18.5388 20.8985H2.91281V5.95908H10.1128L7.77443 8.08083H5.3939C5.2512 8.08083 5.13442 8.23766 5.13442 8.42936C5.13442 8.62106 5.2512 8.7779 5.3939 8.7779H18.5388V11.4617H12.0945C11.9518 11.4617 11.835 11.6185 11.835 11.8102V14.8426C11.835 15.0343 11.9518 15.1911 12.0945 15.1911H18.5388V20.9072V20.8985ZM21.0815 14.4897H12.3539V12.1501H21.0815V14.4897Z" fill="white"/>
</svg>